<?xml version="1.0" encoding="utf-8" standalone="no"?>
<!DOCTYPE svg PUBLIC "-//W3C//DTD SVG 1.1//EN"
  "http://www.w3.org/Graphics/SVG/1.1/DTD/svg11.dtd">
<svg xmlns:xlink="http://www.w3.org/1999/xlink" width="720pt" height="432pt" viewBox="0 0 720 432" xmlns="http://www.w3.org/2000/svg" version="1.1">
 <metadata>
  <rdf:RDF xmlns:dc="http://purl.org/dc/elements/1.1/" xmlns:cc="http://creativecommons.org/ns#" xmlns:rdf="http://www.w3.org/1999/02/22-rdf-syntax-ns#">
   <cc:Work>
    <dc:type rdf:resource="http://purl.org/dc/dcmitype/StillImage"/>
    <dc:date>2024-05-26T10:32:05.633241</dc:date>
    <dc:format>image/svg+xml</dc:format>
    <dc:creator>
     <cc:Agent>
      <dc:title>Matplotlib v3.8.4, https://matplotlib.org/</dc:title>
     </cc:Agent>
    </dc:creator>
   </cc:Work>
  </rdf:RDF>
 </metadata>
 <defs>
  <style type="text/css">*{stroke-linejoin: round; stroke-linecap: butt}</style>
 </defs>
 <g id="figure_1">
  <g id="patch_1">
   <path d="M 0 432 
L 720 432 
L 720 0 
L 0 0 
z
" style="fill: #ffffff"/>
  </g>
  <g id="axes_1">
   <g id="patch_2">
    <path d="M 90 384.48 
L 648 384.48 
L 648 51.84 
L 90 51.84 
z
" style="fill: #ffffff"/>
   </g>
   <g id="PolyCollection_1">
    <defs>
     <path id="m8107bbdce8" d="M 90 -184.099803 
L 90 -105.29842 
L 92.205534 -102.074097 
L 94.411067 -102.86531 
L 96.616601 -103.371897 
L 98.822134 -101.965075 
L 101.027668 -101.863314 
L 103.233202 -101.927752 
L 105.438735 -101.706191 
L 107.644269 -101.776912 
L 109.849802 -101.357458 
L 112.055336 -101.99024 
L 114.26087 -101.132484 
L 116.466403 -101.111739 
L 118.671937 -100.969495 
L 120.87747 -101.106597 
L 123.083004 -101.047529 
L 125.288538 -101.114955 
L 127.494071 -101.479307 
L 129.699605 -101.204688 
L 131.905138 -100.889506 
L 134.110672 -100.649246 
L 136.316206 -101.358444 
L 138.521739 -102.059124 
L 140.727273 -101.287621 
L 142.932806 -102.052065 
L 145.13834 -100.647979 
L 147.343874 -100.990011 
L 149.549407 -100.490051 
L 151.754941 -100.565432 
L 153.960474 -100.05192 
L 156.166008 -100.170932 
L 158.371542 -99.544669 
L 160.577075 -100.022543 
L 162.782609 -100.259316 
L 164.988142 -100.316869 
L 167.193676 -100.448514 
L 169.399209 -101.485417 
L 171.604743 -101.309723 
L 173.810277 -101.091526 
L 176.01581 -100.949702 
L 178.221344 -100.929807 
L 180.426877 -101.134202 
L 182.632411 -101.042825 
L 184.837945 -101.000334 
L 187.043478 -100.235979 
L 189.249012 -100.970944 
L 191.454545 -100.860119 
L 193.660079 -100.646192 
L 195.865613 -99.46062 
L 198.071146 -99.324568 
L 200.27668 -99.188531 
L 202.482213 -100.307439 
L 204.687747 -100.355635 
L 206.893281 -99.82361 
L 209.098814 -99.118631 
L 211.304348 -98.181211 
L 213.509881 -98.927522 
L 215.715415 -97.771873 
L 217.920949 -97.88224 
L 220.126482 -97.177523 
L 222.332016 -96.992788 
L 224.537549 -96.525487 
L 226.743083 -97.860274 
L 228.948617 -97.706166 
L 231.15415 -97.971681 
L 233.359684 -97.175226 
L 235.565217 -97.072324 
L 237.770751 -96.792306 
L 239.976285 -97.069661 
L 242.181818 -97.217249 
L 244.387352 -96.584917 
L 246.592885 -96.838766 
L 248.798419 -96.173675 
L 251.003953 -96.650687 
L 253.209486 -96.157357 
L 255.41502 -96.668917 
L 257.620553 -96.22656 
L 259.826087 -96.211533 
L 262.031621 -96.026102 
L 264.237154 -95.935466 
L 266.442688 -96.024161 
L 268.648221 -96.258558 
L 270.853755 -96.158626 
L 273.059289 -95.287808 
L 275.264822 -95.624484 
L 277.470356 -95.058427 
L 279.675889 -96.120586 
L 281.881423 -95.495308 
L 284.086957 -96.251364 
L 286.29249 -95.450491 
L 288.498024 -95.613585 
L 290.703557 -96.022576 
L 292.909091 -95.611236 
L 295.114625 -95.422284 
L 297.320158 -95.577211 
L 299.525692 -95.14723 
L 301.731225 -94.921307 
L 303.936759 -95.010628 
L 306.142292 -95.075397 
L 308.347826 -95.168073 
L 310.55336 -94.824659 
L 312.758893 -95.15578 
L 314.964427 -94.982432 
L 317.16996 -95.416513 
L 319.375494 -95.088092 
L 321.581028 -95.11254 
L 323.786561 -95.413561 
L 325.992095 -95.70731 
L 328.197628 -95.261275 
L 330.403162 -94.867502 
L 332.608696 -95.138758 
L 334.814229 -94.831812 
L 337.019763 -94.787905 
L 339.225296 -94.783608 
L 341.43083 -95.085509 
L 343.636364 -94.842155 
L 345.841897 -94.89415 
L 348.047431 -94.690677 
L 350.252964 -94.646522 
L 352.458498 -95.006203 
L 354.664032 -94.738002 
L 356.869565 -94.693784 
L 359.075099 -94.728478 
L 361.280632 -94.6307 
L 363.486166 -94.383159 
L 365.6917 -94.712263 
L 367.897233 -94.615017 
L 370.102767 -95.139299 
L 372.3083 -95.903167 
L 374.513834 -96.03657 
L 376.719368 -95.313104 
L 378.924901 -95.58727 
L 381.130435 -95.550557 
L 383.335968 -95.2245 
L 385.541502 -95.786942 
L 387.747036 -95.218808 
L 389.952569 -95.370432 
L 392.158103 -96.045444 
L 394.363636 -95.604943 
L 396.56917 -96.257481 
L 398.774704 -96.101992 
L 400.980237 -95.631931 
L 403.185771 -95.48301 
L 405.391304 -95.424271 
L 407.596838 -95.214083 
L 409.802372 -95.044719 
L 412.007905 -94.999947 
L 414.213439 -95.411785 
L 416.418972 -95.693148 
L 418.624506 -95.948507 
L 420.83004 -96.343364 
L 423.035573 -96.0968 
L 425.241107 -96.009152 
L 427.44664 -95.737096 
L 429.652174 -97.435227 
L 431.857708 -96.285551 
L 434.063241 -95.911124 
L 436.268775 -95.888027 
L 438.474308 -95.720915 
L 440.679842 -95.835741 
L 442.885375 -95.713976 
L 445.090909 -95.801292 
L 447.296443 -95.913409 
L 449.501976 -96.562953 
L 451.70751 -96.076515 
L 453.913043 -96.252521 
L 456.118577 -96.40835 
L 458.324111 -96.190896 
L 460.529644 -96.419036 
L 462.735178 -96.514903 
L 464.940711 -96.722656 
L 467.146245 -96.614824 
L 469.351779 -96.88006 
L 471.557312 -96.767603 
L 473.762846 -97.187577 
L 475.968379 -97.299095 
L 478.173913 -98.112759 
L 480.379447 -97.623512 
L 482.58498 -97.136081 
L 484.790514 -96.223903 
L 486.996047 -96.153741 
L 489.201581 -95.973519 
L 491.407115 -96.030482 
L 493.612648 -95.906347 
L 495.818182 -96.0971 
L 498.023715 -96.690432 
L 500.229249 -96.629457 
L 502.434783 -96.260609 
L 504.640316 -96.426572 
L 506.84585 -96.428803 
L 509.051383 -96.889265 
L 511.256917 -96.918334 
L 513.462451 -97.460434 
L 515.667984 -96.925214 
L 517.873518 -97.279225 
L 520.079051 -97.172991 
L 522.284585 -97.01403 
L 524.490119 -97.224941 
L 526.695652 -97.156254 
L 528.901186 -97.577224 
L 531.106719 -96.918135 
L 533.312253 -97.480539 
L 535.517787 -97.541535 
L 537.72332 -97.916919 
L 539.928854 -97.615933 
L 542.134387 -97.546779 
L 544.339921 -97.124733 
L 546.545455 -97.365715 
L 548.750988 -96.663265 
L 550.956522 -97.386669 
L 553.162055 -97.386572 
L 555.367589 -97.62423 
L 557.573123 -97.221119 
L 559.778656 -97.865521 
L 561.98419 -97.580848 
L 564.189723 -97.617416 
L 566.395257 -97.549372 
L 568.600791 -98.415843 
L 570.806324 -97.869576 
L 573.011858 -97.138089 
L 575.217391 -97.383439 
L 577.422925 -97.153875 
L 579.628458 -97.307163 
L 581.833992 -97.150787 
L 584.039526 -97.173509 
L 586.245059 -96.673091 
L 588.450593 -96.664218 
L 590.656126 -96.99554 
L 592.86166 -96.652051 
L 595.067194 -97.60339 
L 597.272727 -97.129522 
L 599.478261 -97.214448 
L 601.683794 -96.911925 
L 603.889328 -97.012636 
L 606.094862 -96.483851 
L 608.300395 -96.492032 
L 610.505929 -96.973645 
L 612.711462 -97.540315 
L 614.916996 -97.021812 
L 617.12253 -96.995354 
L 619.328063 -96.980369 
L 621.533597 -96.785354 
L 623.73913 -97.324241 
L 625.944664 -97.200618 
L 628.150198 -97.020705 
L 630.355731 -97.198662 
L 632.561265 -97.661174 
L 634.766798 -97.065315 
L 636.972332 -96.866771 
L 639.177866 -96.807918 
L 641.383399 -97.294219 
L 643.588933 -96.821031 
L 645.794466 -97.064471 
L 648 -96.771854 
L 650.205534 -95.738296 
L 650.205534 -163.536993 
L 650.205534 -163.536993 
L 648 -164.285607 
L 645.794466 -164.610666 
L 643.588933 -164.560451 
L 641.383399 -164.929269 
L 639.177866 -164.612109 
L 636.972332 -165.199661 
L 634.766798 -164.144579 
L 632.561265 -165.677835 
L 630.355731 -164.828787 
L 628.150198 -164.445506 
L 625.944664 -165.001134 
L 623.73913 -164.680639 
L 621.533597 -163.713619 
L 619.328063 -164.660357 
L 617.12253 -164.634304 
L 614.916996 -164.917028 
L 612.711462 -165.545072 
L 610.505929 -164.685204 
L 608.300395 -163.277967 
L 606.094862 -163.262852 
L 603.889328 -164.549446 
L 601.683794 -163.632316 
L 599.478261 -164.439502 
L 597.272727 -164.095849 
L 595.067194 -164.599309 
L 592.86166 -163.027346 
L 590.656126 -164.654795 
L 588.450593 -163.897034 
L 586.245059 -164.272283 
L 584.039526 -165.200927 
L 581.833992 -164.830321 
L 579.628458 -165.034594 
L 577.422925 -165.319146 
L 575.217391 -165.264945 
L 573.011858 -165.619249 
L 570.806324 -166.848102 
L 568.600791 -167.525709 
L 566.395257 -165.840477 
L 564.189723 -165.276626 
L 561.98419 -165.216976 
L 559.778656 -165.879347 
L 557.573123 -164.603001 
L 555.367589 -165.651251 
L 553.162055 -164.871486 
L 550.956522 -165.798075 
L 548.750988 -164.487786 
L 546.545455 -164.966294 
L 544.339921 -164.484201 
L 542.134387 -165.722819 
L 539.928854 -165.562451 
L 537.72332 -166.126077 
L 535.517787 -165.139259 
L 533.312253 -165.831575 
L 531.106719 -163.326985 
L 528.901186 -165.994447 
L 526.695652 -164.129336 
L 524.490119 -164.521623 
L 522.284585 -163.769647 
L 520.079051 -164.585289 
L 517.873518 -164.565082 
L 515.667984 -163.848352 
L 513.462451 -164.905089 
L 511.256917 -163.714237 
L 509.051383 -165.020637 
L 506.84585 -163.335856 
L 504.640316 -162.918484 
L 502.434783 -162.790861 
L 500.229249 -163.285581 
L 498.023715 -163.436644 
L 495.818182 -162.056115 
L 493.612648 -162.265305 
L 491.407115 -162.34374 
L 489.201581 -162.466226 
L 486.996047 -161.714793 
L 484.790514 -162.818826 
L 482.58498 -164.927272 
L 480.379447 -166.369612 
L 478.173913 -167.078358 
L 475.968379 -165.396763 
L 473.762846 -164.631309 
L 471.557312 -164.150958 
L 469.351779 -164.162718 
L 467.146245 -163.703747 
L 464.940711 -163.856784 
L 462.735178 -162.764259 
L 460.529644 -163.619426 
L 458.324111 -162.617656 
L 456.118577 -163.213137 
L 453.913043 -162.554606 
L 451.70751 -162.382717 
L 449.501976 -163.019917 
L 447.296443 -161.98516 
L 445.090909 -161.922946 
L 442.885375 -161.879938 
L 440.679842 -161.820203 
L 438.474308 -161.69441 
L 436.268775 -162.415356 
L 434.063241 -162.506324 
L 431.857708 -163.365619 
L 429.652174 -165.030306 
L 427.44664 -162.161825 
L 425.241107 -162.549687 
L 423.035573 -162.546165 
L 420.83004 -163.155712 
L 418.624506 -162.175819 
L 416.418972 -161.147151 
L 414.213439 -161.50985 
L 412.007905 -160.721355 
L 409.802372 -161.045641 
L 407.596838 -160.843211 
L 405.391304 -161.778498 
L 403.185771 -161.634497 
L 400.980237 -162.875106 
L 398.774704 -163.276267 
L 396.56917 -163.79921 
L 394.363636 -161.771179 
L 392.158103 -162.239421 
L 389.952569 -161.083379 
L 387.747036 -162.121585 
L 385.541502 -161.574934 
L 383.335968 -161.508313 
L 381.130435 -161.671825 
L 378.924901 -161.909525 
L 376.719368 -161.31125 
L 374.513834 -161.923231 
L 372.3083 -162.341215 
L 370.102767 -160.687252 
L 367.897233 -159.814379 
L 365.6917 -159.839729 
L 363.486166 -159.801446 
L 361.280632 -160.116394 
L 359.075099 -160.10622 
L 356.869565 -159.981282 
L 354.664032 -160.27639 
L 352.458498 -160.66824 
L 350.252964 -159.970732 
L 348.047431 -160.233503 
L 345.841897 -160.386049 
L 343.636364 -160.152173 
L 341.43083 -161.0165 
L 339.225296 -160.280606 
L 337.019763 -160.836197 
L 334.814229 -160.489583 
L 332.608696 -160.346524 
L 330.403162 -160.85377 
L 328.197628 -161.333378 
L 325.992095 -161.690292 
L 323.786561 -161.033712 
L 321.581028 -160.599158 
L 319.375494 -160.80404 
L 317.16996 -162.378025 
L 314.964427 -161.138222 
L 312.758893 -160.765103 
L 310.55336 -161.210114 
L 308.347826 -160.992395 
L 306.142292 -161.28747 
L 303.936759 -160.592817 
L 301.731225 -160.530181 
L 299.525692 -161.15013 
L 297.320158 -161.165051 
L 295.114625 -162.064017 
L 292.909091 -161.451024 
L 290.703557 -162.506121 
L 288.498024 -161.624474 
L 286.29249 -162.438194 
L 284.086957 -162.724773 
L 281.881423 -161.374437 
L 279.675889 -162.584278 
L 277.470356 -161.424537 
L 275.264822 -162.109664 
L 273.059289 -161.287288 
L 270.853755 -163.430722 
L 268.648221 -162.622751 
L 266.442688 -163.045834 
L 264.237154 -162.551899 
L 262.031621 -162.459758 
L 259.826087 -163.06341 
L 257.620553 -162.960867 
L 255.41502 -163.094188 
L 253.209486 -162.595877 
L 251.003953 -163.469987 
L 248.798419 -162.89097 
L 246.592885 -164.198246 
L 244.387352 -163.739763 
L 242.181818 -164.894948 
L 239.976285 -164.249767 
L 237.770751 -164.397846 
L 235.565217 -163.414055 
L 233.359684 -164.553422 
L 231.15415 -166.062284 
L 228.948617 -164.979275 
L 226.743083 -165.180612 
L 224.537549 -162.968569 
L 222.332016 -163.697046 
L 220.126482 -164.286722 
L 217.920949 -165.15748 
L 215.715415 -165.786237 
L 213.509881 -169.083685 
L 211.304348 -166.964774 
L 209.098814 -168.723347 
L 206.893281 -170.841619 
L 204.687747 -172.039472 
L 202.482213 -171.64972 
L 200.27668 -169.401488 
L 198.071146 -168.921853 
L 195.865613 -169.151549 
L 193.660079 -170.795899 
L 191.454545 -172.907872 
L 189.249012 -172.697582 
L 187.043478 -171.684426 
L 184.837945 -172.671059 
L 182.632411 -172.180992 
L 180.426877 -173.887786 
L 178.221344 -171.71712 
L 176.01581 -172.735186 
L 173.810277 -173.604601 
L 171.604743 -173.309354 
L 169.399209 -172.967631 
L 167.193676 -171.738051 
L 164.988142 -170.786357 
L 162.782609 -170.986448 
L 160.577075 -169.974523 
L 158.371542 -169.429148 
L 156.166008 -170.667251 
L 153.960474 -170.018976 
L 151.754941 -171.38994 
L 149.549407 -171.728231 
L 147.343874 -172.991521 
L 145.13834 -171.877431 
L 142.932806 -175.874319 
L 140.727273 -173.930369 
L 138.521739 -175.014851 
L 136.316206 -173.08171 
L 134.110672 -172.7084 
L 131.905138 -172.034962 
L 129.699605 -173.45488 
L 127.494071 -174.059629 
L 125.288538 -172.779109 
L 123.083004 -173.167071 
L 120.87747 -172.749301 
L 118.671937 -173.962572 
L 116.466403 -172.348874 
L 114.26087 -173.576242 
L 112.055336 -175.211156 
L 109.849802 -174.187346 
L 107.644269 -175.470157 
L 105.438735 -175.162968 
L 103.233202 -175.821397 
L 101.027668 -175.674549 
L 98.822134 -175.878495 
L 96.616601 -179.243829 
L 94.411067 -179.360017 
L 92.205534 -179.670606 
L 90 -184.099803 
z
" style="stroke: #0000ff; stroke-opacity: 0.2"/>
    </defs>
    <g clip-path="url(#p3a989bef67)">
     <use xlink:href="#m8107bbdce8" x="0" y="432" style="fill: #0000ff; fill-opacity: 0.2; stroke: #0000ff; stroke-opacity: 0.2"/>
    </g>
   </g>
   <g id="matplotlib.axis_1">
    <g id="xtick_1">
     <g id="line2d_1">
      <defs>
       <path id="m032f5a6e2f" d="M 0 0 
L 0 3.5 
" style="stroke: #000000; stroke-width: 0.8"/>
      </defs>
      <g>
       <use xlink:href="#m032f5a6e2f" x="90" y="384.48" style="stroke: #000000; stroke-width: 0.8"/>
      </g>
     </g>
     <g id="text_1">
      <!-- 0 -->
      <g transform="translate(86.81875 399.078438) scale(0.1 -0.1)">
       <defs>
        <path id="DejaVuSans-30" d="M 2034 4250 
Q 1547 4250 1301 3770 
Q 1056 3291 1056 2328 
Q 1056 1369 1301 889 
Q 1547 409 2034 409 
Q 2525 409 2770 889 
Q 3016 1369 3016 2328 
Q 3016 3291 2770 3770 
Q 2525 4250 2034 4250 
z
M 2034 4750 
Q 2819 4750 3233 4129 
Q 3647 3509 3647 2328 
Q 3647 1150 3233 529 
Q 2819 -91 2034 -91 
Q 1250 -91 836 529 
Q 422 1150 422 2328 
Q 422 3509 836 4129 
Q 1250 4750 2034 4750 
z
" transform="scale(0.015625)"/>
       </defs>
       <use xlink:href="#DejaVuSans-30"/>
      </g>
     </g>
    </g>
    <g id="xtick_2">
     <g id="line2d_2">
      <g>
       <use xlink:href="#m032f5a6e2f" x="158.282773" y="384.48" style="stroke: #000000; stroke-width: 0.8"/>
      </g>
     </g>
     <g id="text_2">
      <!-- 50 -->
      <g transform="translate(151.920273 399.078438) scale(0.1 -0.1)">
       <defs>
        <path id="DejaVuSans-35" d="M 691 4666 
L 3169 4666 
L 3169 4134 
L 1269 4134 
L 1269 2991 
Q 1406 3038 1543 3061 
Q 1681 3084 1819 3084 
Q 2600 3084 3056 2656 
Q 3513 2228 3513 1497 
Q 3513 744 3044 326 
Q 2575 -91 1722 -91 
Q 1428 -91 1123 -41 
Q 819 9 494 109 
L 494 744 
Q 775 591 1075 516 
Q 1375 441 1709 441 
Q 2250 441 2565 725 
Q 2881 1009 2881 1497 
Q 2881 1984 2565 2268 
Q 2250 2553 1709 2553 
Q 1456 2553 1204 2497 
Q 953 2441 691 2322 
L 691 4666 
z
" transform="scale(0.015625)"/>
       </defs>
       <use xlink:href="#DejaVuSans-35"/>
       <use xlink:href="#DejaVuSans-30" x="63.623047"/>
      </g>
     </g>
    </g>
    <g id="xtick_3">
     <g id="line2d_3">
      <g>
       <use xlink:href="#m032f5a6e2f" x="226.565547" y="384.48" style="stroke: #000000; stroke-width: 0.8"/>
      </g>
     </g>
     <g id="text_3">
      <!-- 100 -->
      <g transform="translate(217.021797 399.078438) scale(0.1 -0.1)">
       <defs>
        <path id="DejaVuSans-31" d="M 794 531 
L 1825 531 
L 1825 4091 
L 703 3866 
L 703 4441 
L 1819 4666 
L 2450 4666 
L 2450 531 
L 3481 531 
L 3481 0 
L 794 0 
L 794 531 
z
" transform="scale(0.015625)"/>
       </defs>
       <use xlink:href="#DejaVuSans-31"/>
       <use xlink:href="#DejaVuSans-30" x="63.623047"/>
       <use xlink:href="#DejaVuSans-30" x="127.246094"/>
      </g>
     </g>
    </g>
    <g id="xtick_4">
     <g id="line2d_4">
      <g>
       <use xlink:href="#m032f5a6e2f" x="294.84832" y="384.48" style="stroke: #000000; stroke-width: 0.8"/>
      </g>
     </g>
     <g id="text_4">
      <!-- 150 -->
      <g transform="translate(285.30457 399.078438) scale(0.1 -0.1)">
       <use xlink:href="#DejaVuSans-31"/>
       <use xlink:href="#DejaVuSans-35" x="63.623047"/>
       <use xlink:href="#DejaVuSans-30" x="127.246094"/>
      </g>
     </g>
    </g>
    <g id="xtick_5">
     <g id="line2d_5">
      <g>
       <use xlink:href="#m032f5a6e2f" x="363.131094" y="384.48" style="stroke: #000000; stroke-width: 0.8"/>
      </g>
     </g>
     <g id="text_5">
      <!-- 200 -->
      <g transform="translate(353.587344 399.078438) scale(0.1 -0.1)">
       <defs>
        <path id="DejaVuSans-32" d="M 1228 531 
L 3431 531 
L 3431 0 
L 469 0 
L 469 531 
Q 828 903 1448 1529 
Q 2069 2156 2228 2338 
Q 2531 2678 2651 2914 
Q 2772 3150 2772 3378 
Q 2772 3750 2511 3984 
Q 2250 4219 1831 4219 
Q 1534 4219 1204 4116 
Q 875 4013 500 3803 
L 500 4441 
Q 881 4594 1212 4672 
Q 1544 4750 1819 4750 
Q 2544 4750 2975 4387 
Q 3406 4025 3406 3419 
Q 3406 3131 3298 2873 
Q 3191 2616 2906 2266 
Q 2828 2175 2409 1742 
Q 1991 1309 1228 531 
z
" transform="scale(0.015625)"/>
       </defs>
       <use xlink:href="#DejaVuSans-32"/>
       <use xlink:href="#DejaVuSans-30" x="63.623047"/>
       <use xlink:href="#DejaVuSans-30" x="127.246094"/>
      </g>
     </g>
    </g>
    <g id="xtick_6">
     <g id="line2d_6">
      <g>
       <use xlink:href="#m032f5a6e2f" x="431.413867" y="384.48" style="stroke: #000000; stroke-width: 0.8"/>
      </g>
     </g>
     <g id="text_6">
      <!-- 250 -->
      <g transform="translate(421.870117 399.078438) scale(0.1 -0.1)">
       <use xlink:href="#DejaVuSans-32"/>
       <use xlink:href="#DejaVuSans-35" x="63.623047"/>
       <use xlink:href="#DejaVuSans-30" x="127.246094"/>
      </g>
     </g>
    </g>
    <g id="xtick_7">
     <g id="line2d_7">
      <g>
       <use xlink:href="#m032f5a6e2f" x="499.696641" y="384.48" style="stroke: #000000; stroke-width: 0.8"/>
      </g>
     </g>
     <g id="text_7">
      <!-- 300 -->
      <g transform="translate(490.152891 399.078438) scale(0.1 -0.1)">
       <defs>
        <path id="DejaVuSans-33" d="M 2597 2516 
Q 3050 2419 3304 2112 
Q 3559 1806 3559 1356 
Q 3559 666 3084 287 
Q 2609 -91 1734 -91 
Q 1441 -91 1130 -33 
Q 819 25 488 141 
L 488 750 
Q 750 597 1062 519 
Q 1375 441 1716 441 
Q 2309 441 2620 675 
Q 2931 909 2931 1356 
Q 2931 1769 2642 2001 
Q 2353 2234 1838 2234 
L 1294 2234 
L 1294 2753 
L 1863 2753 
Q 2328 2753 2575 2939 
Q 2822 3125 2822 3475 
Q 2822 3834 2567 4026 
Q 2313 4219 1838 4219 
Q 1578 4219 1281 4162 
Q 984 4106 628 3988 
L 628 4550 
Q 988 4650 1302 4700 
Q 1616 4750 1894 4750 
Q 2613 4750 3031 4423 
Q 3450 4097 3450 3541 
Q 3450 3153 3228 2886 
Q 3006 2619 2597 2516 
z
" transform="scale(0.015625)"/>
       </defs>
       <use xlink:href="#DejaVuSans-33"/>
       <use xlink:href="#DejaVuSans-30" x="63.623047"/>
       <use xlink:href="#DejaVuSans-30" x="127.246094"/>
      </g>
     </g>
    </g>
    <g id="xtick_8">
     <g id="line2d_8">
      <g>
       <use xlink:href="#m032f5a6e2f" x="567.979414" y="384.48" style="stroke: #000000; stroke-width: 0.8"/>
      </g>
     </g>
     <g id="text_8">
      <!-- 350 -->
      <g transform="translate(558.435664 399.078438) scale(0.1 -0.1)">
       <use xlink:href="#DejaVuSans-33"/>
       <use xlink:href="#DejaVuSans-35" x="63.623047"/>
       <use xlink:href="#DejaVuSans-30" x="127.246094"/>
      </g>
     </g>
    </g>
    <g id="xtick_9">
     <g id="line2d_9">
      <g>
       <use xlink:href="#m032f5a6e2f" x="636.262188" y="384.48" style="stroke: #000000; stroke-width: 0.8"/>
      </g>
     </g>
     <g id="text_9">
      <!-- 400 -->
      <g transform="translate(626.718438 399.078438) scale(0.1 -0.1)">
       <defs>
        <path id="DejaVuSans-34" d="M 2419 4116 
L 825 1625 
L 2419 1625 
L 2419 4116 
z
M 2253 4666 
L 3047 4666 
L 3047 1625 
L 3713 1625 
L 3713 1100 
L 3047 1100 
L 3047 0 
L 2419 0 
L 2419 1100 
L 313 1100 
L 313 1709 
L 2253 4666 
z
" transform="scale(0.015625)"/>
       </defs>
       <use xlink:href="#DejaVuSans-34"/>
       <use xlink:href="#DejaVuSans-30" x="63.623047"/>
       <use xlink:href="#DejaVuSans-30" x="127.246094"/>
      </g>
     </g>
    </g>
    <g id="text_10">
     <!-- Time (s) -->
     <g transform="translate(336.47375 417.315625) scale(0.16 -0.16)">
      <defs>
       <path id="DejaVuSans-54" d="M -19 4666 
L 3928 4666 
L 3928 4134 
L 2272 4134 
L 2272 0 
L 1638 0 
L 1638 4134 
L -19 4134 
L -19 4666 
z
" transform="scale(0.015625)"/>
       <path id="DejaVuSans-69" d="M 603 3500 
L 1178 3500 
L 1178 0 
L 603 0 
L 603 3500 
z
M 603 4863 
L 1178 4863 
L 1178 4134 
L 603 4134 
L 603 4863 
z
" transform="scale(0.015625)"/>
       <path id="DejaVuSans-6d" d="M 3328 2828 
Q 3544 3216 3844 3400 
Q 4144 3584 4550 3584 
Q 5097 3584 5394 3201 
Q 5691 2819 5691 2113 
L 5691 0 
L 5113 0 
L 5113 2094 
Q 5113 2597 4934 2840 
Q 4756 3084 4391 3084 
Q 3944 3084 3684 2787 
Q 3425 2491 3425 1978 
L 3425 0 
L 2847 0 
L 2847 2094 
Q 2847 2600 2669 2842 
Q 2491 3084 2119 3084 
Q 1678 3084 1418 2786 
Q 1159 2488 1159 1978 
L 1159 0 
L 581 0 
L 581 3500 
L 1159 3500 
L 1159 2956 
Q 1356 3278 1631 3431 
Q 1906 3584 2284 3584 
Q 2666 3584 2933 3390 
Q 3200 3197 3328 2828 
z
" transform="scale(0.015625)"/>
       <path id="DejaVuSans-65" d="M 3597 1894 
L 3597 1613 
L 953 1613 
Q 991 1019 1311 708 
Q 1631 397 2203 397 
Q 2534 397 2845 478 
Q 3156 559 3463 722 
L 3463 178 
Q 3153 47 2828 -22 
Q 2503 -91 2169 -91 
Q 1331 -91 842 396 
Q 353 884 353 1716 
Q 353 2575 817 3079 
Q 1281 3584 2069 3584 
Q 2775 3584 3186 3129 
Q 3597 2675 3597 1894 
z
M 3022 2063 
Q 3016 2534 2758 2815 
Q 2500 3097 2075 3097 
Q 1594 3097 1305 2825 
Q 1016 2553 972 2059 
L 3022 2063 
z
" transform="scale(0.015625)"/>
       <path id="DejaVuSans-20" transform="scale(0.015625)"/>
       <path id="DejaVuSans-28" d="M 1984 4856 
Q 1566 4138 1362 3434 
Q 1159 2731 1159 2009 
Q 1159 1288 1364 580 
Q 1569 -128 1984 -844 
L 1484 -844 
Q 1016 -109 783 600 
Q 550 1309 550 2009 
Q 550 2706 781 3412 
Q 1013 4119 1484 4856 
L 1984 4856 
z
" transform="scale(0.015625)"/>
       <path id="DejaVuSans-73" d="M 2834 3397 
L 2834 2853 
Q 2591 2978 2328 3040 
Q 2066 3103 1784 3103 
Q 1356 3103 1142 2972 
Q 928 2841 928 2578 
Q 928 2378 1081 2264 
Q 1234 2150 1697 2047 
L 1894 2003 
Q 2506 1872 2764 1633 
Q 3022 1394 3022 966 
Q 3022 478 2636 193 
Q 2250 -91 1575 -91 
Q 1294 -91 989 -36 
Q 684 19 347 128 
L 347 722 
Q 666 556 975 473 
Q 1284 391 1588 391 
Q 1994 391 2212 530 
Q 2431 669 2431 922 
Q 2431 1156 2273 1281 
Q 2116 1406 1581 1522 
L 1381 1569 
Q 847 1681 609 1914 
Q 372 2147 372 2553 
Q 372 3047 722 3315 
Q 1072 3584 1716 3584 
Q 2034 3584 2315 3537 
Q 2597 3491 2834 3397 
z
" transform="scale(0.015625)"/>
       <path id="DejaVuSans-29" d="M 513 4856 
L 1013 4856 
Q 1481 4119 1714 3412 
Q 1947 2706 1947 2009 
Q 1947 1309 1714 600 
Q 1481 -109 1013 -844 
L 513 -844 
Q 928 -128 1133 580 
Q 1338 1288 1338 2009 
Q 1338 2731 1133 3434 
Q 928 4138 513 4856 
z
" transform="scale(0.015625)"/>
      </defs>
      <use xlink:href="#DejaVuSans-54"/>
      <use xlink:href="#DejaVuSans-69" x="57.958984"/>
      <use xlink:href="#DejaVuSans-6d" x="85.742188"/>
      <use xlink:href="#DejaVuSans-65" x="183.154297"/>
      <use xlink:href="#DejaVuSans-20" x="244.677734"/>
      <use xlink:href="#DejaVuSans-28" x="276.464844"/>
      <use xlink:href="#DejaVuSans-73" x="315.478516"/>
      <use xlink:href="#DejaVuSans-29" x="367.578125"/>
     </g>
    </g>
   </g>
   <g id="matplotlib.axis_2">
    <g id="ytick_1">
     <g id="line2d_10">
      <defs>
       <path id="m0db6ae3d93" d="M 0 0 
L -3.5 0 
" style="stroke: #000000; stroke-width: 0.8"/>
      </defs>
      <g>
       <use xlink:href="#m0db6ae3d93" x="90" y="353.341629" style="stroke: #000000; stroke-width: 0.8"/>
      </g>
     </g>
     <g id="text_11">
      <!-- 100 -->
      <g transform="translate(63.9125 357.140847) scale(0.1 -0.1)">
       <use xlink:href="#DejaVuSans-31"/>
       <use xlink:href="#DejaVuSans-30" x="63.623047"/>
       <use xlink:href="#DejaVuSans-30" x="127.246094"/>
      </g>
     </g>
    </g>
    <g id="ytick_2">
     <g id="line2d_11">
      <g>
       <use xlink:href="#m0db6ae3d93" x="90" y="313.615644" style="stroke: #000000; stroke-width: 0.8"/>
      </g>
     </g>
     <g id="text_12">
      <!-- 200 -->
      <g transform="translate(63.9125 317.414863) scale(0.1 -0.1)">
       <use xlink:href="#DejaVuSans-32"/>
       <use xlink:href="#DejaVuSans-30" x="63.623047"/>
       <use xlink:href="#DejaVuSans-30" x="127.246094"/>
      </g>
     </g>
    </g>
    <g id="ytick_3">
     <g id="line2d_12">
      <g>
       <use xlink:href="#m0db6ae3d93" x="90" y="273.88966" style="stroke: #000000; stroke-width: 0.8"/>
      </g>
     </g>
     <g id="text_13">
      <!-- 300 -->
      <g transform="translate(63.9125 277.688879) scale(0.1 -0.1)">
       <use xlink:href="#DejaVuSans-33"/>
       <use xlink:href="#DejaVuSans-30" x="63.623047"/>
       <use xlink:href="#DejaVuSans-30" x="127.246094"/>
      </g>
     </g>
    </g>
    <g id="ytick_4">
     <g id="line2d_13">
      <g>
       <use xlink:href="#m0db6ae3d93" x="90" y="234.163676" style="stroke: #000000; stroke-width: 0.8"/>
      </g>
     </g>
     <g id="text_14">
      <!-- 400 -->
      <g transform="translate(63.9125 237.962894) scale(0.1 -0.1)">
       <use xlink:href="#DejaVuSans-34"/>
       <use xlink:href="#DejaVuSans-30" x="63.623047"/>
       <use xlink:href="#DejaVuSans-30" x="127.246094"/>
      </g>
     </g>
    </g>
    <g id="ytick_5">
     <g id="line2d_14">
      <g>
       <use xlink:href="#m0db6ae3d93" x="90" y="194.437691" style="stroke: #000000; stroke-width: 0.8"/>
      </g>
     </g>
     <g id="text_15">
      <!-- 500 -->
      <g transform="translate(63.9125 198.23691) scale(0.1 -0.1)">
       <use xlink:href="#DejaVuSans-35"/>
       <use xlink:href="#DejaVuSans-30" x="63.623047"/>
       <use xlink:href="#DejaVuSans-30" x="127.246094"/>
      </g>
     </g>
    </g>
    <g id="ytick_6">
     <g id="line2d_15">
      <g>
       <use xlink:href="#m0db6ae3d93" x="90" y="154.711707" style="stroke: #000000; stroke-width: 0.8"/>
      </g>
     </g>
     <g id="text_16">
      <!-- 600 -->
      <g transform="translate(63.9125 158.510926) scale(0.1 -0.1)">
       <defs>
        <path id="DejaVuSans-36" d="M 2113 2584 
Q 1688 2584 1439 2293 
Q 1191 2003 1191 1497 
Q 1191 994 1439 701 
Q 1688 409 2113 409 
Q 2538 409 2786 701 
Q 3034 994 3034 1497 
Q 3034 2003 2786 2293 
Q 2538 2584 2113 2584 
z
M 3366 4563 
L 3366 3988 
Q 3128 4100 2886 4159 
Q 2644 4219 2406 4219 
Q 1781 4219 1451 3797 
Q 1122 3375 1075 2522 
Q 1259 2794 1537 2939 
Q 1816 3084 2150 3084 
Q 2853 3084 3261 2657 
Q 3669 2231 3669 1497 
Q 3669 778 3244 343 
Q 2819 -91 2113 -91 
Q 1303 -91 875 529 
Q 447 1150 447 2328 
Q 447 3434 972 4092 
Q 1497 4750 2381 4750 
Q 2619 4750 2861 4703 
Q 3103 4656 3366 4563 
z
" transform="scale(0.015625)"/>
       </defs>
       <use xlink:href="#DejaVuSans-36"/>
       <use xlink:href="#DejaVuSans-30" x="63.623047"/>
       <use xlink:href="#DejaVuSans-30" x="127.246094"/>
      </g>
     </g>
    </g>
    <g id="ytick_7">
     <g id="line2d_16">
      <g>
       <use xlink:href="#m0db6ae3d93" x="90" y="114.985723" style="stroke: #000000; stroke-width: 0.8"/>
      </g>
     </g>
     <g id="text_17">
      <!-- 700 -->
      <g transform="translate(63.9125 118.784942) scale(0.1 -0.1)">
       <defs>
        <path id="DejaVuSans-37" d="M 525 4666 
L 3525 4666 
L 3525 4397 
L 1831 0 
L 1172 0 
L 2766 4134 
L 525 4134 
L 525 4666 
z
" transform="scale(0.015625)"/>
       </defs>
       <use xlink:href="#DejaVuSans-37"/>
       <use xlink:href="#DejaVuSans-30" x="63.623047"/>
       <use xlink:href="#DejaVuSans-30" x="127.246094"/>
      </g>
     </g>
    </g>
    <g id="ytick_8">
     <g id="line2d_17">
      <g>
       <use xlink:href="#m0db6ae3d93" x="90" y="75.259739" style="stroke: #000000; stroke-width: 0.8"/>
      </g>
     </g>
     <g id="text_18">
      <!-- 800 -->
      <g transform="translate(63.9125 79.058957) scale(0.1 -0.1)">
       <defs>
        <path id="DejaVuSans-38" d="M 2034 2216 
Q 1584 2216 1326 1975 
Q 1069 1734 1069 1313 
Q 1069 891 1326 650 
Q 1584 409 2034 409 
Q 2484 409 2743 651 
Q 3003 894 3003 1313 
Q 3003 1734 2745 1975 
Q 2488 2216 2034 2216 
z
M 1403 2484 
Q 997 2584 770 2862 
Q 544 3141 544 3541 
Q 544 4100 942 4425 
Q 1341 4750 2034 4750 
Q 2731 4750 3128 4425 
Q 3525 4100 3525 3541 
Q 3525 3141 3298 2862 
Q 3072 2584 2669 2484 
Q 3125 2378 3379 2068 
Q 3634 1759 3634 1313 
Q 3634 634 3220 271 
Q 2806 -91 2034 -91 
Q 1263 -91 848 271 
Q 434 634 434 1313 
Q 434 1759 690 2068 
Q 947 2378 1403 2484 
z
M 1172 3481 
Q 1172 3119 1398 2916 
Q 1625 2713 2034 2713 
Q 2441 2713 2670 2916 
Q 2900 3119 2900 3481 
Q 2900 3844 2670 4047 
Q 2441 4250 2034 4250 
Q 1625 4250 1398 4047 
Q 1172 3844 1172 3481 
z
" transform="scale(0.015625)"/>
       </defs>
       <use xlink:href="#DejaVuSans-38"/>
       <use xlink:href="#DejaVuSans-30" x="63.623047"/>
       <use xlink:href="#DejaVuSans-30" x="127.246094"/>
      </g>
     </g>
    </g>
    <g id="text_19">
     <!-- RMSE -->
     <g transform="translate(56.585 240.755) rotate(-90) scale(0.16 -0.16)">
      <defs>
       <path id="DejaVuSans-52" d="M 2841 2188 
Q 3044 2119 3236 1894 
Q 3428 1669 3622 1275 
L 4263 0 
L 3584 0 
L 2988 1197 
Q 2756 1666 2539 1819 
Q 2322 1972 1947 1972 
L 1259 1972 
L 1259 0 
L 628 0 
L 628 4666 
L 2053 4666 
Q 2853 4666 3247 4331 
Q 3641 3997 3641 3322 
Q 3641 2881 3436 2590 
Q 3231 2300 2841 2188 
z
M 1259 4147 
L 1259 2491 
L 2053 2491 
Q 2509 2491 2742 2702 
Q 2975 2913 2975 3322 
Q 2975 3731 2742 3939 
Q 2509 4147 2053 4147 
L 1259 4147 
z
" transform="scale(0.015625)"/>
       <path id="DejaVuSans-4d" d="M 628 4666 
L 1569 4666 
L 2759 1491 
L 3956 4666 
L 4897 4666 
L 4897 0 
L 4281 0 
L 4281 4097 
L 3078 897 
L 2444 897 
L 1241 4097 
L 1241 0 
L 628 0 
L 628 4666 
z
" transform="scale(0.015625)"/>
       <path id="DejaVuSans-53" d="M 3425 4513 
L 3425 3897 
Q 3066 4069 2747 4153 
Q 2428 4238 2131 4238 
Q 1616 4238 1336 4038 
Q 1056 3838 1056 3469 
Q 1056 3159 1242 3001 
Q 1428 2844 1947 2747 
L 2328 2669 
Q 3034 2534 3370 2195 
Q 3706 1856 3706 1288 
Q 3706 609 3251 259 
Q 2797 -91 1919 -91 
Q 1588 -91 1214 -16 
Q 841 59 441 206 
L 441 856 
Q 825 641 1194 531 
Q 1563 422 1919 422 
Q 2459 422 2753 634 
Q 3047 847 3047 1241 
Q 3047 1584 2836 1778 
Q 2625 1972 2144 2069 
L 1759 2144 
Q 1053 2284 737 2584 
Q 422 2884 422 3419 
Q 422 4038 858 4394 
Q 1294 4750 2059 4750 
Q 2388 4750 2728 4690 
Q 3069 4631 3425 4513 
z
" transform="scale(0.015625)"/>
       <path id="DejaVuSans-45" d="M 628 4666 
L 3578 4666 
L 3578 4134 
L 1259 4134 
L 1259 2753 
L 3481 2753 
L 3481 2222 
L 1259 2222 
L 1259 531 
L 3634 531 
L 3634 0 
L 628 0 
L 628 4666 
z
" transform="scale(0.015625)"/>
      </defs>
      <use xlink:href="#DejaVuSans-52"/>
      <use xlink:href="#DejaVuSans-4d" x="69.482422"/>
      <use xlink:href="#DejaVuSans-53" x="155.761719"/>
      <use xlink:href="#DejaVuSans-45" x="219.238281"/>
     </g>
    </g>
   </g>
   <g id="line2d_18">
    <path d="M 90 295.716399 
L 92.205534 299.144826 
L 94.411067 299.184339 
L 96.616601 298.820373 
L 98.822134 300.671818 
L 101.027668 301.046492 
L 103.233202 300.831362 
L 105.438735 301.296131 
L 107.644269 301.166804 
L 109.849802 302.02569 
L 112.055336 300.908867 
L 114.26087 302.114628 
L 116.466403 302.716379 
L 118.671937 302.243014 
L 120.87747 302.720195 
L 125.288538 302.278457 
L 127.494071 301.805705 
L 129.699605 302.485083 
L 131.905138 302.993753 
L 134.110672 302.939853 
L 138.521739 301.474769 
L 140.727273 302.176518 
L 142.932806 301.144421 
L 145.13834 302.938671 
L 147.343874 302.468295 
L 149.549407 303.411666 
L 151.754941 303.477584 
L 153.960474 304.073582 
L 156.166008 303.801057 
L 158.371542 304.618554 
L 160.577075 304.230805 
L 167.193676 303.595708 
L 169.399209 302.307866 
L 171.604743 301.923208 
L 176.01581 302.644966 
L 178.221344 303.082885 
L 180.426877 302.358935 
L 182.632411 302.940817 
L 184.837945 302.841059 
L 187.043478 303.575201 
L 189.249012 303.144405 
L 191.454545 302.501831 
L 193.660079 303.511096 
L 195.865613 305.038003 
L 198.071146 305.58228 
L 200.27668 305.449941 
L 202.482213 303.568709 
L 204.687747 303.322901 
L 206.893281 304.388303 
L 209.098814 305.3061 
L 211.304348 306.692551 
L 213.509881 305.369841 
L 215.715415 307.295527 
L 217.920949 307.549045 
L 220.126482 308.377104 
L 222.332016 308.925383 
L 224.537549 309.317438 
L 226.743083 307.902321 
L 228.948617 307.854949 
L 231.15415 307.536001 
L 235.565217 309.027765 
L 237.770751 309.007173 
L 239.976285 308.439901 
L 242.181818 308.184394 
L 244.387352 309.022897 
L 246.592885 308.670773 
L 248.798419 309.673912 
L 251.003953 309.049914 
L 253.209486 309.903302 
L 255.41502 309.228898 
L 257.620553 309.475255 
L 259.826087 309.592082 
L 262.031621 310.028798 
L 264.237154 310.191509 
L 266.442688 309.887178 
L 268.648221 310.307175 
L 270.853755 309.426722 
L 273.059289 310.886668 
L 275.264822 310.603102 
L 277.470356 311.192023 
L 279.675889 310.071584 
L 281.881423 310.75195 
L 284.086957 309.822994 
L 286.29249 310.569932 
L 288.498024 310.474187 
L 290.703557 310.102929 
L 292.909091 310.93935 
L 295.114625 310.767519 
L 299.525692 311.349791 
L 303.936759 311.666628 
L 306.142292 311.329015 
L 308.347826 311.634197 
L 310.55336 311.320225 
L 312.758893 311.211824 
L 314.964427 311.676305 
L 317.16996 310.64918 
L 319.375494 311.580036 
L 323.786561 311.415182 
L 325.992095 310.582486 
L 328.197628 311.005511 
L 330.403162 311.614824 
L 337.019763 311.538323 
L 339.225296 311.667582 
L 341.43083 311.298579 
L 343.636364 311.999327 
L 345.841897 311.792681 
L 348.047431 311.916079 
L 352.458498 311.688547 
L 356.869565 312.140847 
L 359.075099 311.976035 
L 361.280632 312.114572 
L 367.897233 311.884503 
L 372.3083 310.491757 
L 374.513834 310.309033 
L 376.719368 310.826327 
L 378.924901 310.579885 
L 381.130435 310.747976 
L 383.335968 311.060803 
L 385.541502 310.522651 
L 389.952569 311.117267 
L 392.158103 310.165147 
L 394.363636 310.802526 
L 396.56917 309.381665 
L 398.774704 309.592264 
L 403.185771 310.581358 
L 405.391304 310.814964 
L 407.596838 311.191839 
L 412.007905 311.514361 
L 414.213439 310.75996 
L 416.418972 310.715234 
L 418.624506 310.30248 
L 420.83004 309.495607 
L 423.035573 309.995528 
L 425.241107 310.003714 
L 427.44664 310.294364 
L 429.652174 308.123458 
L 431.857708 309.563719 
L 434.063241 310.11124 
L 436.268775 310.125491 
L 438.474308 310.628521 
L 440.679842 310.432856 
L 442.885375 310.407081 
L 445.090909 310.226676 
L 447.296443 310.439326 
L 449.501976 309.344837 
L 451.70751 310.096179 
L 456.118577 309.434366 
L 458.324111 309.821927 
L 460.529644 309.533402 
L 462.735178 309.510658 
L 464.940711 308.999102 
L 467.146245 309.397571 
L 469.351779 308.875367 
L 471.557312 308.929068 
L 473.762846 308.271122 
L 475.968379 308.016127 
L 478.173913 306.808584 
L 482.58498 308.380338 
L 484.790514 309.756397 
L 486.996047 310.280037 
L 489.201581 310.241488 
L 491.407115 309.97056 
L 493.612648 310.12597 
L 495.818182 310.064031 
L 498.023715 309.043607 
L 500.229249 309.254818 
L 502.434783 309.684775 
L 506.84585 309.296077 
L 509.051383 308.603327 
L 511.256917 308.755749 
L 513.462451 307.945826 
L 515.667984 308.780541 
L 517.873518 308.24084 
L 522.284585 308.721355 
L 524.490119 308.453042 
L 526.695652 308.359783 
L 528.901186 307.979332 
L 531.106719 308.967614 
L 533.312253 308.019397 
L 535.517787 307.787464 
L 537.72332 307.4326 
L 539.928854 307.84298 
L 542.134387 307.486928 
L 544.339921 308.349133 
L 546.545455 308.07909 
L 548.750988 308.691004 
L 550.956522 307.701782 
L 553.162055 308.246266 
L 555.367589 307.546442 
L 557.573123 308.115824 
L 559.778656 307.73306 
L 564.189723 307.920067 
L 566.395257 307.60341 
L 568.600791 306.3793 
L 570.806324 306.805338 
L 573.011858 308.190916 
L 575.217391 308.088367 
L 577.422925 308.278186 
L 579.628458 308.284739 
L 581.833992 308.4698 
L 584.039526 308.240374 
L 586.245059 308.880108 
L 588.450593 309.141319 
L 590.656126 308.57027 
L 592.86166 309.276807 
L 595.067194 308.046399 
L 597.272727 308.412793 
L 599.478261 308.658025 
L 601.683794 309.064805 
L 603.889328 308.36179 
L 606.094862 309.456515 
L 610.505929 308.937945 
L 612.711462 308.065681 
L 614.916996 308.41636 
L 619.328063 308.430187 
L 621.533597 308.733078 
L 623.73913 308.291322 
L 625.944664 308.356092 
L 628.150198 308.706631 
L 630.355731 308.448923 
L 632.561265 307.534437 
L 634.766798 308.96158 
L 636.972332 308.110505 
L 639.177866 308.588891 
L 641.383399 308.008495 
L 643.588933 308.741904 
L 648 308.651054 
L 650.205534 309.8235 
L 650.205534 309.8235 
" clip-path="url(#p3a989bef67)" style="fill: none; stroke: #000000; stroke-width: 1.5; stroke-linecap: square"/>
   </g>
   <g id="line2d_19">
    <path d="M 90 364.628409 
L 92.205534 366.584558 
L 94.411067 365.545153 
L 96.616601 365.20231 
L 101.027668 366.069922 
L 103.233202 365.769155 
L 107.644269 365.743108 
L 109.849802 365.988519 
L 112.055336 365.883187 
L 118.671937 366.073375 
L 120.87747 366.352747 
L 123.083004 366.282292 
L 125.288538 365.857126 
L 127.494071 366.399999 
L 129.699605 366.015029 
L 131.905138 366.442822 
L 134.110672 366.579208 
L 136.316206 366.002399 
L 142.932806 365.626738 
L 145.13834 366.338141 
L 147.343874 366.166883 
L 149.549407 366.218847 
L 151.754941 366.605388 
L 153.960474 366.356932 
L 156.166008 366.6872 
L 158.371542 366.534765 
L 160.577075 366.510558 
L 164.988142 366.676701 
L 167.193676 366.619788 
L 169.399209 365.835507 
L 176.01581 366.356715 
L 178.221344 366.34034 
L 180.426877 366.193264 
L 184.837945 366.389144 
L 187.043478 366.605107 
L 189.249012 366.234874 
L 191.454545 366.14474 
L 193.660079 366.352499 
L 195.865613 366.725476 
L 198.071146 366.983549 
L 200.27668 367.118891 
L 202.482213 366.981129 
L 204.687747 366.472198 
L 206.893281 366.824037 
L 209.098814 366.761634 
L 211.304348 367.343191 
L 213.509881 367.26943 
L 215.715415 367.666983 
L 217.920949 367.345335 
L 220.126482 367.971689 
L 224.537549 368.081102 
L 226.743083 367.344968 
L 228.948617 367.813083 
L 231.15415 367.544637 
L 233.359684 367.791455 
L 237.770751 367.962603 
L 242.181818 367.72045 
L 244.387352 368.003614 
L 246.592885 367.918957 
L 248.798419 368.313005 
L 251.003953 367.841272 
L 253.209486 368.213867 
L 255.41502 367.922786 
L 257.620553 368.529085 
L 259.826087 368.370146 
L 262.031621 368.498818 
L 264.237154 367.91631 
L 266.442688 368.189344 
L 268.648221 368.311177 
L 270.853755 368.135732 
L 273.059289 369.082683 
L 275.264822 368.343246 
L 277.470356 369.010463 
L 279.675889 368.007424 
L 281.881423 368.386065 
L 284.086957 368.233927 
L 286.29249 368.515563 
L 290.703557 368.754821 
L 292.909091 368.553004 
L 295.114625 368.57742 
L 297.320158 368.788322 
L 299.525692 368.773508 
L 301.731225 368.959243 
L 303.936759 368.371823 
L 306.142292 368.991542 
L 310.55336 369.116591 
L 312.758893 368.785021 
L 314.964427 368.617595 
L 319.375494 368.828704 
L 328.197628 368.507872 
L 330.403162 368.464193 
L 332.608696 369.078832 
L 334.814229 368.881959 
L 337.019763 368.797057 
L 339.225296 369.36 
L 341.43083 368.969934 
L 343.636364 369.19453 
L 345.841897 368.53809 
L 348.047431 369.067374 
L 350.252964 369.052804 
L 352.458498 368.912541 
L 354.664032 368.905892 
L 356.869565 369.034136 
L 361.280632 369.012318 
L 363.486166 369.244143 
L 367.897233 368.585135 
L 370.102767 368.911828 
L 372.3083 368.286362 
L 376.719368 368.619884 
L 378.924901 368.622085 
L 381.130435 369.061479 
L 383.335968 368.660587 
L 385.541502 368.438205 
L 394.363636 368.449617 
L 396.56917 368.297149 
L 400.980237 368.504305 
L 403.185771 368.284061 
L 405.391304 368.51319 
L 407.596838 368.555042 
L 409.802372 368.398686 
L 412.007905 368.579183 
L 414.213439 368.48516 
L 416.418972 368.76683 
L 418.624506 368.252888 
L 420.83004 368.047141 
L 423.035573 368.522578 
L 427.44664 368.322531 
L 429.652174 367.921815 
L 431.857708 367.89792 
L 434.063241 368.477297 
L 438.474308 368.737358 
L 440.679842 368.528421 
L 442.885375 368.157006 
L 447.296443 368.563933 
L 449.501976 367.800061 
L 451.70751 368.521183 
L 453.913043 367.841497 
L 456.118577 367.789474 
L 458.324111 368.231092 
L 460.529644 368.420033 
L 462.735178 368.267811 
L 464.940711 367.754352 
L 467.146245 367.866643 
L 469.351779 367.685741 
L 471.557312 368.198137 
L 473.762846 367.95953 
L 475.968379 367.902792 
L 478.173913 367.5081 
L 480.379447 367.529749 
L 482.58498 367.759549 
L 484.790514 368.183884 
L 486.996047 368.09567 
L 489.201581 368.528273 
L 491.407115 368.08888 
L 493.612648 368.478762 
L 495.818182 368.543555 
L 498.023715 368.059561 
L 500.229249 367.900644 
L 504.640316 368.267829 
L 506.84585 368.059123 
L 509.051383 367.622748 
L 511.256917 367.946347 
L 513.462451 367.737841 
L 515.667984 368.084117 
L 520.079051 367.749616 
L 522.284585 367.941616 
L 524.490119 367.629889 
L 526.695652 367.71188 
L 528.901186 367.677321 
L 531.106719 368.014324 
L 539.928854 367.483301 
L 544.339921 367.721663 
L 548.750988 368.341034 
L 550.956522 367.596745 
L 553.162055 367.812259 
L 555.367589 367.716053 
L 557.573123 368.044931 
L 559.778656 367.533476 
L 561.98419 367.748421 
L 566.395257 367.48277 
L 568.600791 367.687555 
L 570.806324 367.445528 
L 575.217391 368.267428 
L 577.422925 368.063776 
L 586.245059 368.049871 
L 588.450593 368.163706 
L 590.656126 367.740945 
L 592.86166 368.045343 
L 595.067194 367.411282 
L 597.272727 367.928477 
L 599.478261 367.768995 
L 601.683794 367.983105 
L 603.889328 367.915203 
L 606.094862 368.235974 
L 614.916996 367.68498 
L 617.12253 368.085291 
L 619.328063 367.815311 
L 623.73913 367.787341 
L 625.944664 367.952986 
L 628.150198 367.987863 
L 630.355731 367.649685 
L 632.561265 367.625859 
L 634.766798 368.242363 
L 636.972332 367.829448 
L 641.383399 368.036707 
L 645.794466 367.722709 
L 648 368.005265 
L 650.205534 368.533696 
L 650.205534 368.533696 
" clip-path="url(#p3a989bef67)" style="fill: none; stroke-dasharray: 5.55,2.4; stroke-dashoffset: 0; stroke: #000000; stroke-width: 1.5"/>
   </g>
   <g id="line2d_20">
    <path d="M 90 66.96 
L 92.205534 78.545151 
L 94.411067 80.090437 
L 96.616601 81.242131 
L 98.822134 88.971546 
L 101.027668 89.972557 
L 103.233202 91.744996 
L 105.438735 91.546815 
L 107.644269 90.645806 
L 109.849802 94.814239 
L 112.055336 92.501405 
L 114.26087 95.019306 
L 116.466403 96.440291 
L 118.671937 93.443685 
L 120.87747 95.85185 
L 123.083004 94.88122 
L 125.288538 94.627545 
L 127.494071 94.642707 
L 131.905138 98.091089 
L 134.110672 96.975731 
L 136.316206 93.777088 
L 138.521739 92.867964 
L 140.727273 93.631576 
L 142.932806 92.800114 
L 145.13834 98.212248 
L 147.343874 94.921601 
L 151.754941 98.908221 
L 153.960474 99.30961 
L 156.166008 100.31965 
L 158.371542 103.004908 
L 160.577075 102.111371 
L 162.782609 99.015594 
L 164.988142 100.186756 
L 167.193676 99.877672 
L 169.399209 96.466923 
L 171.604743 92.303282 
L 173.810277 95.400742 
L 176.01581 93.229047 
L 178.221344 99.811013 
L 180.426877 94.84944 
L 182.632411 100.77011 
L 184.837945 97.199044 
L 187.043478 99.827399 
L 189.249012 94.201926 
L 191.454545 97.079546 
L 193.660079 100.330193 
L 195.865613 102.729769 
L 198.071146 103.794464 
L 200.27668 100.996849 
L 202.482213 96.061747 
L 204.687747 95.536284 
L 206.893281 99.34344 
L 209.098814 100.939748 
L 211.304348 107.35732 
L 213.509881 103.924885 
L 215.715415 109.014753 
L 217.920949 108.414712 
L 220.126482 106.691445 
L 222.332016 108.073409 
L 224.537549 112.019857 
L 226.743083 106.133441 
L 231.15415 106.538217 
L 233.359684 107.09214 
L 235.565217 108.73468 
L 237.770751 106.790764 
L 239.976285 109.193367 
L 242.181818 107.747585 
L 244.387352 109.354182 
L 246.592885 108.405341 
L 248.798419 111.883149 
L 251.003953 107.787156 
L 253.209486 111.860391 
L 255.41502 110.411488 
L 257.620553 108.718934 
L 262.031621 108.399279 
L 264.237154 111.594052 
L 266.442688 110.003169 
L 268.648221 107.420464 
L 270.853755 110.554387 
L 273.059289 111.058638 
L 275.264822 111.08981 
L 277.470356 111.669306 
L 279.675889 109.90127 
L 281.881423 111.809809 
L 284.086957 110.085793 
L 286.29249 108.982357 
L 288.498024 111.119117 
L 290.703557 110.184133 
L 292.909091 108.717322 
L 297.320158 112.259704 
L 299.525692 112.624471 
L 301.731225 108.269214 
L 303.936759 113.496673 
L 306.142292 113.070564 
L 308.347826 108.831226 
L 310.55336 110.902494 
L 312.758893 113.410322 
L 314.964427 111.004915 
L 317.16996 109.258062 
L 319.375494 113.559288 
L 323.786561 111.991585 
L 325.992095 114.19437 
L 328.197628 112.481553 
L 330.403162 112.864136 
L 332.608696 110.4009 
L 334.814229 110.37473 
L 337.019763 111.582714 
L 339.225296 115.14985 
L 341.43083 112.074473 
L 343.636364 113.520197 
L 345.841897 114.376946 
L 348.047431 111.540481 
L 350.252964 114.339766 
L 352.458498 112.915716 
L 354.664032 111.734409 
L 356.869565 111.156731 
L 359.075099 114.249228 
L 361.280632 112.484329 
L 363.486166 112.768723 
L 365.6917 115.076869 
L 367.897233 116.667489 
L 370.102767 111.296623 
L 372.3083 112.027483 
L 374.513834 113.298164 
L 376.719368 113.917011 
L 378.924901 111.230032 
L 381.130435 112.646378 
L 383.335968 113.464145 
L 385.541502 112.087501 
L 387.747036 111.251252 
L 389.952569 114.221972 
L 392.158103 110.378614 
L 394.363636 111.361849 
L 396.56917 108.609317 
L 398.774704 110.552062 
L 400.980237 111.495389 
L 403.185771 110.288397 
L 405.391304 111.9561 
L 407.596838 112.698955 
L 409.802372 109.998002 
L 412.007905 112.136448 
L 414.213439 112.510099 
L 416.418972 113.856377 
L 418.624506 112.084948 
L 420.83004 110.990226 
L 423.035573 110.617584 
L 425.241107 112.216019 
L 427.44664 112.888126 
L 429.652174 109.577213 
L 431.857708 111.068558 
L 434.063241 110.54416 
L 436.268775 112.284531 
L 438.474308 112.421438 
L 440.679842 114.830985 
L 442.885375 112.757727 
L 445.090909 113.339008 
L 447.296443 111.230051 
L 449.501976 109.630176 
L 451.70751 111.022433 
L 453.913043 112.921364 
L 456.118577 110.753858 
L 458.324111 111.905963 
L 460.529644 108.860225 
L 462.735178 112.337978 
L 464.940711 110.802199 
L 467.146245 109.099757 
L 469.351779 107.063934 
L 471.557312 107.851943 
L 473.762846 107.802494 
L 475.968379 106.456241 
L 478.173913 106.17571 
L 480.379447 108.351331 
L 482.58498 107.658352 
L 484.790514 109.187637 
L 486.996047 112.077873 
L 489.201581 111.035994 
L 491.407115 111.748824 
L 493.612648 112.650219 
L 495.818182 110.731859 
L 498.023715 110.830757 
L 500.229249 109.011028 
L 502.434783 112.971249 
L 504.640316 108.231353 
L 506.84585 108.064365 
L 509.051383 111.474871 
L 511.256917 108.149525 
L 513.462451 108.932542 
L 515.667984 110.996358 
L 517.873518 109.257914 
L 520.079051 110.253889 
L 522.284585 108.734081 
L 524.490119 111.096553 
L 526.695652 106.006787 
L 528.901186 107.447814 
L 531.106719 111.901795 
L 533.312253 108.396015 
L 535.517787 107.270454 
L 537.72332 104.053556 
L 539.928854 105.38545 
L 542.134387 105.060136 
L 544.339921 108.043447 
L 546.545455 107.446748 
L 548.750988 108.340788 
L 550.956522 106.796479 
L 553.162055 103.737761 
L 555.367589 105.760605 
L 557.573123 107.619365 
L 559.778656 107.39748 
L 561.98419 106.062509 
L 564.189723 107.193019 
L 566.395257 108.870545 
L 568.600791 105.366499 
L 570.806324 104.980858 
L 573.011858 108.087984 
L 575.217391 106.319862 
L 577.422925 106.372291 
L 579.628458 107.583863 
L 581.833992 107.958443 
L 584.039526 105.479579 
L 586.245059 108.661722 
L 588.450593 108.072201 
L 590.656126 107.238186 
L 592.86166 110.097128 
L 595.067194 109.343818 
L 597.272727 107.752747 
L 599.478261 110.136636 
L 601.683794 112.780448 
L 603.889328 110.35268 
L 606.094862 109.160762 
L 608.300395 110.054985 
L 610.505929 107.020423 
L 612.711462 110.102208 
L 614.916996 107.869241 
L 617.12253 110.101277 
L 619.328063 106.799113 
L 621.533597 109.037021 
L 623.73913 108.490137 
L 625.944664 109.906827 
L 628.150198 108.284494 
L 630.355731 107.979775 
L 632.561265 107.154564 
L 634.766798 109.456479 
L 636.972332 106.248981 
L 639.177866 109.398347 
L 641.383399 106.949373 
L 643.588933 110.943776 
L 645.794466 106.512363 
L 648 108.545504 
L 650.205534 112.511236 
L 650.205534 112.511236 
" clip-path="url(#p3a989bef67)" style="fill: none; stroke-dasharray: 5.55,2.4; stroke-dashoffset: 0; stroke: #000000; stroke-width: 1.5"/>
   </g>
   <g id="patch_3">
    <path d="M 90 384.48 
L 90 51.84 
" style="fill: none; stroke: #000000; stroke-width: 0.8; stroke-linejoin: miter; stroke-linecap: square"/>
   </g>
   <g id="patch_4">
    <path d="M 648 384.48 
L 648 51.84 
" style="fill: none; stroke: #000000; stroke-width: 0.8; stroke-linejoin: miter; stroke-linecap: square"/>
   </g>
   <g id="patch_5">
    <path d="M 90 384.48 
L 648 384.48 
" style="fill: none; stroke: #000000; stroke-width: 0.8; stroke-linejoin: miter; stroke-linecap: square"/>
   </g>
   <g id="patch_6">
    <path d="M 90 51.84 
L 648 51.84 
" style="fill: none; stroke: #000000; stroke-width: 0.8; stroke-linejoin: miter; stroke-linecap: square"/>
   </g>
   <g id="text_20">
    <!-- Root mean squared error of T2* and S0 fit across voxels -->
    <g transform="translate(89.2125 45.84) scale(0.2 -0.2)">
     <defs>
      <path id="DejaVuSans-6f" d="M 1959 3097 
Q 1497 3097 1228 2736 
Q 959 2375 959 1747 
Q 959 1119 1226 758 
Q 1494 397 1959 397 
Q 2419 397 2687 759 
Q 2956 1122 2956 1747 
Q 2956 2369 2687 2733 
Q 2419 3097 1959 3097 
z
M 1959 3584 
Q 2709 3584 3137 3096 
Q 3566 2609 3566 1747 
Q 3566 888 3137 398 
Q 2709 -91 1959 -91 
Q 1206 -91 779 398 
Q 353 888 353 1747 
Q 353 2609 779 3096 
Q 1206 3584 1959 3584 
z
" transform="scale(0.015625)"/>
      <path id="DejaVuSans-74" d="M 1172 4494 
L 1172 3500 
L 2356 3500 
L 2356 3053 
L 1172 3053 
L 1172 1153 
Q 1172 725 1289 603 
Q 1406 481 1766 481 
L 2356 481 
L 2356 0 
L 1766 0 
Q 1100 0 847 248 
Q 594 497 594 1153 
L 594 3053 
L 172 3053 
L 172 3500 
L 594 3500 
L 594 4494 
L 1172 4494 
z
" transform="scale(0.015625)"/>
      <path id="DejaVuSans-61" d="M 2194 1759 
Q 1497 1759 1228 1600 
Q 959 1441 959 1056 
Q 959 750 1161 570 
Q 1363 391 1709 391 
Q 2188 391 2477 730 
Q 2766 1069 2766 1631 
L 2766 1759 
L 2194 1759 
z
M 3341 1997 
L 3341 0 
L 2766 0 
L 2766 531 
Q 2569 213 2275 61 
Q 1981 -91 1556 -91 
Q 1019 -91 701 211 
Q 384 513 384 1019 
Q 384 1609 779 1909 
Q 1175 2209 1959 2209 
L 2766 2209 
L 2766 2266 
Q 2766 2663 2505 2880 
Q 2244 3097 1772 3097 
Q 1472 3097 1187 3025 
Q 903 2953 641 2809 
L 641 3341 
Q 956 3463 1253 3523 
Q 1550 3584 1831 3584 
Q 2591 3584 2966 3190 
Q 3341 2797 3341 1997 
z
" transform="scale(0.015625)"/>
      <path id="DejaVuSans-6e" d="M 3513 2113 
L 3513 0 
L 2938 0 
L 2938 2094 
Q 2938 2591 2744 2837 
Q 2550 3084 2163 3084 
Q 1697 3084 1428 2787 
Q 1159 2491 1159 1978 
L 1159 0 
L 581 0 
L 581 3500 
L 1159 3500 
L 1159 2956 
Q 1366 3272 1645 3428 
Q 1925 3584 2291 3584 
Q 2894 3584 3203 3211 
Q 3513 2838 3513 2113 
z
" transform="scale(0.015625)"/>
      <path id="DejaVuSans-71" d="M 947 1747 
Q 947 1113 1208 752 
Q 1469 391 1925 391 
Q 2381 391 2643 752 
Q 2906 1113 2906 1747 
Q 2906 2381 2643 2742 
Q 2381 3103 1925 3103 
Q 1469 3103 1208 2742 
Q 947 2381 947 1747 
z
M 2906 525 
Q 2725 213 2448 61 
Q 2172 -91 1784 -91 
Q 1150 -91 751 415 
Q 353 922 353 1747 
Q 353 2572 751 3078 
Q 1150 3584 1784 3584 
Q 2172 3584 2448 3432 
Q 2725 3281 2906 2969 
L 2906 3500 
L 3481 3500 
L 3481 -1331 
L 2906 -1331 
L 2906 525 
z
" transform="scale(0.015625)"/>
      <path id="DejaVuSans-75" d="M 544 1381 
L 544 3500 
L 1119 3500 
L 1119 1403 
Q 1119 906 1312 657 
Q 1506 409 1894 409 
Q 2359 409 2629 706 
Q 2900 1003 2900 1516 
L 2900 3500 
L 3475 3500 
L 3475 0 
L 2900 0 
L 2900 538 
Q 2691 219 2414 64 
Q 2138 -91 1772 -91 
Q 1169 -91 856 284 
Q 544 659 544 1381 
z
M 1991 3584 
L 1991 3584 
z
" transform="scale(0.015625)"/>
      <path id="DejaVuSans-72" d="M 2631 2963 
Q 2534 3019 2420 3045 
Q 2306 3072 2169 3072 
Q 1681 3072 1420 2755 
Q 1159 2438 1159 1844 
L 1159 0 
L 581 0 
L 581 3500 
L 1159 3500 
L 1159 2956 
Q 1341 3275 1631 3429 
Q 1922 3584 2338 3584 
Q 2397 3584 2469 3576 
Q 2541 3569 2628 3553 
L 2631 2963 
z
" transform="scale(0.015625)"/>
      <path id="DejaVuSans-64" d="M 2906 2969 
L 2906 4863 
L 3481 4863 
L 3481 0 
L 2906 0 
L 2906 525 
Q 2725 213 2448 61 
Q 2172 -91 1784 -91 
Q 1150 -91 751 415 
Q 353 922 353 1747 
Q 353 2572 751 3078 
Q 1150 3584 1784 3584 
Q 2172 3584 2448 3432 
Q 2725 3281 2906 2969 
z
M 947 1747 
Q 947 1113 1208 752 
Q 1469 391 1925 391 
Q 2381 391 2643 752 
Q 2906 1113 2906 1747 
Q 2906 2381 2643 2742 
Q 2381 3103 1925 3103 
Q 1469 3103 1208 2742 
Q 947 2381 947 1747 
z
" transform="scale(0.015625)"/>
      <path id="DejaVuSans-66" d="M 2375 4863 
L 2375 4384 
L 1825 4384 
Q 1516 4384 1395 4259 
Q 1275 4134 1275 3809 
L 1275 3500 
L 2222 3500 
L 2222 3053 
L 1275 3053 
L 1275 0 
L 697 0 
L 697 3053 
L 147 3053 
L 147 3500 
L 697 3500 
L 697 3744 
Q 697 4328 969 4595 
Q 1241 4863 1831 4863 
L 2375 4863 
z
" transform="scale(0.015625)"/>
      <path id="DejaVuSans-2a" d="M 3009 3897 
L 1888 3291 
L 3009 2681 
L 2828 2375 
L 1778 3009 
L 1778 1831 
L 1422 1831 
L 1422 3009 
L 372 2375 
L 191 2681 
L 1313 3291 
L 191 3897 
L 372 4206 
L 1422 3572 
L 1422 4750 
L 1778 4750 
L 1778 3572 
L 2828 4206 
L 3009 3897 
z
" transform="scale(0.015625)"/>
      <path id="DejaVuSans-63" d="M 3122 3366 
L 3122 2828 
Q 2878 2963 2633 3030 
Q 2388 3097 2138 3097 
Q 1578 3097 1268 2742 
Q 959 2388 959 1747 
Q 959 1106 1268 751 
Q 1578 397 2138 397 
Q 2388 397 2633 464 
Q 2878 531 3122 666 
L 3122 134 
Q 2881 22 2623 -34 
Q 2366 -91 2075 -91 
Q 1284 -91 818 406 
Q 353 903 353 1747 
Q 353 2603 823 3093 
Q 1294 3584 2113 3584 
Q 2378 3584 2631 3529 
Q 2884 3475 3122 3366 
z
" transform="scale(0.015625)"/>
      <path id="DejaVuSans-76" d="M 191 3500 
L 800 3500 
L 1894 563 
L 2988 3500 
L 3597 3500 
L 2284 0 
L 1503 0 
L 191 3500 
z
" transform="scale(0.015625)"/>
      <path id="DejaVuSans-78" d="M 3513 3500 
L 2247 1797 
L 3578 0 
L 2900 0 
L 1881 1375 
L 863 0 
L 184 0 
L 1544 1831 
L 300 3500 
L 978 3500 
L 1906 2253 
L 2834 3500 
L 3513 3500 
z
" transform="scale(0.015625)"/>
      <path id="DejaVuSans-6c" d="M 603 4863 
L 1178 4863 
L 1178 0 
L 603 0 
L 603 4863 
z
" transform="scale(0.015625)"/>
     </defs>
     <use xlink:href="#DejaVuSans-52"/>
     <use xlink:href="#DejaVuSans-6f" x="64.982422"/>
     <use xlink:href="#DejaVuSans-6f" x="126.164062"/>
     <use xlink:href="#DejaVuSans-74" x="187.345703"/>
     <use xlink:href="#DejaVuSans-20" x="226.554688"/>
     <use xlink:href="#DejaVuSans-6d" x="258.341797"/>
     <use xlink:href="#DejaVuSans-65" x="355.753906"/>
     <use xlink:href="#DejaVuSans-61" x="417.277344"/>
     <use xlink:href="#DejaVuSans-6e" x="478.556641"/>
     <use xlink:href="#DejaVuSans-20" x="541.935547"/>
     <use xlink:href="#DejaVuSans-73" x="573.722656"/>
     <use xlink:href="#DejaVuSans-71" x="625.822266"/>
     <use xlink:href="#DejaVuSans-75" x="689.298828"/>
     <use xlink:href="#DejaVuSans-61" x="752.677734"/>
     <use xlink:href="#DejaVuSans-72" x="813.957031"/>
     <use xlink:href="#DejaVuSans-65" x="852.820312"/>
     <use xlink:href="#DejaVuSans-64" x="914.34375"/>
     <use xlink:href="#DejaVuSans-20" x="977.820312"/>
     <use xlink:href="#DejaVuSans-65" x="1009.607422"/>
     <use xlink:href="#DejaVuSans-72" x="1071.130859"/>
     <use xlink:href="#DejaVuSans-72" x="1110.494141"/>
     <use xlink:href="#DejaVuSans-6f" x="1149.357422"/>
     <use xlink:href="#DejaVuSans-72" x="1210.539062"/>
     <use xlink:href="#DejaVuSans-20" x="1251.652344"/>
     <use xlink:href="#DejaVuSans-6f" x="1283.439453"/>
     <use xlink:href="#DejaVuSans-66" x="1344.621094"/>
     <use xlink:href="#DejaVuSans-20" x="1379.826172"/>
     <use xlink:href="#DejaVuSans-54" x="1411.613281"/>
     <use xlink:href="#DejaVuSans-32" x="1472.697266"/>
     <use xlink:href="#DejaVuSans-2a" x="1536.320312"/>
     <use xlink:href="#DejaVuSans-20" x="1586.320312"/>
     <use xlink:href="#DejaVuSans-61" x="1618.107422"/>
     <use xlink:href="#DejaVuSans-6e" x="1679.386719"/>
     <use xlink:href="#DejaVuSans-64" x="1742.765625"/>
     <use xlink:href="#DejaVuSans-20" x="1806.242188"/>
     <use xlink:href="#DejaVuSans-53" x="1838.029297"/>
     <use xlink:href="#DejaVuSans-30" x="1901.505859"/>
     <use xlink:href="#DejaVuSans-20" x="1965.128906"/>
     <use xlink:href="#DejaVuSans-66" x="1996.916016"/>
     <use xlink:href="#DejaVuSans-69" x="2032.121094"/>
     <use xlink:href="#DejaVuSans-74" x="2059.904297"/>
     <use xlink:href="#DejaVuSans-20" x="2099.113281"/>
     <use xlink:href="#DejaVuSans-61" x="2130.900391"/>
     <use xlink:href="#DejaVuSans-63" x="2192.179688"/>
     <use xlink:href="#DejaVuSans-72" x="2247.160156"/>
     <use xlink:href="#DejaVuSans-6f" x="2286.023438"/>
     <use xlink:href="#DejaVuSans-73" x="2347.205078"/>
     <use xlink:href="#DejaVuSans-73" x="2399.304688"/>
     <use xlink:href="#DejaVuSans-20" x="2451.404297"/>
     <use xlink:href="#DejaVuSans-76" x="2483.191406"/>
     <use xlink:href="#DejaVuSans-6f" x="2542.371094"/>
     <use xlink:href="#DejaVuSans-78" x="2600.427734"/>
     <use xlink:href="#DejaVuSans-65" x="2656.482422"/>
     <use xlink:href="#DejaVuSans-6c" x="2718.005859"/>
     <use xlink:href="#DejaVuSans-73" x="2745.789062"/>
    </g>
   </g>
   <g id="legend_1">
    <g id="patch_7">
     <path d="M 483.404688 241.677188 
L 641 241.677188 
Q 643 241.677188 643 239.677188 
L 643 196.642812 
Q 643 194.642812 641 194.642812 
L 483.404688 194.642812 
Q 481.404688 194.642812 481.404688 196.642812 
L 481.404688 239.677188 
Q 481.404688 241.677188 483.404688 241.677188 
z
" style="fill: #ffffff; opacity: 0.8; stroke: #cccccc; stroke-linejoin: miter"/>
    </g>
    <g id="line2d_21">
     <path d="M 485.404688 202.74125 
L 495.404688 202.74125 
L 505.404688 202.74125 
" style="fill: none; stroke: #000000; stroke-width: 1.5; stroke-linecap: square"/>
    </g>
    <g id="text_21">
     <!-- Median -->
     <g transform="translate(513.404688 206.24125) scale(0.1 -0.1)">
      <use xlink:href="#DejaVuSans-4d"/>
      <use xlink:href="#DejaVuSans-65" x="86.279297"/>
      <use xlink:href="#DejaVuSans-64" x="147.802734"/>
      <use xlink:href="#DejaVuSans-69" x="211.279297"/>
      <use xlink:href="#DejaVuSans-61" x="239.0625"/>
      <use xlink:href="#DejaVuSans-6e" x="300.341797"/>
     </g>
    </g>
    <g id="patch_8">
     <path d="M 485.404688 220.919375 
L 505.404688 220.919375 
L 505.404688 213.919375 
L 485.404688 213.919375 
z
" style="fill: #0000ff; fill-opacity: 0.2; stroke: #0000ff; stroke-opacity: 0.2; stroke-linejoin: miter"/>
    </g>
    <g id="text_22">
     <!-- 25th-75th percentiles -->
     <g transform="translate(513.404688 220.919375) scale(0.1 -0.1)">
      <defs>
       <path id="DejaVuSans-68" d="M 3513 2113 
L 3513 0 
L 2938 0 
L 2938 2094 
Q 2938 2591 2744 2837 
Q 2550 3084 2163 3084 
Q 1697 3084 1428 2787 
Q 1159 2491 1159 1978 
L 1159 0 
L 581 0 
L 581 4863 
L 1159 4863 
L 1159 2956 
Q 1366 3272 1645 3428 
Q 1925 3584 2291 3584 
Q 2894 3584 3203 3211 
Q 3513 2838 3513 2113 
z
" transform="scale(0.015625)"/>
       <path id="DejaVuSans-2d" d="M 313 2009 
L 1997 2009 
L 1997 1497 
L 313 1497 
L 313 2009 
z
" transform="scale(0.015625)"/>
       <path id="DejaVuSans-70" d="M 1159 525 
L 1159 -1331 
L 581 -1331 
L 581 3500 
L 1159 3500 
L 1159 2969 
Q 1341 3281 1617 3432 
Q 1894 3584 2278 3584 
Q 2916 3584 3314 3078 
Q 3713 2572 3713 1747 
Q 3713 922 3314 415 
Q 2916 -91 2278 -91 
Q 1894 -91 1617 61 
Q 1341 213 1159 525 
z
M 3116 1747 
Q 3116 2381 2855 2742 
Q 2594 3103 2138 3103 
Q 1681 3103 1420 2742 
Q 1159 2381 1159 1747 
Q 1159 1113 1420 752 
Q 1681 391 2138 391 
Q 2594 391 2855 752 
Q 3116 1113 3116 1747 
z
" transform="scale(0.015625)"/>
      </defs>
      <use xlink:href="#DejaVuSans-32"/>
      <use xlink:href="#DejaVuSans-35" x="63.623047"/>
      <use xlink:href="#DejaVuSans-74" x="127.246094"/>
      <use xlink:href="#DejaVuSans-68" x="166.455078"/>
      <use xlink:href="#DejaVuSans-2d" x="229.833984"/>
      <use xlink:href="#DejaVuSans-37" x="265.917969"/>
      <use xlink:href="#DejaVuSans-35" x="329.541016"/>
      <use xlink:href="#DejaVuSans-74" x="393.164062"/>
      <use xlink:href="#DejaVuSans-68" x="432.373047"/>
      <use xlink:href="#DejaVuSans-20" x="495.751953"/>
      <use xlink:href="#DejaVuSans-70" x="527.539062"/>
      <use xlink:href="#DejaVuSans-65" x="591.015625"/>
      <use xlink:href="#DejaVuSans-72" x="652.539062"/>
      <use xlink:href="#DejaVuSans-63" x="691.402344"/>
      <use xlink:href="#DejaVuSans-65" x="746.382812"/>
      <use xlink:href="#DejaVuSans-6e" x="807.90625"/>
      <use xlink:href="#DejaVuSans-74" x="871.285156"/>
      <use xlink:href="#DejaVuSans-69" x="910.494141"/>
      <use xlink:href="#DejaVuSans-6c" x="938.277344"/>
      <use xlink:href="#DejaVuSans-65" x="966.060547"/>
      <use xlink:href="#DejaVuSans-73" x="1027.583984"/>
     </g>
    </g>
    <g id="line2d_22">
     <path d="M 485.404688 232.0975 
L 495.404688 232.0975 
L 505.404688 232.0975 
" style="fill: none; stroke-dasharray: 5.55,2.4; stroke-dashoffset: 0; stroke: #000000; stroke-width: 1.5"/>
    </g>
    <g id="text_23">
     <!-- 2nd and 98th percentiles -->
     <g transform="translate(513.404688 235.5975) scale(0.1 -0.1)">
      <defs>
       <path id="DejaVuSans-39" d="M 703 97 
L 703 672 
Q 941 559 1184 500 
Q 1428 441 1663 441 
Q 2288 441 2617 861 
Q 2947 1281 2994 2138 
Q 2813 1869 2534 1725 
Q 2256 1581 1919 1581 
Q 1219 1581 811 2004 
Q 403 2428 403 3163 
Q 403 3881 828 4315 
Q 1253 4750 1959 4750 
Q 2769 4750 3195 4129 
Q 3622 3509 3622 2328 
Q 3622 1225 3098 567 
Q 2575 -91 1691 -91 
Q 1453 -91 1209 -44 
Q 966 3 703 97 
z
M 1959 2075 
Q 2384 2075 2632 2365 
Q 2881 2656 2881 3163 
Q 2881 3666 2632 3958 
Q 2384 4250 1959 4250 
Q 1534 4250 1286 3958 
Q 1038 3666 1038 3163 
Q 1038 2656 1286 2365 
Q 1534 2075 1959 2075 
z
" transform="scale(0.015625)"/>
      </defs>
      <use xlink:href="#DejaVuSans-32"/>
      <use xlink:href="#DejaVuSans-6e" x="63.623047"/>
      <use xlink:href="#DejaVuSans-64" x="127.001953"/>
      <use xlink:href="#DejaVuSans-20" x="190.478516"/>
      <use xlink:href="#DejaVuSans-61" x="222.265625"/>
      <use xlink:href="#DejaVuSans-6e" x="283.544922"/>
      <use xlink:href="#DejaVuSans-64" x="346.923828"/>
      <use xlink:href="#DejaVuSans-20" x="410.400391"/>
      <use xlink:href="#DejaVuSans-39" x="442.1875"/>
      <use xlink:href="#DejaVuSans-38" x="505.810547"/>
      <use xlink:href="#DejaVuSans-74" x="569.433594"/>
      <use xlink:href="#DejaVuSans-68" x="608.642578"/>
      <use xlink:href="#DejaVuSans-20" x="672.021484"/>
      <use xlink:href="#DejaVuSans-70" x="703.808594"/>
      <use xlink:href="#DejaVuSans-65" x="767.285156"/>
      <use xlink:href="#DejaVuSans-72" x="828.808594"/>
      <use xlink:href="#DejaVuSans-63" x="867.671875"/>
      <use xlink:href="#DejaVuSans-65" x="922.652344"/>
      <use xlink:href="#DejaVuSans-6e" x="984.175781"/>
      <use xlink:href="#DejaVuSans-74" x="1047.554688"/>
      <use xlink:href="#DejaVuSans-69" x="1086.763672"/>
      <use xlink:href="#DejaVuSans-6c" x="1114.546875"/>
      <use xlink:href="#DejaVuSans-65" x="1142.330078"/>
      <use xlink:href="#DejaVuSans-73" x="1203.853516"/>
     </g>
    </g>
   </g>
  </g>
 </g>
 <defs>
  <clipPath id="p3a989bef67">
   <rect x="90" y="51.84" width="558" height="332.64"/>
  </clipPath>
 </defs>
</svg>
