<?xml version="1.0" encoding="utf-8" standalone="no"?>
<!DOCTYPE svg PUBLIC "-//W3C//DTD SVG 1.1//EN"
  "http://www.w3.org/Graphics/SVG/1.1/DTD/svg11.dtd">
<svg xmlns:xlink="http://www.w3.org/1999/xlink" width="720pt" height="432pt" viewBox="0 0 720 432" xmlns="http://www.w3.org/2000/svg" version="1.1">
 <metadata>
  <rdf:RDF xmlns:dc="http://purl.org/dc/elements/1.1/" xmlns:cc="http://creativecommons.org/ns#" xmlns:rdf="http://www.w3.org/1999/02/22-rdf-syntax-ns#">
   <cc:Work>
    <dc:type rdf:resource="http://purl.org/dc/dcmitype/StillImage"/>
    <dc:date>2024-05-26T10:28:15.108263</dc:date>
    <dc:format>image/svg+xml</dc:format>
    <dc:creator>
     <cc:Agent>
      <dc:title>Matplotlib v3.8.4, https://matplotlib.org/</dc:title>
     </cc:Agent>
    </dc:creator>
   </cc:Work>
  </rdf:RDF>
 </metadata>
 <defs>
  <style type="text/css">*{stroke-linejoin: round; stroke-linecap: butt}</style>
 </defs>
 <g id="figure_1">
  <g id="patch_1">
   <path d="M 0 432 
L 720 432 
L 720 0 
L 0 0 
z
" style="fill: #ffffff"/>
  </g>
  <g id="axes_1">
   <g id="patch_2">
    <path d="M 63.92 364.408 
L 709.2 364.408 
L 709.2 32.64 
L 63.92 32.64 
z
" style="fill: #ffffff"/>
   </g>
   <g id="patch_3">
    <path d="M 75.489196 364.408 
L 81.824526 364.408 
L 81.824526 354.900342 
L 75.489196 354.900342 
z
" clip-path="url(#p670859e635)" style="fill: #1f77b4"/>
   </g>
   <g id="patch_4">
    <path d="M 81.824526 364.408 
L 88.159855 364.408 
L 88.159855 336.328388 
L 81.824526 336.328388 
z
" clip-path="url(#p670859e635)" style="fill: #1f77b4"/>
   </g>
   <g id="patch_5">
    <path d="M 88.159855 364.408 
L 94.495184 364.408 
L 94.495184 333.816002 
L 88.159855 333.816002 
z
" clip-path="url(#p670859e635)" style="fill: #1f77b4"/>
   </g>
   <g id="patch_6">
    <path d="M 94.495184 364.408 
L 100.830513 364.408 
L 100.830513 332.19034 
L 94.495184 332.19034 
z
" clip-path="url(#p670859e635)" style="fill: #1f77b4"/>
   </g>
   <g id="patch_7">
    <path d="M 100.830513 364.408 
L 107.165842 364.408 
L 107.165842 330.909516 
L 100.830513 330.909516 
z
" clip-path="url(#p670859e635)" style="fill: #1f77b4"/>
   </g>
   <g id="patch_8">
    <path d="M 107.165842 364.408 
L 113.501171 364.408 
L 113.501171 325.096544 
L 107.165842 325.096544 
z
" clip-path="url(#p670859e635)" style="fill: #1f77b4"/>
   </g>
   <g id="patch_9">
    <path d="M 113.501171 364.408 
L 119.836505 364.408 
L 119.836505 317.805697 
L 113.501171 317.805697 
z
" clip-path="url(#p670859e635)" style="fill: #1f77b4"/>
   </g>
   <g id="patch_10">
    <path d="M 119.836505 364.408 
L 126.171834 364.408 
L 126.171834 308.987714 
L 119.836505 308.987714 
z
" clip-path="url(#p670859e635)" style="fill: #1f77b4"/>
   </g>
   <g id="patch_11">
    <path d="M 126.171834 364.408 
L 132.507163 364.408 
L 132.507163 295.78537 
L 126.171834 295.78537 
z
" clip-path="url(#p670859e635)" style="fill: #1f77b4"/>
   </g>
   <g id="patch_12">
    <path d="M 132.507163 364.408 
L 138.842492 364.408 
L 138.842492 286.671812 
L 132.507163 286.671812 
z
" clip-path="url(#p670859e635)" style="fill: #1f77b4"/>
   </g>
   <g id="patch_13">
    <path d="M 138.842492 364.408 
L 145.177821 364.408 
L 145.177821 274.553243 
L 138.842492 274.553243 
z
" clip-path="url(#p670859e635)" style="fill: #1f77b4"/>
   </g>
   <g id="patch_14">
    <path d="M 145.177821 364.408 
L 151.51315 364.408 
L 151.51315 257.409901 
L 145.177821 257.409901 
z
" clip-path="url(#p670859e635)" style="fill: #1f77b4"/>
   </g>
   <g id="patch_15">
    <path d="M 151.51315 364.408 
L 157.848479 364.408 
L 157.848479 235.783674 
L 151.51315 235.783674 
z
" clip-path="url(#p670859e635)" style="fill: #1f77b4"/>
   </g>
   <g id="patch_16">
    <path d="M 157.848479 364.408 
L 164.183808 364.408 
L 164.183808 183.762499 
L 157.848479 183.762499 
z
" clip-path="url(#p670859e635)" style="fill: #1f77b4"/>
   </g>
   <g id="patch_17">
    <path d="M 164.183808 364.408 
L 170.519137 364.408 
L 170.519137 122.874078 
L 164.183808 122.874078 
z
" clip-path="url(#p670859e635)" style="fill: #1f77b4"/>
   </g>
   <g id="patch_18">
    <path d="M 170.519137 364.408 
L 176.854466 364.408 
L 176.854466 68.882404 
L 170.519137 68.882404 
z
" clip-path="url(#p670859e635)" style="fill: #1f77b4"/>
   </g>
   <g id="patch_19">
    <path d="M 176.854466 364.408 
L 183.189796 364.408 
L 183.189796 48.438476 
L 176.854466 48.438476 
z
" clip-path="url(#p670859e635)" style="fill: #1f77b4"/>
   </g>
   <g id="patch_20">
    <path d="M 183.189796 364.408 
L 189.525125 364.408 
L 189.525125 64.744356 
L 183.189796 64.744356 
z
" clip-path="url(#p670859e635)" style="fill: #1f77b4"/>
   </g>
   <g id="patch_21">
    <path d="M 189.525125 364.408 
L 195.860454 364.408 
L 195.860454 108.883535 
L 189.525125 108.883535 
z
" clip-path="url(#p670859e635)" style="fill: #1f77b4"/>
   </g>
   <g id="patch_22">
    <path d="M 195.860454 364.408 
L 202.195791 364.408 
L 202.195791 160.51061 
L 195.860454 160.51061 
z
" clip-path="url(#p670859e635)" style="fill: #1f77b4"/>
   </g>
   <g id="patch_23">
    <path d="M 202.195791 364.408 
L 208.53112 364.408 
L 208.53112 206.915863 
L 202.195791 206.915863 
z
" clip-path="url(#p670859e635)" style="fill: #1f77b4"/>
   </g>
   <g id="patch_24">
    <path d="M 208.53112 364.408 
L 214.866449 364.408 
L 214.866449 249.03528 
L 208.53112 249.03528 
z
" clip-path="url(#p670859e635)" style="fill: #1f77b4"/>
   </g>
   <g id="patch_25">
    <path d="M 214.866449 364.408 
L 221.201779 364.408 
L 221.201779 279.627278 
L 214.866449 279.627278 
z
" clip-path="url(#p670859e635)" style="fill: #1f77b4"/>
   </g>
   <g id="patch_26">
    <path d="M 221.201779 364.408 
L 227.537108 364.408 
L 227.537108 301.401293 
L 221.201779 301.401293 
z
" clip-path="url(#p670859e635)" style="fill: #1f77b4"/>
   </g>
   <g id="patch_27">
    <path d="M 227.537108 364.408 
L 233.872437 364.408 
L 233.872437 317.165285 
L 227.537108 317.165285 
z
" clip-path="url(#p670859e635)" style="fill: #1f77b4"/>
   </g>
   <g id="patch_28">
    <path d="M 233.872437 364.408 
L 240.207766 364.408 
L 240.207766 324.998019 
L 233.872437 324.998019 
z
" clip-path="url(#p670859e635)" style="fill: #1f77b4"/>
   </g>
   <g id="patch_29">
    <path d="M 240.207766 364.408 
L 246.543095 364.408 
L 246.543095 332.830753 
L 240.207766 332.830753 
z
" clip-path="url(#p670859e635)" style="fill: #1f77b4"/>
   </g>
   <g id="patch_30">
    <path d="M 246.543095 364.408 
L 252.878424 364.408 
L 252.878424 337.609213 
L 246.543095 337.609213 
z
" clip-path="url(#p670859e635)" style="fill: #1f77b4"/>
   </g>
   <g id="patch_31">
    <path d="M 252.878424 364.408 
L 259.213753 364.408 
L 259.213753 342.190623 
L 252.878424 342.190623 
z
" clip-path="url(#p670859e635)" style="fill: #1f77b4"/>
   </g>
   <g id="patch_32">
    <path d="M 259.213753 364.408 
L 265.549082 364.408 
L 265.549082 342.683248 
L 259.213753 342.683248 
z
" clip-path="url(#p670859e635)" style="fill: #1f77b4"/>
   </g>
   <g id="patch_33">
    <path d="M 265.549082 364.408 
L 271.884411 364.408 
L 271.884411 345.343422 
L 265.549082 345.343422 
z
" clip-path="url(#p670859e635)" style="fill: #1f77b4"/>
   </g>
   <g id="patch_34">
    <path d="M 271.884411 364.408 
L 278.219741 364.408 
L 278.219741 345.491209 
L 271.884411 345.491209 
z
" clip-path="url(#p670859e635)" style="fill: #1f77b4"/>
   </g>
   <g id="patch_35">
    <path d="M 278.219741 364.408 
L 284.55507 364.408 
L 284.55507 350.121882 
L 278.219741 350.121882 
z
" clip-path="url(#p670859e635)" style="fill: #1f77b4"/>
   </g>
   <g id="patch_36">
    <path d="M 284.55507 364.408 
L 290.890399 364.408 
L 290.890399 350.318932 
L 284.55507 350.318932 
z
" clip-path="url(#p670859e635)" style="fill: #1f77b4"/>
   </g>
   <g id="patch_37">
    <path d="M 290.890399 364.408 
L 297.225728 364.408 
L 297.225728 353.520993 
L 290.890399 353.520993 
z
" clip-path="url(#p670859e635)" style="fill: #1f77b4"/>
   </g>
   <g id="patch_38">
    <path d="M 297.225728 364.408 
L 303.561057 364.408 
L 303.561057 353.915093 
L 297.225728 353.915093 
z
" clip-path="url(#p670859e635)" style="fill: #1f77b4"/>
   </g>
   <g id="patch_39">
    <path d="M 303.561057 364.408 
L 309.896386 364.408 
L 309.896386 352.338693 
L 303.561057 352.338693 
z
" clip-path="url(#p670859e635)" style="fill: #1f77b4"/>
   </g>
   <g id="patch_40">
    <path d="M 309.896386 364.408 
L 316.231715 364.408 
L 316.231715 354.112142 
L 309.896386 354.112142 
z
" clip-path="url(#p670859e635)" style="fill: #1f77b4"/>
   </g>
   <g id="patch_41">
    <path d="M 316.231715 364.408 
L 322.567044 364.408 
L 322.567044 354.506242 
L 316.231715 354.506242 
z
" clip-path="url(#p670859e635)" style="fill: #1f77b4"/>
   </g>
   <g id="patch_42">
    <path d="M 322.567044 364.408 
L 328.902373 364.408 
L 328.902373 355.491492 
L 322.567044 355.491492 
z
" clip-path="url(#p670859e635)" style="fill: #1f77b4"/>
   </g>
   <g id="patch_43">
    <path d="M 328.902373 364.408 
L 335.237702 364.408 
L 335.237702 356.870841 
L 328.902373 356.870841 
z
" clip-path="url(#p670859e635)" style="fill: #1f77b4"/>
   </g>
   <g id="patch_44">
    <path d="M 335.237702 364.408 
L 341.573032 364.408 
L 341.573032 356.624529 
L 335.237702 356.624529 
z
" clip-path="url(#p670859e635)" style="fill: #1f77b4"/>
   </g>
   <g id="patch_45">
    <path d="M 341.573032 364.408 
L 347.908361 364.408 
L 347.908361 356.673791 
L 341.573032 356.673791 
z
" clip-path="url(#p670859e635)" style="fill: #1f77b4"/>
   </g>
   <g id="patch_46">
    <path d="M 347.908361 364.408 
L 354.24369 364.408 
L 354.24369 357.412728 
L 347.908361 357.412728 
z
" clip-path="url(#p670859e635)" style="fill: #1f77b4"/>
   </g>
   <g id="patch_47">
    <path d="M 354.24369 364.408 
L 360.579019 364.408 
L 360.579019 356.870841 
L 354.24369 356.870841 
z
" clip-path="url(#p670859e635)" style="fill: #1f77b4"/>
   </g>
   <g id="patch_48">
    <path d="M 360.579019 364.408 
L 366.914348 364.408 
L 366.914348 359.03839 
L 360.579019 359.03839 
z
" clip-path="url(#p670859e635)" style="fill: #1f77b4"/>
   </g>
   <g id="patch_49">
    <path d="M 366.914348 364.408 
L 373.249677 364.408 
L 373.249677 358.44724 
L 366.914348 358.44724 
z
" clip-path="url(#p670859e635)" style="fill: #1f77b4"/>
   </g>
   <g id="patch_50">
    <path d="M 373.249677 364.408 
L 379.585006 364.408 
L 379.585006 358.053141 
L 373.249677 358.053141 
z
" clip-path="url(#p670859e635)" style="fill: #1f77b4"/>
   </g>
   <g id="patch_51">
    <path d="M 379.585006 364.408 
L 385.920335 364.408 
L 385.920335 359.43249 
L 379.585006 359.43249 
z
" clip-path="url(#p670859e635)" style="fill: #1f77b4"/>
   </g>
   <g id="patch_52">
    <path d="M 385.920335 364.408 
L 392.255664 364.408 
L 392.255664 359.728065 
L 385.920335 359.728065 
z
" clip-path="url(#p670859e635)" style="fill: #1f77b4"/>
   </g>
   <g id="patch_53">
    <path d="M 392.255664 364.408 
L 398.590993 364.408 
L 398.590993 360.122165 
L 392.255664 360.122165 
z
" clip-path="url(#p670859e635)" style="fill: #1f77b4"/>
   </g>
   <g id="patch_54">
    <path d="M 398.590993 364.408 
L 404.926323 364.408 
L 404.926323 359.481752 
L 398.590993 359.481752 
z
" clip-path="url(#p670859e635)" style="fill: #1f77b4"/>
   </g>
   <g id="patch_55">
    <path d="M 404.926323 364.408 
L 411.261652 364.408 
L 411.261652 360.959627 
L 404.926323 360.959627 
z
" clip-path="url(#p670859e635)" style="fill: #1f77b4"/>
   </g>
   <g id="patch_56">
    <path d="M 411.261652 364.408 
L 417.596981 364.408 
L 417.596981 361.205939 
L 411.261652 361.205939 
z
" clip-path="url(#p670859e635)" style="fill: #1f77b4"/>
   </g>
   <g id="patch_57">
    <path d="M 417.596981 364.408 
L 423.93231 364.408 
L 423.93231 360.467002 
L 417.596981 360.467002 
z
" clip-path="url(#p670859e635)" style="fill: #1f77b4"/>
   </g>
   <g id="patch_58">
    <path d="M 423.93231 364.408 
L 430.267639 364.408 
L 430.267639 360.417739 
L 423.93231 360.417739 
z
" clip-path="url(#p670859e635)" style="fill: #1f77b4"/>
   </g>
   <g id="patch_59">
    <path d="M 430.267639 364.408 
L 436.602968 364.408 
L 436.602968 360.565527 
L 430.267639 360.565527 
z
" clip-path="url(#p670859e635)" style="fill: #1f77b4"/>
   </g>
   <g id="patch_60">
    <path d="M 436.602968 364.408 
L 442.938297 364.408 
L 442.938297 360.614789 
L 436.602968 360.614789 
z
" clip-path="url(#p670859e635)" style="fill: #1f77b4"/>
   </g>
   <g id="patch_61">
    <path d="M 442.938297 364.408 
L 449.273626 364.408 
L 449.273626 361.649301 
L 442.938297 361.649301 
z
" clip-path="url(#p670859e635)" style="fill: #1f77b4"/>
   </g>
   <g id="patch_62">
    <path d="M 449.273626 364.408 
L 455.608955 364.408 
L 455.608955 361.205939 
L 449.273626 361.205939 
z
" clip-path="url(#p670859e635)" style="fill: #1f77b4"/>
   </g>
   <g id="patch_63">
    <path d="M 455.608955 364.408 
L 461.944285 364.408 
L 461.944285 361.452251 
L 455.608955 361.452251 
z
" clip-path="url(#p670859e635)" style="fill: #1f77b4"/>
   </g>
   <g id="patch_64">
    <path d="M 461.944285 364.408 
L 468.279614 364.408 
L 468.279614 362.338976 
L 461.944285 362.338976 
z
" clip-path="url(#p670859e635)" style="fill: #1f77b4"/>
   </g>
   <g id="patch_65">
    <path d="M 468.279614 364.408 
L 474.614943 364.408 
L 474.614943 361.994139 
L 468.279614 361.994139 
z
" clip-path="url(#p670859e635)" style="fill: #1f77b4"/>
   </g>
   <g id="patch_66">
    <path d="M 474.614943 364.408 
L 480.950272 364.408 
L 480.950272 361.452251 
L 474.614943 361.452251 
z
" clip-path="url(#p670859e635)" style="fill: #1f77b4"/>
   </g>
   <g id="patch_67">
    <path d="M 480.950272 364.408 
L 487.285634 364.408 
L 487.285634 361.797089 
L 480.950272 361.797089 
z
" clip-path="url(#p670859e635)" style="fill: #1f77b4"/>
   </g>
   <g id="patch_68">
    <path d="M 487.285634 364.408 
L 493.620963 364.408 
L 493.620963 361.944876 
L 487.285634 361.944876 
z
" clip-path="url(#p670859e635)" style="fill: #1f77b4"/>
   </g>
   <g id="patch_69">
    <path d="M 493.620963 364.408 
L 499.956293 364.408 
L 499.956293 362.092664 
L 493.620963 362.092664 
z
" clip-path="url(#p670859e635)" style="fill: #1f77b4"/>
   </g>
   <g id="patch_70">
    <path d="M 499.956293 364.408 
L 506.291622 364.408 
L 506.291622 362.683813 
L 499.956293 362.683813 
z
" clip-path="url(#p670859e635)" style="fill: #1f77b4"/>
   </g>
   <g id="patch_71">
    <path d="M 506.291622 364.408 
L 512.626951 364.408 
L 512.626951 361.944876 
L 506.291622 361.944876 
z
" clip-path="url(#p670859e635)" style="fill: #1f77b4"/>
   </g>
   <g id="patch_72">
    <path d="M 512.626951 364.408 
L 518.96228 364.408 
L 518.96228 362.388238 
L 512.626951 362.388238 
z
" clip-path="url(#p670859e635)" style="fill: #1f77b4"/>
   </g>
   <g id="patch_73">
    <path d="M 518.96228 364.408 
L 525.297609 364.408 
L 525.297609 361.846351 
L 518.96228 361.846351 
z
" clip-path="url(#p670859e635)" style="fill: #1f77b4"/>
   </g>
   <g id="patch_74">
    <path d="M 525.297609 364.408 
L 531.632938 364.408 
L 531.632938 362.486763 
L 525.297609 362.486763 
z
" clip-path="url(#p670859e635)" style="fill: #1f77b4"/>
   </g>
   <g id="patch_75">
    <path d="M 531.632938 364.408 
L 537.968267 364.408 
L 537.968267 362.338976 
L 531.632938 362.338976 
z
" clip-path="url(#p670859e635)" style="fill: #1f77b4"/>
   </g>
   <g id="patch_76">
    <path d="M 537.968267 364.408 
L 544.303596 364.408 
L 544.303596 362.388238 
L 537.968267 362.388238 
z
" clip-path="url(#p670859e635)" style="fill: #1f77b4"/>
   </g>
   <g id="patch_77">
    <path d="M 544.303596 364.408 
L 550.638925 364.408 
L 550.638925 362.437501 
L 544.303596 362.437501 
z
" clip-path="url(#p670859e635)" style="fill: #1f77b4"/>
   </g>
   <g id="patch_78">
    <path d="M 550.638925 364.408 
L 556.974254 364.408 
L 556.974254 362.486763 
L 550.638925 362.486763 
z
" clip-path="url(#p670859e635)" style="fill: #1f77b4"/>
   </g>
   <g id="patch_79">
    <path d="M 556.974254 364.408 
L 563.309584 364.408 
L 563.309584 363.225701 
L 556.974254 363.225701 
z
" clip-path="url(#p670859e635)" style="fill: #1f77b4"/>
   </g>
   <g id="patch_80">
    <path d="M 563.309584 364.408 
L 569.644913 364.408 
L 569.644913 362.585288 
L 563.309584 362.585288 
z
" clip-path="url(#p670859e635)" style="fill: #1f77b4"/>
   </g>
   <g id="patch_81">
    <path d="M 569.644913 364.408 
L 575.980242 364.408 
L 575.980242 362.585288 
L 569.644913 362.585288 
z
" clip-path="url(#p670859e635)" style="fill: #1f77b4"/>
   </g>
   <g id="patch_82">
    <path d="M 575.980242 364.408 
L 582.315571 364.408 
L 582.315571 362.733076 
L 575.980242 362.733076 
z
" clip-path="url(#p670859e635)" style="fill: #1f77b4"/>
   </g>
   <g id="patch_83">
    <path d="M 582.315571 364.408 
L 588.6509 364.408 
L 588.6509 363.225701 
L 582.315571 363.225701 
z
" clip-path="url(#p670859e635)" style="fill: #1f77b4"/>
   </g>
   <g id="patch_84">
    <path d="M 588.6509 364.408 
L 594.986229 364.408 
L 594.986229 362.585288 
L 588.6509 362.585288 
z
" clip-path="url(#p670859e635)" style="fill: #1f77b4"/>
   </g>
   <g id="patch_85">
    <path d="M 594.986229 364.408 
L 601.321558 364.408 
L 601.321558 362.782338 
L 594.986229 362.782338 
z
" clip-path="url(#p670859e635)" style="fill: #1f77b4"/>
   </g>
   <g id="patch_86">
    <path d="M 601.321558 364.408 
L 607.656887 364.408 
L 607.656887 363.127176 
L 601.321558 363.127176 
z
" clip-path="url(#p670859e635)" style="fill: #1f77b4"/>
   </g>
   <g id="patch_87">
    <path d="M 607.656887 364.408 
L 613.992216 364.408 
L 613.992216 363.225701 
L 607.656887 363.225701 
z
" clip-path="url(#p670859e635)" style="fill: #1f77b4"/>
   </g>
   <g id="patch_88">
    <path d="M 613.992216 364.408 
L 620.327546 364.408 
L 620.327546 363.028651 
L 613.992216 363.028651 
z
" clip-path="url(#p670859e635)" style="fill: #1f77b4"/>
   </g>
   <g id="patch_89">
    <path d="M 620.327546 364.408 
L 626.662875 364.408 
L 626.662875 363.274963 
L 620.327546 363.274963 
z
" clip-path="url(#p670859e635)" style="fill: #1f77b4"/>
   </g>
   <g id="patch_90">
    <path d="M 626.662875 364.408 
L 632.998204 364.408 
L 632.998204 363.028651 
L 626.662875 363.028651 
z
" clip-path="url(#p670859e635)" style="fill: #1f77b4"/>
   </g>
   <g id="patch_91">
    <path d="M 632.998204 364.408 
L 639.333533 364.408 
L 639.333533 363.225701 
L 632.998204 363.225701 
z
" clip-path="url(#p670859e635)" style="fill: #1f77b4"/>
   </g>
   <g id="patch_92">
    <path d="M 639.333533 364.408 
L 645.668862 364.408 
L 645.668862 363.6198 
L 639.333533 363.6198 
z
" clip-path="url(#p670859e635)" style="fill: #1f77b4"/>
   </g>
   <g id="patch_93">
    <path d="M 645.668862 364.408 
L 652.004191 364.408 
L 652.004191 363.570538 
L 645.668862 363.570538 
z
" clip-path="url(#p670859e635)" style="fill: #1f77b4"/>
   </g>
   <g id="patch_94">
    <path d="M 652.004191 364.408 
L 658.33952 364.408 
L 658.33952 363.324226 
L 652.004191 363.324226 
z
" clip-path="url(#p670859e635)" style="fill: #1f77b4"/>
   </g>
   <g id="patch_95">
    <path d="M 658.33952 364.408 
L 664.674849 364.408 
L 664.674849 363.81685 
L 658.33952 363.81685 
z
" clip-path="url(#p670859e635)" style="fill: #1f77b4"/>
   </g>
   <g id="patch_96">
    <path d="M 664.674849 364.408 
L 671.010178 364.408 
L 671.010178 359.03839 
L 664.674849 359.03839 
z
" clip-path="url(#p670859e635)" style="fill: #1f77b4"/>
   </g>
   <g id="patch_97">
    <path d="M 671.010178 364.408 
L 677.345507 364.408 
L 677.345507 363.718325 
L 671.010178 363.718325 
z
" clip-path="url(#p670859e635)" style="fill: #1f77b4"/>
   </g>
   <g id="patch_98">
    <path d="M 677.345507 364.408 
L 683.680837 364.408 
L 683.680837 363.6198 
L 677.345507 363.6198 
z
" clip-path="url(#p670859e635)" style="fill: #1f77b4"/>
   </g>
   <g id="patch_99">
    <path d="M 683.680837 364.408 
L 690.016166 364.408 
L 690.016166 363.570538 
L 683.680837 363.570538 
z
" clip-path="url(#p670859e635)" style="fill: #1f77b4"/>
   </g>
   <g id="patch_100">
    <path d="M 690.016166 364.408 
L 696.351495 364.408 
L 696.351495 363.472013 
L 690.016166 363.472013 
z
" clip-path="url(#p670859e635)" style="fill: #1f77b4"/>
   </g>
   <g id="patch_101">
    <path d="M 696.351495 364.408 
L 702.686824 364.408 
L 702.686824 363.718325 
L 696.351495 363.718325 
z
" clip-path="url(#p670859e635)" style="fill: #1f77b4"/>
   </g>
   <g id="patch_102">
    <path d="M 702.686824 364.408 
L 709.022153 364.408 
L 709.022153 363.127176 
L 702.686824 363.127176 
z
" clip-path="url(#p670859e635)" style="fill: #1f77b4"/>
   </g>
   <g id="matplotlib.axis_1">
    <g id="xtick_1">
     <g id="line2d_1">
      <defs>
       <path id="mdb6d8be46b" d="M 0 0 
L 0 3.5 
" style="stroke: #000000; stroke-width: 0.8"/>
      </defs>
      <g>
       <use xlink:href="#mdb6d8be46b" x="63.92" y="364.408" style="stroke: #000000; stroke-width: 0.8"/>
      </g>
     </g>
     <g id="text_1">
      <!-- 0.00000 -->
      <g transform="translate(43.243437 379.006438) scale(0.1 -0.1)">
       <defs>
        <path id="DejaVuSans-30" d="M 2034 4250 
Q 1547 4250 1301 3770 
Q 1056 3291 1056 2328 
Q 1056 1369 1301 889 
Q 1547 409 2034 409 
Q 2525 409 2770 889 
Q 3016 1369 3016 2328 
Q 3016 3291 2770 3770 
Q 2525 4250 2034 4250 
z
M 2034 4750 
Q 2819 4750 3233 4129 
Q 3647 3509 3647 2328 
Q 3647 1150 3233 529 
Q 2819 -91 2034 -91 
Q 1250 -91 836 529 
Q 422 1150 422 2328 
Q 422 3509 836 4129 
Q 1250 4750 2034 4750 
z
" transform="scale(0.015625)"/>
        <path id="DejaVuSans-2e" d="M 684 794 
L 1344 794 
L 1344 0 
L 684 0 
L 684 794 
z
" transform="scale(0.015625)"/>
       </defs>
       <use xlink:href="#DejaVuSans-30"/>
       <use xlink:href="#DejaVuSans-2e" x="63.623047"/>
       <use xlink:href="#DejaVuSans-30" x="95.410156"/>
       <use xlink:href="#DejaVuSans-30" x="159.033203"/>
       <use xlink:href="#DejaVuSans-30" x="222.65625"/>
       <use xlink:href="#DejaVuSans-30" x="286.279297"/>
       <use xlink:href="#DejaVuSans-30" x="349.902344"/>
      </g>
     </g>
    </g>
    <g id="xtick_2">
     <g id="line2d_2">
      <g>
       <use xlink:href="#mdb6d8be46b" x="178.773874" y="364.408" style="stroke: #000000; stroke-width: 0.8"/>
      </g>
     </g>
     <g id="text_2">
      <!-- 0.00005 -->
      <g transform="translate(158.097312 379.006438) scale(0.1 -0.1)">
       <defs>
        <path id="DejaVuSans-35" d="M 691 4666 
L 3169 4666 
L 3169 4134 
L 1269 4134 
L 1269 2991 
Q 1406 3038 1543 3061 
Q 1681 3084 1819 3084 
Q 2600 3084 3056 2656 
Q 3513 2228 3513 1497 
Q 3513 744 3044 326 
Q 2575 -91 1722 -91 
Q 1428 -91 1123 -41 
Q 819 9 494 109 
L 494 744 
Q 775 591 1075 516 
Q 1375 441 1709 441 
Q 2250 441 2565 725 
Q 2881 1009 2881 1497 
Q 2881 1984 2565 2268 
Q 2250 2553 1709 2553 
Q 1456 2553 1204 2497 
Q 953 2441 691 2322 
L 691 4666 
z
" transform="scale(0.015625)"/>
       </defs>
       <use xlink:href="#DejaVuSans-30"/>
       <use xlink:href="#DejaVuSans-2e" x="63.623047"/>
       <use xlink:href="#DejaVuSans-30" x="95.410156"/>
       <use xlink:href="#DejaVuSans-30" x="159.033203"/>
       <use xlink:href="#DejaVuSans-30" x="222.65625"/>
       <use xlink:href="#DejaVuSans-30" x="286.279297"/>
       <use xlink:href="#DejaVuSans-35" x="349.902344"/>
      </g>
     </g>
    </g>
    <g id="xtick_3">
     <g id="line2d_3">
      <g>
       <use xlink:href="#mdb6d8be46b" x="293.627748" y="364.408" style="stroke: #000000; stroke-width: 0.8"/>
      </g>
     </g>
     <g id="text_3">
      <!-- 0.00010 -->
      <g transform="translate(272.951186 379.006438) scale(0.1 -0.1)">
       <defs>
        <path id="DejaVuSans-31" d="M 794 531 
L 1825 531 
L 1825 4091 
L 703 3866 
L 703 4441 
L 1819 4666 
L 2450 4666 
L 2450 531 
L 3481 531 
L 3481 0 
L 794 0 
L 794 531 
z
" transform="scale(0.015625)"/>
       </defs>
       <use xlink:href="#DejaVuSans-30"/>
       <use xlink:href="#DejaVuSans-2e" x="63.623047"/>
       <use xlink:href="#DejaVuSans-30" x="95.410156"/>
       <use xlink:href="#DejaVuSans-30" x="159.033203"/>
       <use xlink:href="#DejaVuSans-30" x="222.65625"/>
       <use xlink:href="#DejaVuSans-31" x="286.279297"/>
       <use xlink:href="#DejaVuSans-30" x="349.902344"/>
      </g>
     </g>
    </g>
    <g id="xtick_4">
     <g id="line2d_4">
      <g>
       <use xlink:href="#mdb6d8be46b" x="408.481622" y="364.408" style="stroke: #000000; stroke-width: 0.8"/>
      </g>
     </g>
     <g id="text_4">
      <!-- 0.00015 -->
      <g transform="translate(387.80506 379.006438) scale(0.1 -0.1)">
       <use xlink:href="#DejaVuSans-30"/>
       <use xlink:href="#DejaVuSans-2e" x="63.623047"/>
       <use xlink:href="#DejaVuSans-30" x="95.410156"/>
       <use xlink:href="#DejaVuSans-30" x="159.033203"/>
       <use xlink:href="#DejaVuSans-30" x="222.65625"/>
       <use xlink:href="#DejaVuSans-31" x="286.279297"/>
       <use xlink:href="#DejaVuSans-35" x="349.902344"/>
      </g>
     </g>
    </g>
    <g id="xtick_5">
     <g id="line2d_5">
      <g>
       <use xlink:href="#mdb6d8be46b" x="523.335496" y="364.408" style="stroke: #000000; stroke-width: 0.8"/>
      </g>
     </g>
     <g id="text_5">
      <!-- 0.00020 -->
      <g transform="translate(502.658934 379.006438) scale(0.1 -0.1)">
       <defs>
        <path id="DejaVuSans-32" d="M 1228 531 
L 3431 531 
L 3431 0 
L 469 0 
L 469 531 
Q 828 903 1448 1529 
Q 2069 2156 2228 2338 
Q 2531 2678 2651 2914 
Q 2772 3150 2772 3378 
Q 2772 3750 2511 3984 
Q 2250 4219 1831 4219 
Q 1534 4219 1204 4116 
Q 875 4013 500 3803 
L 500 4441 
Q 881 4594 1212 4672 
Q 1544 4750 1819 4750 
Q 2544 4750 2975 4387 
Q 3406 4025 3406 3419 
Q 3406 3131 3298 2873 
Q 3191 2616 2906 2266 
Q 2828 2175 2409 1742 
Q 1991 1309 1228 531 
z
" transform="scale(0.015625)"/>
       </defs>
       <use xlink:href="#DejaVuSans-30"/>
       <use xlink:href="#DejaVuSans-2e" x="63.623047"/>
       <use xlink:href="#DejaVuSans-30" x="95.410156"/>
       <use xlink:href="#DejaVuSans-30" x="159.033203"/>
       <use xlink:href="#DejaVuSans-30" x="222.65625"/>
       <use xlink:href="#DejaVuSans-32" x="286.279297"/>
       <use xlink:href="#DejaVuSans-30" x="349.902344"/>
      </g>
     </g>
    </g>
    <g id="xtick_6">
     <g id="line2d_6">
      <g>
       <use xlink:href="#mdb6d8be46b" x="638.18937" y="364.408" style="stroke: #000000; stroke-width: 0.8"/>
      </g>
     </g>
     <g id="text_6">
      <!-- 0.00025 -->
      <g transform="translate(617.512808 379.006438) scale(0.1 -0.1)">
       <use xlink:href="#DejaVuSans-30"/>
       <use xlink:href="#DejaVuSans-2e" x="63.623047"/>
       <use xlink:href="#DejaVuSans-30" x="95.410156"/>
       <use xlink:href="#DejaVuSans-30" x="159.033203"/>
       <use xlink:href="#DejaVuSans-30" x="222.65625"/>
       <use xlink:href="#DejaVuSans-32" x="286.279297"/>
       <use xlink:href="#DejaVuSans-35" x="349.902344"/>
      </g>
     </g>
    </g>
    <g id="text_7">
     <!-- Seconds -->
     <g transform="translate(352.94875 397.243625) scale(0.16 -0.16)">
      <defs>
       <path id="DejaVuSans-53" d="M 3425 4513 
L 3425 3897 
Q 3066 4069 2747 4153 
Q 2428 4238 2131 4238 
Q 1616 4238 1336 4038 
Q 1056 3838 1056 3469 
Q 1056 3159 1242 3001 
Q 1428 2844 1947 2747 
L 2328 2669 
Q 3034 2534 3370 2195 
Q 3706 1856 3706 1288 
Q 3706 609 3251 259 
Q 2797 -91 1919 -91 
Q 1588 -91 1214 -16 
Q 841 59 441 206 
L 441 856 
Q 825 641 1194 531 
Q 1563 422 1919 422 
Q 2459 422 2753 634 
Q 3047 847 3047 1241 
Q 3047 1584 2836 1778 
Q 2625 1972 2144 2069 
L 1759 2144 
Q 1053 2284 737 2584 
Q 422 2884 422 3419 
Q 422 4038 858 4394 
Q 1294 4750 2059 4750 
Q 2388 4750 2728 4690 
Q 3069 4631 3425 4513 
z
" transform="scale(0.015625)"/>
       <path id="DejaVuSans-65" d="M 3597 1894 
L 3597 1613 
L 953 1613 
Q 991 1019 1311 708 
Q 1631 397 2203 397 
Q 2534 397 2845 478 
Q 3156 559 3463 722 
L 3463 178 
Q 3153 47 2828 -22 
Q 2503 -91 2169 -91 
Q 1331 -91 842 396 
Q 353 884 353 1716 
Q 353 2575 817 3079 
Q 1281 3584 2069 3584 
Q 2775 3584 3186 3129 
Q 3597 2675 3597 1894 
z
M 3022 2063 
Q 3016 2534 2758 2815 
Q 2500 3097 2075 3097 
Q 1594 3097 1305 2825 
Q 1016 2553 972 2059 
L 3022 2063 
z
" transform="scale(0.015625)"/>
       <path id="DejaVuSans-63" d="M 3122 3366 
L 3122 2828 
Q 2878 2963 2633 3030 
Q 2388 3097 2138 3097 
Q 1578 3097 1268 2742 
Q 959 2388 959 1747 
Q 959 1106 1268 751 
Q 1578 397 2138 397 
Q 2388 397 2633 464 
Q 2878 531 3122 666 
L 3122 134 
Q 2881 22 2623 -34 
Q 2366 -91 2075 -91 
Q 1284 -91 818 406 
Q 353 903 353 1747 
Q 353 2603 823 3093 
Q 1294 3584 2113 3584 
Q 2378 3584 2631 3529 
Q 2884 3475 3122 3366 
z
" transform="scale(0.015625)"/>
       <path id="DejaVuSans-6f" d="M 1959 3097 
Q 1497 3097 1228 2736 
Q 959 2375 959 1747 
Q 959 1119 1226 758 
Q 1494 397 1959 397 
Q 2419 397 2687 759 
Q 2956 1122 2956 1747 
Q 2956 2369 2687 2733 
Q 2419 3097 1959 3097 
z
M 1959 3584 
Q 2709 3584 3137 3096 
Q 3566 2609 3566 1747 
Q 3566 888 3137 398 
Q 2709 -91 1959 -91 
Q 1206 -91 779 398 
Q 353 888 353 1747 
Q 353 2609 779 3096 
Q 1206 3584 1959 3584 
z
" transform="scale(0.015625)"/>
       <path id="DejaVuSans-6e" d="M 3513 2113 
L 3513 0 
L 2938 0 
L 2938 2094 
Q 2938 2591 2744 2837 
Q 2550 3084 2163 3084 
Q 1697 3084 1428 2787 
Q 1159 2491 1159 1978 
L 1159 0 
L 581 0 
L 581 3500 
L 1159 3500 
L 1159 2956 
Q 1366 3272 1645 3428 
Q 1925 3584 2291 3584 
Q 2894 3584 3203 3211 
Q 3513 2838 3513 2113 
z
" transform="scale(0.015625)"/>
       <path id="DejaVuSans-64" d="M 2906 2969 
L 2906 4863 
L 3481 4863 
L 3481 0 
L 2906 0 
L 2906 525 
Q 2725 213 2448 61 
Q 2172 -91 1784 -91 
Q 1150 -91 751 415 
Q 353 922 353 1747 
Q 353 2572 751 3078 
Q 1150 3584 1784 3584 
Q 2172 3584 2448 3432 
Q 2725 3281 2906 2969 
z
M 947 1747 
Q 947 1113 1208 752 
Q 1469 391 1925 391 
Q 2381 391 2643 752 
Q 2906 1113 2906 1747 
Q 2906 2381 2643 2742 
Q 2381 3103 1925 3103 
Q 1469 3103 1208 2742 
Q 947 2381 947 1747 
z
" transform="scale(0.015625)"/>
       <path id="DejaVuSans-73" d="M 2834 3397 
L 2834 2853 
Q 2591 2978 2328 3040 
Q 2066 3103 1784 3103 
Q 1356 3103 1142 2972 
Q 928 2841 928 2578 
Q 928 2378 1081 2264 
Q 1234 2150 1697 2047 
L 1894 2003 
Q 2506 1872 2764 1633 
Q 3022 1394 3022 966 
Q 3022 478 2636 193 
Q 2250 -91 1575 -91 
Q 1294 -91 989 -36 
Q 684 19 347 128 
L 347 722 
Q 666 556 975 473 
Q 1284 391 1588 391 
Q 1994 391 2212 530 
Q 2431 669 2431 922 
Q 2431 1156 2273 1281 
Q 2116 1406 1581 1522 
L 1381 1569 
Q 847 1681 609 1914 
Q 372 2147 372 2553 
Q 372 3047 722 3315 
Q 1072 3584 1716 3584 
Q 2034 3584 2315 3537 
Q 2597 3491 2834 3397 
z
" transform="scale(0.015625)"/>
      </defs>
      <use xlink:href="#DejaVuSans-53"/>
      <use xlink:href="#DejaVuSans-65" x="63.476562"/>
      <use xlink:href="#DejaVuSans-63" x="125"/>
      <use xlink:href="#DejaVuSans-6f" x="179.980469"/>
      <use xlink:href="#DejaVuSans-6e" x="241.162109"/>
      <use xlink:href="#DejaVuSans-64" x="304.541016"/>
      <use xlink:href="#DejaVuSans-73" x="368.017578"/>
     </g>
     <!-- (limited to 98th percentile) -->
     <g transform="translate(278.67 415.160125) scale(0.16 -0.16)">
      <defs>
       <path id="DejaVuSans-28" d="M 1984 4856 
Q 1566 4138 1362 3434 
Q 1159 2731 1159 2009 
Q 1159 1288 1364 580 
Q 1569 -128 1984 -844 
L 1484 -844 
Q 1016 -109 783 600 
Q 550 1309 550 2009 
Q 550 2706 781 3412 
Q 1013 4119 1484 4856 
L 1984 4856 
z
" transform="scale(0.015625)"/>
       <path id="DejaVuSans-6c" d="M 603 4863 
L 1178 4863 
L 1178 0 
L 603 0 
L 603 4863 
z
" transform="scale(0.015625)"/>
       <path id="DejaVuSans-69" d="M 603 3500 
L 1178 3500 
L 1178 0 
L 603 0 
L 603 3500 
z
M 603 4863 
L 1178 4863 
L 1178 4134 
L 603 4134 
L 603 4863 
z
" transform="scale(0.015625)"/>
       <path id="DejaVuSans-6d" d="M 3328 2828 
Q 3544 3216 3844 3400 
Q 4144 3584 4550 3584 
Q 5097 3584 5394 3201 
Q 5691 2819 5691 2113 
L 5691 0 
L 5113 0 
L 5113 2094 
Q 5113 2597 4934 2840 
Q 4756 3084 4391 3084 
Q 3944 3084 3684 2787 
Q 3425 2491 3425 1978 
L 3425 0 
L 2847 0 
L 2847 2094 
Q 2847 2600 2669 2842 
Q 2491 3084 2119 3084 
Q 1678 3084 1418 2786 
Q 1159 2488 1159 1978 
L 1159 0 
L 581 0 
L 581 3500 
L 1159 3500 
L 1159 2956 
Q 1356 3278 1631 3431 
Q 1906 3584 2284 3584 
Q 2666 3584 2933 3390 
Q 3200 3197 3328 2828 
z
" transform="scale(0.015625)"/>
       <path id="DejaVuSans-74" d="M 1172 4494 
L 1172 3500 
L 2356 3500 
L 2356 3053 
L 1172 3053 
L 1172 1153 
Q 1172 725 1289 603 
Q 1406 481 1766 481 
L 2356 481 
L 2356 0 
L 1766 0 
Q 1100 0 847 248 
Q 594 497 594 1153 
L 594 3053 
L 172 3053 
L 172 3500 
L 594 3500 
L 594 4494 
L 1172 4494 
z
" transform="scale(0.015625)"/>
       <path id="DejaVuSans-20" transform="scale(0.015625)"/>
       <path id="DejaVuSans-39" d="M 703 97 
L 703 672 
Q 941 559 1184 500 
Q 1428 441 1663 441 
Q 2288 441 2617 861 
Q 2947 1281 2994 2138 
Q 2813 1869 2534 1725 
Q 2256 1581 1919 1581 
Q 1219 1581 811 2004 
Q 403 2428 403 3163 
Q 403 3881 828 4315 
Q 1253 4750 1959 4750 
Q 2769 4750 3195 4129 
Q 3622 3509 3622 2328 
Q 3622 1225 3098 567 
Q 2575 -91 1691 -91 
Q 1453 -91 1209 -44 
Q 966 3 703 97 
z
M 1959 2075 
Q 2384 2075 2632 2365 
Q 2881 2656 2881 3163 
Q 2881 3666 2632 3958 
Q 2384 4250 1959 4250 
Q 1534 4250 1286 3958 
Q 1038 3666 1038 3163 
Q 1038 2656 1286 2365 
Q 1534 2075 1959 2075 
z
" transform="scale(0.015625)"/>
       <path id="DejaVuSans-38" d="M 2034 2216 
Q 1584 2216 1326 1975 
Q 1069 1734 1069 1313 
Q 1069 891 1326 650 
Q 1584 409 2034 409 
Q 2484 409 2743 651 
Q 3003 894 3003 1313 
Q 3003 1734 2745 1975 
Q 2488 2216 2034 2216 
z
M 1403 2484 
Q 997 2584 770 2862 
Q 544 3141 544 3541 
Q 544 4100 942 4425 
Q 1341 4750 2034 4750 
Q 2731 4750 3128 4425 
Q 3525 4100 3525 3541 
Q 3525 3141 3298 2862 
Q 3072 2584 2669 2484 
Q 3125 2378 3379 2068 
Q 3634 1759 3634 1313 
Q 3634 634 3220 271 
Q 2806 -91 2034 -91 
Q 1263 -91 848 271 
Q 434 634 434 1313 
Q 434 1759 690 2068 
Q 947 2378 1403 2484 
z
M 1172 3481 
Q 1172 3119 1398 2916 
Q 1625 2713 2034 2713 
Q 2441 2713 2670 2916 
Q 2900 3119 2900 3481 
Q 2900 3844 2670 4047 
Q 2441 4250 2034 4250 
Q 1625 4250 1398 4047 
Q 1172 3844 1172 3481 
z
" transform="scale(0.015625)"/>
       <path id="DejaVuSans-68" d="M 3513 2113 
L 3513 0 
L 2938 0 
L 2938 2094 
Q 2938 2591 2744 2837 
Q 2550 3084 2163 3084 
Q 1697 3084 1428 2787 
Q 1159 2491 1159 1978 
L 1159 0 
L 581 0 
L 581 4863 
L 1159 4863 
L 1159 2956 
Q 1366 3272 1645 3428 
Q 1925 3584 2291 3584 
Q 2894 3584 3203 3211 
Q 3513 2838 3513 2113 
z
" transform="scale(0.015625)"/>
       <path id="DejaVuSans-70" d="M 1159 525 
L 1159 -1331 
L 581 -1331 
L 581 3500 
L 1159 3500 
L 1159 2969 
Q 1341 3281 1617 3432 
Q 1894 3584 2278 3584 
Q 2916 3584 3314 3078 
Q 3713 2572 3713 1747 
Q 3713 922 3314 415 
Q 2916 -91 2278 -91 
Q 1894 -91 1617 61 
Q 1341 213 1159 525 
z
M 3116 1747 
Q 3116 2381 2855 2742 
Q 2594 3103 2138 3103 
Q 1681 3103 1420 2742 
Q 1159 2381 1159 1747 
Q 1159 1113 1420 752 
Q 1681 391 2138 391 
Q 2594 391 2855 752 
Q 3116 1113 3116 1747 
z
" transform="scale(0.015625)"/>
       <path id="DejaVuSans-72" d="M 2631 2963 
Q 2534 3019 2420 3045 
Q 2306 3072 2169 3072 
Q 1681 3072 1420 2755 
Q 1159 2438 1159 1844 
L 1159 0 
L 581 0 
L 581 3500 
L 1159 3500 
L 1159 2956 
Q 1341 3275 1631 3429 
Q 1922 3584 2338 3584 
Q 2397 3584 2469 3576 
Q 2541 3569 2628 3553 
L 2631 2963 
z
" transform="scale(0.015625)"/>
       <path id="DejaVuSans-29" d="M 513 4856 
L 1013 4856 
Q 1481 4119 1714 3412 
Q 1947 2706 1947 2009 
Q 1947 1309 1714 600 
Q 1481 -109 1013 -844 
L 513 -844 
Q 928 -128 1133 580 
Q 1338 1288 1338 2009 
Q 1338 2731 1133 3434 
Q 928 4138 513 4856 
z
" transform="scale(0.015625)"/>
      </defs>
      <use xlink:href="#DejaVuSans-28"/>
      <use xlink:href="#DejaVuSans-6c" x="39.013672"/>
      <use xlink:href="#DejaVuSans-69" x="66.796875"/>
      <use xlink:href="#DejaVuSans-6d" x="94.580078"/>
      <use xlink:href="#DejaVuSans-69" x="191.992188"/>
      <use xlink:href="#DejaVuSans-74" x="219.775391"/>
      <use xlink:href="#DejaVuSans-65" x="258.984375"/>
      <use xlink:href="#DejaVuSans-64" x="320.507812"/>
      <use xlink:href="#DejaVuSans-20" x="383.984375"/>
      <use xlink:href="#DejaVuSans-74" x="415.771484"/>
      <use xlink:href="#DejaVuSans-6f" x="454.980469"/>
      <use xlink:href="#DejaVuSans-20" x="516.162109"/>
      <use xlink:href="#DejaVuSans-39" x="547.949219"/>
      <use xlink:href="#DejaVuSans-38" x="611.572266"/>
      <use xlink:href="#DejaVuSans-74" x="675.195312"/>
      <use xlink:href="#DejaVuSans-68" x="714.404297"/>
      <use xlink:href="#DejaVuSans-20" x="777.783203"/>
      <use xlink:href="#DejaVuSans-70" x="809.570312"/>
      <use xlink:href="#DejaVuSans-65" x="873.046875"/>
      <use xlink:href="#DejaVuSans-72" x="934.570312"/>
      <use xlink:href="#DejaVuSans-63" x="973.433594"/>
      <use xlink:href="#DejaVuSans-65" x="1028.414062"/>
      <use xlink:href="#DejaVuSans-6e" x="1089.9375"/>
      <use xlink:href="#DejaVuSans-74" x="1153.316406"/>
      <use xlink:href="#DejaVuSans-69" x="1192.525391"/>
      <use xlink:href="#DejaVuSans-6c" x="1220.308594"/>
      <use xlink:href="#DejaVuSans-65" x="1248.091797"/>
      <use xlink:href="#DejaVuSans-29" x="1309.615234"/>
     </g>
    </g>
   </g>
   <g id="matplotlib.axis_2">
    <g id="ytick_1">
     <g id="line2d_7">
      <defs>
       <path id="m965bd4d83a" d="M 0 0 
L -3.5 0 
" style="stroke: #000000; stroke-width: 0.8"/>
      </defs>
      <g>
       <use xlink:href="#m965bd4d83a" x="63.92" y="364.408" style="stroke: #000000; stroke-width: 0.8"/>
      </g>
     </g>
     <g id="text_8">
      <!-- 0 -->
      <g transform="translate(50.5575 368.207219) scale(0.1 -0.1)">
       <use xlink:href="#DejaVuSans-30"/>
      </g>
     </g>
    </g>
    <g id="ytick_2">
     <g id="line2d_8">
      <g>
       <use xlink:href="#m965bd4d83a" x="63.92" y="315.145524" style="stroke: #000000; stroke-width: 0.8"/>
      </g>
     </g>
     <g id="text_9">
      <!-- 1000 -->
      <g transform="translate(31.47 318.944742) scale(0.1 -0.1)">
       <use xlink:href="#DejaVuSans-31"/>
       <use xlink:href="#DejaVuSans-30" x="63.623047"/>
       <use xlink:href="#DejaVuSans-30" x="127.246094"/>
       <use xlink:href="#DejaVuSans-30" x="190.869141"/>
      </g>
     </g>
    </g>
    <g id="ytick_3">
     <g id="line2d_9">
      <g>
       <use xlink:href="#m965bd4d83a" x="63.92" y="265.883047" style="stroke: #000000; stroke-width: 0.8"/>
      </g>
     </g>
     <g id="text_10">
      <!-- 2000 -->
      <g transform="translate(31.47 269.682266) scale(0.1 -0.1)">
       <use xlink:href="#DejaVuSans-32"/>
       <use xlink:href="#DejaVuSans-30" x="63.623047"/>
       <use xlink:href="#DejaVuSans-30" x="127.246094"/>
       <use xlink:href="#DejaVuSans-30" x="190.869141"/>
      </g>
     </g>
    </g>
    <g id="ytick_4">
     <g id="line2d_10">
      <g>
       <use xlink:href="#m965bd4d83a" x="63.92" y="216.620571" style="stroke: #000000; stroke-width: 0.8"/>
      </g>
     </g>
     <g id="text_11">
      <!-- 3000 -->
      <g transform="translate(31.47 220.419789) scale(0.1 -0.1)">
       <defs>
        <path id="DejaVuSans-33" d="M 2597 2516 
Q 3050 2419 3304 2112 
Q 3559 1806 3559 1356 
Q 3559 666 3084 287 
Q 2609 -91 1734 -91 
Q 1441 -91 1130 -33 
Q 819 25 488 141 
L 488 750 
Q 750 597 1062 519 
Q 1375 441 1716 441 
Q 2309 441 2620 675 
Q 2931 909 2931 1356 
Q 2931 1769 2642 2001 
Q 2353 2234 1838 2234 
L 1294 2234 
L 1294 2753 
L 1863 2753 
Q 2328 2753 2575 2939 
Q 2822 3125 2822 3475 
Q 2822 3834 2567 4026 
Q 2313 4219 1838 4219 
Q 1578 4219 1281 4162 
Q 984 4106 628 3988 
L 628 4550 
Q 988 4650 1302 4700 
Q 1616 4750 1894 4750 
Q 2613 4750 3031 4423 
Q 3450 4097 3450 3541 
Q 3450 3153 3228 2886 
Q 3006 2619 2597 2516 
z
" transform="scale(0.015625)"/>
       </defs>
       <use xlink:href="#DejaVuSans-33"/>
       <use xlink:href="#DejaVuSans-30" x="63.623047"/>
       <use xlink:href="#DejaVuSans-30" x="127.246094"/>
       <use xlink:href="#DejaVuSans-30" x="190.869141"/>
      </g>
     </g>
    </g>
    <g id="ytick_5">
     <g id="line2d_11">
      <g>
       <use xlink:href="#m965bd4d83a" x="63.92" y="167.358094" style="stroke: #000000; stroke-width: 0.8"/>
      </g>
     </g>
     <g id="text_12">
      <!-- 4000 -->
      <g transform="translate(31.47 171.157313) scale(0.1 -0.1)">
       <defs>
        <path id="DejaVuSans-34" d="M 2419 4116 
L 825 1625 
L 2419 1625 
L 2419 4116 
z
M 2253 4666 
L 3047 4666 
L 3047 1625 
L 3713 1625 
L 3713 1100 
L 3047 1100 
L 3047 0 
L 2419 0 
L 2419 1100 
L 313 1100 
L 313 1709 
L 2253 4666 
z
" transform="scale(0.015625)"/>
       </defs>
       <use xlink:href="#DejaVuSans-34"/>
       <use xlink:href="#DejaVuSans-30" x="63.623047"/>
       <use xlink:href="#DejaVuSans-30" x="127.246094"/>
       <use xlink:href="#DejaVuSans-30" x="190.869141"/>
      </g>
     </g>
    </g>
    <g id="ytick_6">
     <g id="line2d_12">
      <g>
       <use xlink:href="#m965bd4d83a" x="63.92" y="118.095618" style="stroke: #000000; stroke-width: 0.8"/>
      </g>
     </g>
     <g id="text_13">
      <!-- 5000 -->
      <g transform="translate(31.47 121.894837) scale(0.1 -0.1)">
       <use xlink:href="#DejaVuSans-35"/>
       <use xlink:href="#DejaVuSans-30" x="63.623047"/>
       <use xlink:href="#DejaVuSans-30" x="127.246094"/>
       <use xlink:href="#DejaVuSans-30" x="190.869141"/>
      </g>
     </g>
    </g>
    <g id="ytick_7">
     <g id="line2d_13">
      <g>
       <use xlink:href="#m965bd4d83a" x="63.92" y="68.833141" style="stroke: #000000; stroke-width: 0.8"/>
      </g>
     </g>
     <g id="text_14">
      <!-- 6000 -->
      <g transform="translate(31.47 72.63236) scale(0.1 -0.1)">
       <defs>
        <path id="DejaVuSans-36" d="M 2113 2584 
Q 1688 2584 1439 2293 
Q 1191 2003 1191 1497 
Q 1191 994 1439 701 
Q 1688 409 2113 409 
Q 2538 409 2786 701 
Q 3034 994 3034 1497 
Q 3034 2003 2786 2293 
Q 2538 2584 2113 2584 
z
M 3366 4563 
L 3366 3988 
Q 3128 4100 2886 4159 
Q 2644 4219 2406 4219 
Q 1781 4219 1451 3797 
Q 1122 3375 1075 2522 
Q 1259 2794 1537 2939 
Q 1816 3084 2150 3084 
Q 2853 3084 3261 2657 
Q 3669 2231 3669 1497 
Q 3669 778 3244 343 
Q 2819 -91 2113 -91 
Q 1303 -91 875 529 
Q 447 1150 447 2328 
Q 447 3434 972 4092 
Q 1497 4750 2381 4750 
Q 2619 4750 2861 4703 
Q 3103 4656 3366 4563 
z
" transform="scale(0.015625)"/>
       </defs>
       <use xlink:href="#DejaVuSans-36"/>
       <use xlink:href="#DejaVuSans-30" x="63.623047"/>
       <use xlink:href="#DejaVuSans-30" x="127.246094"/>
       <use xlink:href="#DejaVuSans-30" x="190.869141"/>
      </g>
     </g>
    </g>
    <g id="text_15">
     <!-- Count -->
     <g transform="translate(24.1425 222.2815) rotate(-90) scale(0.16 -0.16)">
      <defs>
       <path id="DejaVuSans-43" d="M 4122 4306 
L 4122 3641 
Q 3803 3938 3442 4084 
Q 3081 4231 2675 4231 
Q 1875 4231 1450 3742 
Q 1025 3253 1025 2328 
Q 1025 1406 1450 917 
Q 1875 428 2675 428 
Q 3081 428 3442 575 
Q 3803 722 4122 1019 
L 4122 359 
Q 3791 134 3420 21 
Q 3050 -91 2638 -91 
Q 1578 -91 968 557 
Q 359 1206 359 2328 
Q 359 3453 968 4101 
Q 1578 4750 2638 4750 
Q 3056 4750 3426 4639 
Q 3797 4528 4122 4306 
z
" transform="scale(0.015625)"/>
       <path id="DejaVuSans-75" d="M 544 1381 
L 544 3500 
L 1119 3500 
L 1119 1403 
Q 1119 906 1312 657 
Q 1506 409 1894 409 
Q 2359 409 2629 706 
Q 2900 1003 2900 1516 
L 2900 3500 
L 3475 3500 
L 3475 0 
L 2900 0 
L 2900 538 
Q 2691 219 2414 64 
Q 2138 -91 1772 -91 
Q 1169 -91 856 284 
Q 544 659 544 1381 
z
M 1991 3584 
L 1991 3584 
z
" transform="scale(0.015625)"/>
      </defs>
      <use xlink:href="#DejaVuSans-43"/>
      <use xlink:href="#DejaVuSans-6f" x="69.824219"/>
      <use xlink:href="#DejaVuSans-75" x="131.005859"/>
      <use xlink:href="#DejaVuSans-6e" x="194.384766"/>
      <use xlink:href="#DejaVuSans-74" x="257.763672"/>
     </g>
    </g>
   </g>
   <g id="patch_103">
    <path d="M 63.92 364.408 
L 63.92 32.64 
" style="fill: none; stroke: #000000; stroke-width: 0.8; stroke-linejoin: miter; stroke-linecap: square"/>
   </g>
   <g id="patch_104">
    <path d="M 709.2 364.408 
L 709.2 32.64 
" style="fill: none; stroke: #000000; stroke-width: 0.8; stroke-linejoin: miter; stroke-linecap: square"/>
   </g>
   <g id="patch_105">
    <path d="M 63.92 364.408 
L 709.2 364.408 
" style="fill: none; stroke: #000000; stroke-width: 0.8; stroke-linejoin: miter; stroke-linecap: square"/>
   </g>
   <g id="patch_106">
    <path d="M 63.92 32.64 
L 709.2 32.64 
" style="fill: none; stroke: #000000; stroke-width: 0.8; stroke-linejoin: miter; stroke-linecap: square"/>
   </g>
   <g id="text_16">
    <!-- T2* -->
    <g transform="translate(369.089688 26.64) scale(0.2 -0.2)">
     <defs>
      <path id="DejaVuSans-54" d="M -19 4666 
L 3928 4666 
L 3928 4134 
L 2272 4134 
L 2272 0 
L 1638 0 
L 1638 4134 
L -19 4134 
L -19 4666 
z
" transform="scale(0.015625)"/>
      <path id="DejaVuSans-2a" d="M 3009 3897 
L 1888 3291 
L 3009 2681 
L 2828 2375 
L 1778 3009 
L 1778 1831 
L 1422 1831 
L 1422 3009 
L 372 2375 
L 191 2681 
L 1313 3291 
L 191 3897 
L 372 4206 
L 1422 3572 
L 1422 4750 
L 1778 4750 
L 1778 3572 
L 2828 4206 
L 3009 3897 
z
" transform="scale(0.015625)"/>
     </defs>
     <use xlink:href="#DejaVuSans-54"/>
     <use xlink:href="#DejaVuSans-32" x="61.083984"/>
     <use xlink:href="#DejaVuSans-2a" x="124.707031"/>
    </g>
   </g>
  </g>
 </g>
 <defs>
  <clipPath id="p670859e635">
   <rect x="63.92" y="32.64" width="645.28" height="331.768"/>
  </clipPath>
 </defs>
</svg>
