<?xml version="1.0" encoding="utf-8" standalone="no"?>
<!DOCTYPE svg PUBLIC "-//W3C//DTD SVG 1.1//EN"
  "http://www.w3.org/Graphics/SVG/1.1/DTD/svg11.dtd">
<svg xmlns:xlink="http://www.w3.org/1999/xlink" width="720pt" height="432pt" viewBox="0 0 720 432" xmlns="http://www.w3.org/2000/svg" version="1.1">
 <metadata>
  <rdf:RDF xmlns:dc="http://purl.org/dc/elements/1.1/" xmlns:cc="http://creativecommons.org/ns#" xmlns:rdf="http://www.w3.org/1999/02/22-rdf-syntax-ns#">
   <cc:Work>
    <dc:type rdf:resource="http://purl.org/dc/dcmitype/StillImage"/>
    <dc:date>2024-05-26T10:28:19.762083</dc:date>
    <dc:format>image/svg+xml</dc:format>
    <dc:creator>
     <cc:Agent>
      <dc:title>Matplotlib v3.8.4, https://matplotlib.org/</dc:title>
     </cc:Agent>
    </dc:creator>
   </cc:Work>
  </rdf:RDF>
 </metadata>
 <defs>
  <style type="text/css">*{stroke-linejoin: round; stroke-linecap: butt}</style>
 </defs>
 <g id="figure_1">
  <g id="patch_1">
   <path d="M 0 432 
L 720 432 
L 720 0 
L 0 0 
z
" style="fill: #ffffff"/>
  </g>
  <g id="axes_1">
   <g id="patch_2">
    <path d="M 90 384.48 
L 648 384.48 
L 648 51.84 
L 90 51.84 
z
" style="fill: #ffffff"/>
   </g>
   <g id="PolyCollection_1">
    <defs>
     <path id="m8c910d769d" d="M 90 -178.203876 
L 90 -101.923427 
L 92.205534 -98.032146 
L 94.411067 -99.261194 
L 96.616601 -99.391519 
L 98.822134 -99.025155 
L 101.027668 -98.54184 
L 103.233202 -97.678418 
L 105.438735 -98.376994 
L 107.644269 -97.904542 
L 109.849802 -97.427611 
L 112.055336 -97.294597 
L 114.26087 -97.205987 
L 116.466403 -97.277571 
L 118.671937 -97.112001 
L 120.87747 -97.173764 
L 123.083004 -96.95989 
L 125.288538 -96.696002 
L 127.494071 -96.097727 
L 129.699605 -95.970212 
L 131.905138 -97.020095 
L 134.110672 -97.013834 
L 136.316206 -97.647725 
L 138.521739 -97.273081 
L 140.727273 -97.97075 
L 142.932806 -97.857128 
L 145.13834 -97.180269 
L 147.343874 -96.505085 
L 149.549407 -96.696674 
L 151.754941 -96.271411 
L 153.960474 -96.219978 
L 156.166008 -96.314081 
L 158.371542 -96.05557 
L 160.577075 -95.325925 
L 162.782609 -95.399509 
L 164.988142 -94.378791 
L 167.193676 -94.590283 
L 169.399209 -94.356815 
L 171.604743 -95.012791 
L 173.810277 -94.716857 
L 176.01581 -94.827467 
L 178.221344 -94.930523 
L 180.426877 -95.10124 
L 182.632411 -94.333881 
L 184.837945 -94.705073 
L 187.043478 -94.79473 
L 189.249012 -94.508203 
L 191.454545 -94.818363 
L 193.660079 -95.045132 
L 195.865613 -95.449802 
L 198.071146 -95.096084 
L 200.27668 -96.200888 
L 202.482213 -94.848946 
L 204.687747 -94.053374 
L 206.893281 -93.821827 
L 209.098814 -94.204939 
L 211.304348 -93.608289 
L 213.509881 -93.188666 
L 215.715415 -93.142238 
L 217.920949 -93.589139 
L 220.126482 -92.791723 
L 222.332016 -93.105609 
L 224.537549 -92.689451 
L 226.743083 -92.950856 
L 228.948617 -93.055535 
L 231.15415 -92.879589 
L 233.359684 -92.458365 
L 235.565217 -92.2704 
L 237.770751 -92.671242 
L 239.976285 -92.703714 
L 242.181818 -92.759284 
L 244.387352 -92.504597 
L 246.592885 -92.82077 
L 248.798419 -92.941641 
L 251.003953 -91.870587 
L 253.209486 -92.299403 
L 255.41502 -92.363694 
L 257.620553 -92.459715 
L 259.826087 -92.80038 
L 262.031621 -92.85152 
L 264.237154 -92.392022 
L 266.442688 -92.988059 
L 268.648221 -92.957724 
L 270.853755 -93.08676 
L 273.059289 -93.573103 
L 275.264822 -93.194853 
L 277.470356 -92.261733 
L 279.675889 -92.158424 
L 281.881423 -92.670246 
L 284.086957 -92.632671 
L 286.29249 -92.379053 
L 288.498024 -92.655509 
L 290.703557 -91.878393 
L 292.909091 -91.840027 
L 295.114625 -92.238914 
L 297.320158 -93.185869 
L 299.525692 -93.124686 
L 301.731225 -92.787866 
L 303.936759 -92.991074 
L 306.142292 -92.401838 
L 308.347826 -92.266669 
L 310.55336 -92.142826 
L 312.758893 -92.307189 
L 314.964427 -92.308407 
L 317.16996 -92.200254 
L 319.375494 -93.290158 
L 321.581028 -92.575334 
L 323.786561 -92.324549 
L 325.992095 -92.287712 
L 328.197628 -92.22526 
L 330.403162 -92.387824 
L 332.608696 -92.427908 
L 334.814229 -92.525383 
L 337.019763 -92.49661 
L 339.225296 -92.497123 
L 341.43083 -92.574653 
L 343.636364 -92.449639 
L 345.841897 -92.470497 
L 348.047431 -92.167098 
L 350.252964 -91.866967 
L 352.458498 -92.358398 
L 354.664032 -92.178938 
L 356.869565 -92.224281 
L 359.075099 -91.996216 
L 361.280632 -92.663946 
L 363.486166 -93.602104 
L 365.6917 -91.932519 
L 367.897233 -92.856194 
L 370.102767 -92.444483 
L 372.3083 -92.643841 
L 374.513834 -95.085444 
L 376.719368 -107.370173 
L 378.924901 -100.951329 
L 381.130435 -94.91717 
L 383.335968 -94.872117 
L 385.541502 -93.838364 
L 387.747036 -93.604961 
L 389.952569 -93.769827 
L 392.158103 -93.688102 
L 394.363636 -93.236356 
L 396.56917 -93.428556 
L 398.774704 -93.574729 
L 400.980237 -93.427604 
L 403.185771 -93.709529 
L 405.391304 -93.972765 
L 407.596838 -93.182411 
L 409.802372 -93.507504 
L 412.007905 -93.657768 
L 414.213439 -93.68637 
L 416.418972 -93.036129 
L 418.624506 -93.752565 
L 420.83004 -92.555516 
L 423.035573 -92.988075 
L 425.241107 -92.669378 
L 427.44664 -93.381242 
L 429.652174 -92.705968 
L 431.857708 -92.826591 
L 434.063241 -93.063083 
L 436.268775 -93.250211 
L 438.474308 -93.620755 
L 440.679842 -93.250222 
L 442.885375 -92.887005 
L 445.090909 -92.646576 
L 447.296443 -92.400727 
L 449.501976 -92.735262 
L 451.70751 -92.516548 
L 453.913043 -92.996651 
L 456.118577 -93.344737 
L 458.324111 -92.789678 
L 460.529644 -92.857549 
L 462.735178 -92.467089 
L 464.940711 -93.066533 
L 467.146245 -92.953553 
L 469.351779 -92.734571 
L 471.557312 -93.039287 
L 473.762846 -92.620807 
L 475.968379 -92.346414 
L 478.173913 -92.469803 
L 480.379447 -92.803422 
L 482.58498 -93.096929 
L 484.790514 -93.036757 
L 486.996047 -92.842794 
L 489.201581 -93.229539 
L 491.407115 -92.55033 
L 493.612648 -92.735648 
L 495.818182 -92.746706 
L 498.023715 -93.883293 
L 500.229249 -93.734806 
L 502.434783 -93.493522 
L 504.640316 -93.024655 
L 506.84585 -93.414269 
L 509.051383 -92.654891 
L 511.256917 -93.39943 
L 513.462451 -92.869673 
L 515.667984 -93.112349 
L 517.873518 -93.152842 
L 520.079051 -93.64444 
L 522.284585 -93.41523 
L 524.490119 -93.578905 
L 526.695652 -94.159895 
L 528.901186 -93.293032 
L 531.106719 -93.825342 
L 533.312253 -93.511982 
L 535.517787 -93.912965 
L 537.72332 -93.659715 
L 539.928854 -93.91258 
L 542.134387 -93.742854 
L 544.339921 -93.504283 
L 546.545455 -94.234734 
L 548.750988 -93.777247 
L 550.956522 -93.707487 
L 553.162055 -94.035467 
L 555.367589 -94.466984 
L 557.573123 -95.768684 
L 559.778656 -94.116494 
L 561.98419 -95.17583 
L 564.189723 -97.911195 
L 566.395257 -99.431077 
L 568.600791 -97.4864 
L 570.806324 -97.580489 
L 573.011858 -97.276943 
L 575.217391 -96.995029 
L 577.422925 -97.084444 
L 579.628458 -96.839844 
L 581.833992 -96.703282 
L 584.039526 -96.707286 
L 586.245059 -96.940864 
L 588.450593 -96.742337 
L 590.656126 -96.864744 
L 592.86166 -96.629433 
L 595.067194 -96.320316 
L 597.272727 -95.413951 
L 599.478261 -96.181526 
L 601.683794 -96.125401 
L 603.889328 -95.762176 
L 606.094862 -95.950568 
L 608.300395 -95.898583 
L 610.505929 -95.96435 
L 612.711462 -95.58213 
L 614.916996 -96.088929 
L 617.12253 -96.235316 
L 619.328063 -95.743992 
L 621.533597 -95.540716 
L 623.73913 -95.51862 
L 625.944664 -95.553089 
L 628.150198 -94.937192 
L 630.355731 -95.206902 
L 632.561265 -95.823952 
L 634.766798 -95.484404 
L 636.972332 -95.433173 
L 639.177866 -95.305205 
L 641.383399 -95.047968 
L 643.588933 -95.568827 
L 645.794466 -95.890801 
L 648 -95.146942 
L 650.205534 -94.950202 
L 650.205534 -159.03453 
L 650.205534 -159.03453 
L 648 -159.907683 
L 645.794466 -160.753361 
L 643.588933 -160.101048 
L 641.383399 -159.786008 
L 639.177866 -159.457113 
L 636.972332 -159.244682 
L 634.766798 -159.694425 
L 632.561265 -159.834744 
L 630.355731 -158.597059 
L 628.150198 -158.800235 
L 625.944664 -159.694997 
L 623.73913 -159.83489 
L 621.533597 -160.412894 
L 619.328063 -160.236792 
L 617.12253 -160.742572 
L 614.916996 -160.364892 
L 612.711462 -160.287468 
L 610.505929 -161.082562 
L 608.300395 -160.966655 
L 606.094862 -161.083213 
L 603.889328 -161.408309 
L 601.683794 -160.985435 
L 599.478261 -160.974817 
L 597.272727 -160.012484 
L 595.067194 -161.863343 
L 592.86166 -162.257498 
L 590.656126 -163.403824 
L 588.450593 -163.346727 
L 586.245059 -162.787556 
L 584.039526 -163.001549 
L 581.833992 -163.603004 
L 579.628458 -162.742308 
L 577.422925 -163.360463 
L 575.217391 -163.343816 
L 573.011858 -163.368512 
L 570.806324 -165.83297 
L 568.600791 -165.051266 
L 566.395257 -171.228333 
L 564.189723 -168.442001 
L 561.98419 -158.376839 
L 559.778656 -156.920701 
L 557.573123 -159.543554 
L 555.367589 -156.546038 
L 553.162055 -156.028591 
L 550.956522 -155.317597 
L 548.750988 -155.626533 
L 546.545455 -156.706029 
L 544.339921 -155.957515 
L 542.134387 -156.378471 
L 539.928854 -155.971946 
L 537.72332 -156.057202 
L 535.517787 -156.467066 
L 533.312253 -155.613997 
L 531.106719 -155.460581 
L 528.901186 -154.868937 
L 526.695652 -156.202291 
L 524.490119 -156.15746 
L 522.284585 -155.385525 
L 520.079051 -156.023124 
L 517.873518 -154.832083 
L 515.667984 -154.228857 
L 513.462451 -155.015618 
L 511.256917 -155.579855 
L 509.051383 -153.961188 
L 506.84585 -155.519794 
L 504.640316 -154.198589 
L 502.434783 -154.792255 
L 500.229249 -155.31638 
L 498.023715 -156.331849 
L 495.818182 -153.348607 
L 493.612648 -154.663167 
L 491.407115 -154.143612 
L 489.201581 -155.004097 
L 486.996047 -154.650999 
L 484.790514 -154.737314 
L 482.58498 -154.813934 
L 480.379447 -153.752889 
L 478.173913 -153.675196 
L 475.968379 -153.318696 
L 473.762846 -154.493183 
L 471.557312 -154.583046 
L 469.351779 -155.184517 
L 467.146245 -154.861947 
L 464.940711 -155.056977 
L 462.735178 -154.218093 
L 460.529644 -154.723026 
L 458.324111 -154.063238 
L 456.118577 -155.355196 
L 453.913043 -154.497064 
L 451.70751 -153.67713 
L 449.501976 -153.809266 
L 447.296443 -154.232434 
L 445.090909 -153.786073 
L 442.885375 -154.600511 
L 440.679842 -155.405912 
L 438.474308 -155.799781 
L 436.268775 -154.459546 
L 434.063241 -154.484949 
L 431.857708 -154.004448 
L 429.652174 -153.611782 
L 427.44664 -154.466138 
L 425.241107 -154.034819 
L 423.035573 -155.332483 
L 420.83004 -154.027537 
L 418.624506 -156.443091 
L 416.418972 -154.209807 
L 414.213439 -155.469244 
L 412.007905 -155.984064 
L 409.802372 -155.002964 
L 407.596838 -155.307818 
L 405.391304 -156.430437 
L 403.185771 -156.123548 
L 400.980237 -156.083053 
L 398.774704 -156.046331 
L 396.56917 -155.415215 
L 394.363636 -155.227104 
L 392.158103 -155.109899 
L 389.952569 -156.178481 
L 387.747036 -154.817487 
L 385.541502 -155.865247 
L 383.335968 -157.336579 
L 381.130435 -157.771358 
L 378.924901 -172.611505 
L 376.719368 -180.472033 
L 374.513834 -157.567919 
L 372.3083 -153.314771 
L 370.102767 -153.138868 
L 367.897233 -153.816743 
L 365.6917 -152.659248 
L 363.486166 -156.456182 
L 361.280632 -153.290403 
L 359.075099 -152.086896 
L 356.869565 -153.266786 
L 354.664032 -152.883898 
L 352.458498 -153.002659 
L 350.252964 -153.107 
L 348.047431 -152.680217 
L 345.841897 -152.724773 
L 343.636364 -153.16521 
L 341.43083 -153.063238 
L 339.225296 -152.896633 
L 337.019763 -152.857382 
L 334.814229 -153.344158 
L 332.608696 -152.31149 
L 330.403162 -153.015991 
L 328.197628 -152.430274 
L 325.992095 -152.76436 
L 323.786561 -152.45668 
L 321.581028 -153.558476 
L 319.375494 -153.921948 
L 317.16996 -152.673227 
L 314.964427 -153.341584 
L 312.758893 -153.094349 
L 310.55336 -153.155526 
L 308.347826 -153.228871 
L 306.142292 -153.18468 
L 303.936759 -153.685814 
L 301.731225 -154.034866 
L 299.525692 -154.35924 
L 297.320158 -153.791719 
L 295.114625 -152.439143 
L 292.909091 -152.378633 
L 290.703557 -152.286438 
L 288.498024 -153.084844 
L 286.29249 -153.034218 
L 284.086957 -152.770441 
L 281.881423 -153.401193 
L 279.675889 -152.758766 
L 277.470356 -153.301969 
L 275.264822 -153.694124 
L 273.059289 -155.26246 
L 270.853755 -154.260027 
L 268.648221 -154.286722 
L 266.442688 -154.464898 
L 264.237154 -153.221323 
L 262.031621 -153.991878 
L 259.826087 -152.986371 
L 257.620553 -152.587753 
L 255.41502 -152.932502 
L 253.209486 -152.81235 
L 251.003953 -152.539996 
L 248.798419 -153.908285 
L 246.592885 -153.615245 
L 244.387352 -152.956889 
L 242.181818 -153.68031 
L 239.976285 -153.340272 
L 237.770751 -152.913626 
L 235.565217 -152.46842 
L 233.359684 -152.875904 
L 231.15415 -153.645829 
L 228.948617 -154.042703 
L 226.743083 -153.819051 
L 224.537549 -153.402455 
L 222.332016 -154.372852 
L 220.126482 -153.465179 
L 217.920949 -155.031347 
L 215.715415 -153.834688 
L 213.509881 -153.758836 
L 211.304348 -154.619577 
L 209.098814 -156.561518 
L 206.893281 -155.735349 
L 204.687747 -156.585426 
L 202.482213 -157.543902 
L 200.27668 -160.993864 
L 198.071146 -158.58675 
L 195.865613 -158.279583 
L 193.660079 -157.578854 
L 191.454545 -157.366572 
L 189.249012 -156.135579 
L 187.043478 -157.548651 
L 184.837945 -157.085136 
L 182.632411 -156.855759 
L 180.426877 -157.056032 
L 178.221344 -157.052191 
L 176.01581 -157.930657 
L 173.810277 -156.998593 
L 171.604743 -157.598318 
L 169.399209 -157.001198 
L 167.193676 -157.628655 
L 164.988142 -156.166351 
L 162.782609 -158.67175 
L 160.577075 -158.197454 
L 158.371542 -160.374706 
L 156.166008 -160.24395 
L 153.960474 -160.990622 
L 151.754941 -160.349909 
L 149.549407 -161.845065 
L 147.343874 -160.944441 
L 145.13834 -162.79421 
L 142.932806 -163.632999 
L 140.727273 -164.701017 
L 138.521739 -162.252353 
L 136.316206 -163.359487 
L 134.110672 -162.10077 
L 131.905138 -161.922784 
L 129.699605 -160.069418 
L 127.494071 -160.005485 
L 125.288538 -161.045804 
L 123.083004 -162.353986 
L 120.87747 -162.296555 
L 118.671937 -162.39076 
L 116.466403 -163.625981 
L 114.26087 -163.364037 
L 112.055336 -163.725951 
L 109.849802 -163.20401 
L 107.644269 -165.1237 
L 105.438735 -166.595184 
L 103.233202 -165.173967 
L 101.027668 -167.203713 
L 98.822134 -167.642142 
L 96.616601 -170.240505 
L 94.411067 -170.495688 
L 92.205534 -170.576654 
L 90 -178.203876 
z
" style="stroke: #0000ff; stroke-opacity: 0.2"/>
    </defs>
    <g clip-path="url(#p529e49cf38)">
     <use xlink:href="#m8c910d769d" x="0" y="432" style="fill: #0000ff; fill-opacity: 0.2; stroke: #0000ff; stroke-opacity: 0.2"/>
    </g>
   </g>
   <g id="matplotlib.axis_1">
    <g id="xtick_1">
     <g id="line2d_1">
      <defs>
       <path id="mb5970c0109" d="M 0 0 
L 0 3.5 
" style="stroke: #000000; stroke-width: 0.8"/>
      </defs>
      <g>
       <use xlink:href="#mb5970c0109" x="90" y="384.48" style="stroke: #000000; stroke-width: 0.8"/>
      </g>
     </g>
     <g id="text_1">
      <!-- 0 -->
      <g transform="translate(86.81875 399.078438) scale(0.1 -0.1)">
       <defs>
        <path id="DejaVuSans-30" d="M 2034 4250 
Q 1547 4250 1301 3770 
Q 1056 3291 1056 2328 
Q 1056 1369 1301 889 
Q 1547 409 2034 409 
Q 2525 409 2770 889 
Q 3016 1369 3016 2328 
Q 3016 3291 2770 3770 
Q 2525 4250 2034 4250 
z
M 2034 4750 
Q 2819 4750 3233 4129 
Q 3647 3509 3647 2328 
Q 3647 1150 3233 529 
Q 2819 -91 2034 -91 
Q 1250 -91 836 529 
Q 422 1150 422 2328 
Q 422 3509 836 4129 
Q 1250 4750 2034 4750 
z
" transform="scale(0.015625)"/>
       </defs>
       <use xlink:href="#DejaVuSans-30"/>
      </g>
     </g>
    </g>
    <g id="xtick_2">
     <g id="line2d_2">
      <g>
       <use xlink:href="#mb5970c0109" x="158.282773" y="384.48" style="stroke: #000000; stroke-width: 0.8"/>
      </g>
     </g>
     <g id="text_2">
      <!-- 50 -->
      <g transform="translate(151.920273 399.078438) scale(0.1 -0.1)">
       <defs>
        <path id="DejaVuSans-35" d="M 691 4666 
L 3169 4666 
L 3169 4134 
L 1269 4134 
L 1269 2991 
Q 1406 3038 1543 3061 
Q 1681 3084 1819 3084 
Q 2600 3084 3056 2656 
Q 3513 2228 3513 1497 
Q 3513 744 3044 326 
Q 2575 -91 1722 -91 
Q 1428 -91 1123 -41 
Q 819 9 494 109 
L 494 744 
Q 775 591 1075 516 
Q 1375 441 1709 441 
Q 2250 441 2565 725 
Q 2881 1009 2881 1497 
Q 2881 1984 2565 2268 
Q 2250 2553 1709 2553 
Q 1456 2553 1204 2497 
Q 953 2441 691 2322 
L 691 4666 
z
" transform="scale(0.015625)"/>
       </defs>
       <use xlink:href="#DejaVuSans-35"/>
       <use xlink:href="#DejaVuSans-30" x="63.623047"/>
      </g>
     </g>
    </g>
    <g id="xtick_3">
     <g id="line2d_3">
      <g>
       <use xlink:href="#mb5970c0109" x="226.565547" y="384.48" style="stroke: #000000; stroke-width: 0.8"/>
      </g>
     </g>
     <g id="text_3">
      <!-- 100 -->
      <g transform="translate(217.021797 399.078438) scale(0.1 -0.1)">
       <defs>
        <path id="DejaVuSans-31" d="M 794 531 
L 1825 531 
L 1825 4091 
L 703 3866 
L 703 4441 
L 1819 4666 
L 2450 4666 
L 2450 531 
L 3481 531 
L 3481 0 
L 794 0 
L 794 531 
z
" transform="scale(0.015625)"/>
       </defs>
       <use xlink:href="#DejaVuSans-31"/>
       <use xlink:href="#DejaVuSans-30" x="63.623047"/>
       <use xlink:href="#DejaVuSans-30" x="127.246094"/>
      </g>
     </g>
    </g>
    <g id="xtick_4">
     <g id="line2d_4">
      <g>
       <use xlink:href="#mb5970c0109" x="294.84832" y="384.48" style="stroke: #000000; stroke-width: 0.8"/>
      </g>
     </g>
     <g id="text_4">
      <!-- 150 -->
      <g transform="translate(285.30457 399.078438) scale(0.1 -0.1)">
       <use xlink:href="#DejaVuSans-31"/>
       <use xlink:href="#DejaVuSans-35" x="63.623047"/>
       <use xlink:href="#DejaVuSans-30" x="127.246094"/>
      </g>
     </g>
    </g>
    <g id="xtick_5">
     <g id="line2d_5">
      <g>
       <use xlink:href="#mb5970c0109" x="363.131094" y="384.48" style="stroke: #000000; stroke-width: 0.8"/>
      </g>
     </g>
     <g id="text_5">
      <!-- 200 -->
      <g transform="translate(353.587344 399.078438) scale(0.1 -0.1)">
       <defs>
        <path id="DejaVuSans-32" d="M 1228 531 
L 3431 531 
L 3431 0 
L 469 0 
L 469 531 
Q 828 903 1448 1529 
Q 2069 2156 2228 2338 
Q 2531 2678 2651 2914 
Q 2772 3150 2772 3378 
Q 2772 3750 2511 3984 
Q 2250 4219 1831 4219 
Q 1534 4219 1204 4116 
Q 875 4013 500 3803 
L 500 4441 
Q 881 4594 1212 4672 
Q 1544 4750 1819 4750 
Q 2544 4750 2975 4387 
Q 3406 4025 3406 3419 
Q 3406 3131 3298 2873 
Q 3191 2616 2906 2266 
Q 2828 2175 2409 1742 
Q 1991 1309 1228 531 
z
" transform="scale(0.015625)"/>
       </defs>
       <use xlink:href="#DejaVuSans-32"/>
       <use xlink:href="#DejaVuSans-30" x="63.623047"/>
       <use xlink:href="#DejaVuSans-30" x="127.246094"/>
      </g>
     </g>
    </g>
    <g id="xtick_6">
     <g id="line2d_6">
      <g>
       <use xlink:href="#mb5970c0109" x="431.413867" y="384.48" style="stroke: #000000; stroke-width: 0.8"/>
      </g>
     </g>
     <g id="text_6">
      <!-- 250 -->
      <g transform="translate(421.870117 399.078438) scale(0.1 -0.1)">
       <use xlink:href="#DejaVuSans-32"/>
       <use xlink:href="#DejaVuSans-35" x="63.623047"/>
       <use xlink:href="#DejaVuSans-30" x="127.246094"/>
      </g>
     </g>
    </g>
    <g id="xtick_7">
     <g id="line2d_7">
      <g>
       <use xlink:href="#mb5970c0109" x="499.696641" y="384.48" style="stroke: #000000; stroke-width: 0.8"/>
      </g>
     </g>
     <g id="text_7">
      <!-- 300 -->
      <g transform="translate(490.152891 399.078438) scale(0.1 -0.1)">
       <defs>
        <path id="DejaVuSans-33" d="M 2597 2516 
Q 3050 2419 3304 2112 
Q 3559 1806 3559 1356 
Q 3559 666 3084 287 
Q 2609 -91 1734 -91 
Q 1441 -91 1130 -33 
Q 819 25 488 141 
L 488 750 
Q 750 597 1062 519 
Q 1375 441 1716 441 
Q 2309 441 2620 675 
Q 2931 909 2931 1356 
Q 2931 1769 2642 2001 
Q 2353 2234 1838 2234 
L 1294 2234 
L 1294 2753 
L 1863 2753 
Q 2328 2753 2575 2939 
Q 2822 3125 2822 3475 
Q 2822 3834 2567 4026 
Q 2313 4219 1838 4219 
Q 1578 4219 1281 4162 
Q 984 4106 628 3988 
L 628 4550 
Q 988 4650 1302 4700 
Q 1616 4750 1894 4750 
Q 2613 4750 3031 4423 
Q 3450 4097 3450 3541 
Q 3450 3153 3228 2886 
Q 3006 2619 2597 2516 
z
" transform="scale(0.015625)"/>
       </defs>
       <use xlink:href="#DejaVuSans-33"/>
       <use xlink:href="#DejaVuSans-30" x="63.623047"/>
       <use xlink:href="#DejaVuSans-30" x="127.246094"/>
      </g>
     </g>
    </g>
    <g id="xtick_8">
     <g id="line2d_8">
      <g>
       <use xlink:href="#mb5970c0109" x="567.979414" y="384.48" style="stroke: #000000; stroke-width: 0.8"/>
      </g>
     </g>
     <g id="text_8">
      <!-- 350 -->
      <g transform="translate(558.435664 399.078438) scale(0.1 -0.1)">
       <use xlink:href="#DejaVuSans-33"/>
       <use xlink:href="#DejaVuSans-35" x="63.623047"/>
       <use xlink:href="#DejaVuSans-30" x="127.246094"/>
      </g>
     </g>
    </g>
    <g id="xtick_9">
     <g id="line2d_9">
      <g>
       <use xlink:href="#mb5970c0109" x="636.262188" y="384.48" style="stroke: #000000; stroke-width: 0.8"/>
      </g>
     </g>
     <g id="text_9">
      <!-- 400 -->
      <g transform="translate(626.718438 399.078438) scale(0.1 -0.1)">
       <defs>
        <path id="DejaVuSans-34" d="M 2419 4116 
L 825 1625 
L 2419 1625 
L 2419 4116 
z
M 2253 4666 
L 3047 4666 
L 3047 1625 
L 3713 1625 
L 3713 1100 
L 3047 1100 
L 3047 0 
L 2419 0 
L 2419 1100 
L 313 1100 
L 313 1709 
L 2253 4666 
z
" transform="scale(0.015625)"/>
       </defs>
       <use xlink:href="#DejaVuSans-34"/>
       <use xlink:href="#DejaVuSans-30" x="63.623047"/>
       <use xlink:href="#DejaVuSans-30" x="127.246094"/>
      </g>
     </g>
    </g>
    <g id="text_10">
     <!-- Time (s) -->
     <g transform="translate(336.47375 417.315625) scale(0.16 -0.16)">
      <defs>
       <path id="DejaVuSans-54" d="M -19 4666 
L 3928 4666 
L 3928 4134 
L 2272 4134 
L 2272 0 
L 1638 0 
L 1638 4134 
L -19 4134 
L -19 4666 
z
" transform="scale(0.015625)"/>
       <path id="DejaVuSans-69" d="M 603 3500 
L 1178 3500 
L 1178 0 
L 603 0 
L 603 3500 
z
M 603 4863 
L 1178 4863 
L 1178 4134 
L 603 4134 
L 603 4863 
z
" transform="scale(0.015625)"/>
       <path id="DejaVuSans-6d" d="M 3328 2828 
Q 3544 3216 3844 3400 
Q 4144 3584 4550 3584 
Q 5097 3584 5394 3201 
Q 5691 2819 5691 2113 
L 5691 0 
L 5113 0 
L 5113 2094 
Q 5113 2597 4934 2840 
Q 4756 3084 4391 3084 
Q 3944 3084 3684 2787 
Q 3425 2491 3425 1978 
L 3425 0 
L 2847 0 
L 2847 2094 
Q 2847 2600 2669 2842 
Q 2491 3084 2119 3084 
Q 1678 3084 1418 2786 
Q 1159 2488 1159 1978 
L 1159 0 
L 581 0 
L 581 3500 
L 1159 3500 
L 1159 2956 
Q 1356 3278 1631 3431 
Q 1906 3584 2284 3584 
Q 2666 3584 2933 3390 
Q 3200 3197 3328 2828 
z
" transform="scale(0.015625)"/>
       <path id="DejaVuSans-65" d="M 3597 1894 
L 3597 1613 
L 953 1613 
Q 991 1019 1311 708 
Q 1631 397 2203 397 
Q 2534 397 2845 478 
Q 3156 559 3463 722 
L 3463 178 
Q 3153 47 2828 -22 
Q 2503 -91 2169 -91 
Q 1331 -91 842 396 
Q 353 884 353 1716 
Q 353 2575 817 3079 
Q 1281 3584 2069 3584 
Q 2775 3584 3186 3129 
Q 3597 2675 3597 1894 
z
M 3022 2063 
Q 3016 2534 2758 2815 
Q 2500 3097 2075 3097 
Q 1594 3097 1305 2825 
Q 1016 2553 972 2059 
L 3022 2063 
z
" transform="scale(0.015625)"/>
       <path id="DejaVuSans-20" transform="scale(0.015625)"/>
       <path id="DejaVuSans-28" d="M 1984 4856 
Q 1566 4138 1362 3434 
Q 1159 2731 1159 2009 
Q 1159 1288 1364 580 
Q 1569 -128 1984 -844 
L 1484 -844 
Q 1016 -109 783 600 
Q 550 1309 550 2009 
Q 550 2706 781 3412 
Q 1013 4119 1484 4856 
L 1984 4856 
z
" transform="scale(0.015625)"/>
       <path id="DejaVuSans-73" d="M 2834 3397 
L 2834 2853 
Q 2591 2978 2328 3040 
Q 2066 3103 1784 3103 
Q 1356 3103 1142 2972 
Q 928 2841 928 2578 
Q 928 2378 1081 2264 
Q 1234 2150 1697 2047 
L 1894 2003 
Q 2506 1872 2764 1633 
Q 3022 1394 3022 966 
Q 3022 478 2636 193 
Q 2250 -91 1575 -91 
Q 1294 -91 989 -36 
Q 684 19 347 128 
L 347 722 
Q 666 556 975 473 
Q 1284 391 1588 391 
Q 1994 391 2212 530 
Q 2431 669 2431 922 
Q 2431 1156 2273 1281 
Q 2116 1406 1581 1522 
L 1381 1569 
Q 847 1681 609 1914 
Q 372 2147 372 2553 
Q 372 3047 722 3315 
Q 1072 3584 1716 3584 
Q 2034 3584 2315 3537 
Q 2597 3491 2834 3397 
z
" transform="scale(0.015625)"/>
       <path id="DejaVuSans-29" d="M 513 4856 
L 1013 4856 
Q 1481 4119 1714 3412 
Q 1947 2706 1947 2009 
Q 1947 1309 1714 600 
Q 1481 -109 1013 -844 
L 513 -844 
Q 928 -128 1133 580 
Q 1338 1288 1338 2009 
Q 1338 2731 1133 3434 
Q 928 4138 513 4856 
z
" transform="scale(0.015625)"/>
      </defs>
      <use xlink:href="#DejaVuSans-54"/>
      <use xlink:href="#DejaVuSans-69" x="57.958984"/>
      <use xlink:href="#DejaVuSans-6d" x="85.742188"/>
      <use xlink:href="#DejaVuSans-65" x="183.154297"/>
      <use xlink:href="#DejaVuSans-20" x="244.677734"/>
      <use xlink:href="#DejaVuSans-28" x="276.464844"/>
      <use xlink:href="#DejaVuSans-73" x="315.478516"/>
      <use xlink:href="#DejaVuSans-29" x="367.578125"/>
     </g>
    </g>
   </g>
   <g id="matplotlib.axis_2">
    <g id="ytick_1">
     <g id="line2d_10">
      <defs>
       <path id="mc5e86456aa" d="M 0 0 
L -3.5 0 
" style="stroke: #000000; stroke-width: 0.8"/>
      </defs>
      <g>
       <use xlink:href="#mc5e86456aa" x="90" y="317.02892" style="stroke: #000000; stroke-width: 0.8"/>
      </g>
     </g>
     <g id="text_11">
      <!-- 200 -->
      <g transform="translate(63.9125 320.828139) scale(0.1 -0.1)">
       <use xlink:href="#DejaVuSans-32"/>
       <use xlink:href="#DejaVuSans-30" x="63.623047"/>
       <use xlink:href="#DejaVuSans-30" x="127.246094"/>
      </g>
     </g>
    </g>
    <g id="ytick_2">
     <g id="line2d_11">
      <g>
       <use xlink:href="#mc5e86456aa" x="90" y="243.528606" style="stroke: #000000; stroke-width: 0.8"/>
      </g>
     </g>
     <g id="text_12">
      <!-- 400 -->
      <g transform="translate(63.9125 247.327825) scale(0.1 -0.1)">
       <use xlink:href="#DejaVuSans-34"/>
       <use xlink:href="#DejaVuSans-30" x="63.623047"/>
       <use xlink:href="#DejaVuSans-30" x="127.246094"/>
      </g>
     </g>
    </g>
    <g id="ytick_3">
     <g id="line2d_12">
      <g>
       <use xlink:href="#mc5e86456aa" x="90" y="170.028292" style="stroke: #000000; stroke-width: 0.8"/>
      </g>
     </g>
     <g id="text_13">
      <!-- 600 -->
      <g transform="translate(63.9125 173.827511) scale(0.1 -0.1)">
       <defs>
        <path id="DejaVuSans-36" d="M 2113 2584 
Q 1688 2584 1439 2293 
Q 1191 2003 1191 1497 
Q 1191 994 1439 701 
Q 1688 409 2113 409 
Q 2538 409 2786 701 
Q 3034 994 3034 1497 
Q 3034 2003 2786 2293 
Q 2538 2584 2113 2584 
z
M 3366 4563 
L 3366 3988 
Q 3128 4100 2886 4159 
Q 2644 4219 2406 4219 
Q 1781 4219 1451 3797 
Q 1122 3375 1075 2522 
Q 1259 2794 1537 2939 
Q 1816 3084 2150 3084 
Q 2853 3084 3261 2657 
Q 3669 2231 3669 1497 
Q 3669 778 3244 343 
Q 2819 -91 2113 -91 
Q 1303 -91 875 529 
Q 447 1150 447 2328 
Q 447 3434 972 4092 
Q 1497 4750 2381 4750 
Q 2619 4750 2861 4703 
Q 3103 4656 3366 4563 
z
" transform="scale(0.015625)"/>
       </defs>
       <use xlink:href="#DejaVuSans-36"/>
       <use xlink:href="#DejaVuSans-30" x="63.623047"/>
       <use xlink:href="#DejaVuSans-30" x="127.246094"/>
      </g>
     </g>
    </g>
    <g id="ytick_4">
     <g id="line2d_13">
      <g>
       <use xlink:href="#mc5e86456aa" x="90" y="96.527978" style="stroke: #000000; stroke-width: 0.8"/>
      </g>
     </g>
     <g id="text_14">
      <!-- 800 -->
      <g transform="translate(63.9125 100.327196) scale(0.1 -0.1)">
       <defs>
        <path id="DejaVuSans-38" d="M 2034 2216 
Q 1584 2216 1326 1975 
Q 1069 1734 1069 1313 
Q 1069 891 1326 650 
Q 1584 409 2034 409 
Q 2484 409 2743 651 
Q 3003 894 3003 1313 
Q 3003 1734 2745 1975 
Q 2488 2216 2034 2216 
z
M 1403 2484 
Q 997 2584 770 2862 
Q 544 3141 544 3541 
Q 544 4100 942 4425 
Q 1341 4750 2034 4750 
Q 2731 4750 3128 4425 
Q 3525 4100 3525 3541 
Q 3525 3141 3298 2862 
Q 3072 2584 2669 2484 
Q 3125 2378 3379 2068 
Q 3634 1759 3634 1313 
Q 3634 634 3220 271 
Q 2806 -91 2034 -91 
Q 1263 -91 848 271 
Q 434 634 434 1313 
Q 434 1759 690 2068 
Q 947 2378 1403 2484 
z
M 1172 3481 
Q 1172 3119 1398 2916 
Q 1625 2713 2034 2713 
Q 2441 2713 2670 2916 
Q 2900 3119 2900 3481 
Q 2900 3844 2670 4047 
Q 2441 4250 2034 4250 
Q 1625 4250 1398 4047 
Q 1172 3844 1172 3481 
z
" transform="scale(0.015625)"/>
       </defs>
       <use xlink:href="#DejaVuSans-38"/>
       <use xlink:href="#DejaVuSans-30" x="63.623047"/>
       <use xlink:href="#DejaVuSans-30" x="127.246094"/>
      </g>
     </g>
    </g>
    <g id="text_15">
     <!-- RMSE -->
     <g transform="translate(56.585 240.755) rotate(-90) scale(0.16 -0.16)">
      <defs>
       <path id="DejaVuSans-52" d="M 2841 2188 
Q 3044 2119 3236 1894 
Q 3428 1669 3622 1275 
L 4263 0 
L 3584 0 
L 2988 1197 
Q 2756 1666 2539 1819 
Q 2322 1972 1947 1972 
L 1259 1972 
L 1259 0 
L 628 0 
L 628 4666 
L 2053 4666 
Q 2853 4666 3247 4331 
Q 3641 3997 3641 3322 
Q 3641 2881 3436 2590 
Q 3231 2300 2841 2188 
z
M 1259 4147 
L 1259 2491 
L 2053 2491 
Q 2509 2491 2742 2702 
Q 2975 2913 2975 3322 
Q 2975 3731 2742 3939 
Q 2509 4147 2053 4147 
L 1259 4147 
z
" transform="scale(0.015625)"/>
       <path id="DejaVuSans-4d" d="M 628 4666 
L 1569 4666 
L 2759 1491 
L 3956 4666 
L 4897 4666 
L 4897 0 
L 4281 0 
L 4281 4097 
L 3078 897 
L 2444 897 
L 1241 4097 
L 1241 0 
L 628 0 
L 628 4666 
z
" transform="scale(0.015625)"/>
       <path id="DejaVuSans-53" d="M 3425 4513 
L 3425 3897 
Q 3066 4069 2747 4153 
Q 2428 4238 2131 4238 
Q 1616 4238 1336 4038 
Q 1056 3838 1056 3469 
Q 1056 3159 1242 3001 
Q 1428 2844 1947 2747 
L 2328 2669 
Q 3034 2534 3370 2195 
Q 3706 1856 3706 1288 
Q 3706 609 3251 259 
Q 2797 -91 1919 -91 
Q 1588 -91 1214 -16 
Q 841 59 441 206 
L 441 856 
Q 825 641 1194 531 
Q 1563 422 1919 422 
Q 2459 422 2753 634 
Q 3047 847 3047 1241 
Q 3047 1584 2836 1778 
Q 2625 1972 2144 2069 
L 1759 2144 
Q 1053 2284 737 2584 
Q 422 2884 422 3419 
Q 422 4038 858 4394 
Q 1294 4750 2059 4750 
Q 2388 4750 2728 4690 
Q 3069 4631 3425 4513 
z
" transform="scale(0.015625)"/>
       <path id="DejaVuSans-45" d="M 628 4666 
L 3578 4666 
L 3578 4134 
L 1259 4134 
L 1259 2753 
L 3481 2753 
L 3481 2222 
L 1259 2222 
L 1259 531 
L 3634 531 
L 3634 0 
L 628 0 
L 628 4666 
z
" transform="scale(0.015625)"/>
      </defs>
      <use xlink:href="#DejaVuSans-52"/>
      <use xlink:href="#DejaVuSans-4d" x="69.482422"/>
      <use xlink:href="#DejaVuSans-53" x="155.761719"/>
      <use xlink:href="#DejaVuSans-45" x="219.238281"/>
     </g>
    </g>
   </g>
   <g id="line2d_14">
    <path d="M 90 300.080268 
L 92.205534 305.420503 
L 94.411067 305.035677 
L 96.616601 304.998237 
L 101.027668 306.538375 
L 103.233202 307.804474 
L 105.438735 306.641351 
L 107.644269 307.449309 
L 109.849802 308.499386 
L 112.055336 308.333442 
L 114.26087 308.74733 
L 116.466403 308.453599 
L 120.87747 309.233015 
L 123.083004 309.157284 
L 127.494071 310.691122 
L 129.699605 310.349115 
L 131.905138 309.06838 
L 134.110672 309.017623 
L 136.316206 308.484494 
L 138.521739 308.896103 
L 140.727273 307.418641 
L 142.932806 308.279695 
L 145.13834 308.672431 
L 147.343874 310.072491 
L 149.549407 309.766205 
L 151.754941 310.279984 
L 153.960474 310.202139 
L 156.166008 310.276311 
L 158.371542 310.591799 
L 160.577075 311.985864 
L 162.782609 311.51048 
L 164.988142 313.442359 
L 167.193676 312.833701 
L 169.399209 312.923143 
L 171.604743 312.585589 
L 173.810277 312.838059 
L 176.01581 312.406644 
L 178.221344 312.647511 
L 180.426877 312.52275 
L 182.632411 313.077538 
L 184.837945 312.771087 
L 187.043478 312.755949 
L 189.249012 313.335985 
L 191.454545 312.510831 
L 193.660079 312.593002 
L 195.865613 311.962181 
L 198.071146 312.149346 
L 200.27668 310.349421 
L 202.482213 312.456272 
L 204.687747 313.56795 
L 209.098814 313.47492 
L 213.509881 315.227508 
L 215.715415 315.158641 
L 217.920949 314.363465 
L 220.126482 315.351905 
L 222.332016 314.939276 
L 224.537549 315.640984 
L 226.743083 315.495519 
L 228.948617 315.193992 
L 231.15415 315.452646 
L 233.359684 316.270558 
L 237.770751 315.822049 
L 239.976285 315.331959 
L 242.181818 315.378491 
L 244.387352 315.911942 
L 246.592885 315.649104 
L 248.798419 315.258777 
L 251.003953 316.252398 
L 253.209486 316.116248 
L 255.41502 316.20011 
L 257.620553 315.895038 
L 259.826087 315.733176 
L 262.031621 315.353024 
L 264.237154 315.809875 
L 266.442688 315.187647 
L 270.853755 315.002687 
L 273.059289 314.441212 
L 275.264822 314.679649 
L 277.470356 316.029699 
L 284.086957 315.933932 
L 286.29249 315.686027 
L 288.498024 315.905496 
L 290.703557 316.752772 
L 292.909091 316.574259 
L 295.114625 316.16567 
L 297.320158 315.01748 
L 299.525692 314.845194 
L 303.936759 315.249535 
L 306.142292 315.892887 
L 308.347826 315.812334 
L 312.758893 316.200401 
L 314.964427 316.34007 
L 317.16996 316.247948 
L 319.375494 314.856853 
L 321.581028 315.640087 
L 323.786561 316.26921 
L 325.992095 316.355974 
L 328.197628 316.701449 
L 330.403162 316.178111 
L 332.608696 316.18313 
L 334.814229 315.882897 
L 337.019763 316.180982 
L 339.225296 316.079397 
L 341.43083 315.704384 
L 345.841897 315.890524 
L 348.047431 316.510739 
L 350.252964 316.191572 
L 356.869565 316.05144 
L 359.075099 316.38462 
L 361.280632 315.732994 
L 363.486166 314.067977 
L 365.6917 316.149296 
L 367.897233 315.458212 
L 370.102767 316.035245 
L 372.3083 315.768583 
L 374.513834 312.335105 
L 376.719368 295.220453 
L 378.924901 303.128976 
L 381.130435 312.490977 
L 383.335968 312.706888 
L 385.541502 313.940468 
L 387.747036 314.50512 
L 389.952569 313.988273 
L 392.158103 314.029099 
L 394.363636 314.407707 
L 396.56917 314.303725 
L 398.774704 313.838577 
L 400.980237 314.358399 
L 403.185771 313.940698 
L 405.391304 313.640238 
L 407.596838 314.899835 
L 409.802372 314.249297 
L 412.007905 313.786 
L 414.213439 314.107429 
L 416.418972 314.915371 
L 418.624506 313.898254 
L 420.83004 315.604358 
L 423.035573 314.824384 
L 425.241107 315.603441 
L 427.44664 314.936725 
L 429.652174 315.669468 
L 431.857708 315.511964 
L 434.063241 315.046904 
L 436.268775 315.012394 
L 438.474308 313.931765 
L 440.679842 314.266913 
L 442.885375 315.05732 
L 445.090909 315.555162 
L 447.296443 315.319252 
L 451.70751 315.518643 
L 453.913043 314.871385 
L 456.118577 314.649334 
L 458.324111 315.425679 
L 460.529644 314.999211 
L 462.735178 315.571853 
L 464.940711 314.97611 
L 467.146245 314.916543 
L 469.351779 315.100255 
L 471.557312 314.868887 
L 473.762846 315.182227 
L 475.968379 315.803591 
L 478.173913 315.668666 
L 480.379447 315.713247 
L 482.58498 314.920051 
L 484.790514 314.992364 
L 486.996047 315.21774 
L 489.201581 314.741159 
L 491.407115 315.405475 
L 493.612648 314.952449 
L 495.818182 315.502336 
L 498.023715 313.77864 
L 500.229249 314.499333 
L 502.434783 314.332318 
L 504.640316 314.887796 
L 506.84585 314.359624 
L 509.051383 315.799537 
L 511.256917 314.12234 
L 513.462451 314.885561 
L 515.667984 315.094529 
L 517.873518 314.79329 
L 520.079051 314.098443 
L 524.490119 314.029049 
L 526.695652 313.470448 
L 528.901186 314.639686 
L 531.106719 313.923794 
L 533.312253 314.291895 
L 535.517787 313.470036 
L 537.72332 314.004479 
L 542.134387 313.529597 
L 544.339921 314.214675 
L 546.545455 313.585418 
L 548.750988 314.062252 
L 550.956522 314.192124 
L 553.162055 313.659091 
L 555.367589 313.004319 
L 557.573123 311.342832 
L 559.778656 313.286377 
L 561.98419 312.073719 
L 564.189723 306.965918 
L 566.395257 305.040536 
L 568.600791 307.766289 
L 570.806324 307.918999 
L 573.011858 309.160906 
L 575.217391 309.210758 
L 577.422925 309.000786 
L 579.628458 309.36999 
L 581.833992 309.15125 
L 584.039526 309.349068 
L 588.450593 309.399903 
L 590.656126 309.127945 
L 592.86166 309.817745 
L 595.067194 310.274752 
L 597.272727 311.347475 
L 599.478261 310.397304 
L 601.683794 310.357869 
L 603.889328 310.614109 
L 606.094862 310.756198 
L 608.300395 310.65198 
L 612.711462 311.021509 
L 614.916996 310.418633 
L 617.12253 310.350758 
L 619.328063 311.081962 
L 623.73913 311.237832 
L 625.944664 311.126649 
L 628.150198 311.952126 
L 630.355731 311.93608 
L 632.561265 311.147902 
L 634.766798 311.328008 
L 636.972332 311.868031 
L 639.177866 311.928487 
L 641.383399 311.669546 
L 645.794466 310.671986 
L 648 311.715209 
L 650.205534 312.034547 
L 650.205534 312.034547 
" clip-path="url(#p529e49cf38)" style="fill: none; stroke: #000000; stroke-width: 1.5; stroke-linecap: square"/>
   </g>
   <g id="line2d_15">
    <path d="M 90 365.28101 
L 92.205534 367.208967 
L 94.411067 366.113539 
L 96.616601 366.452477 
L 98.822134 366.094182 
L 101.027668 366.586516 
L 103.233202 366.563292 
L 105.438735 366.380616 
L 107.644269 366.551518 
L 109.849802 366.891834 
L 112.055336 366.94857 
L 114.26087 366.747041 
L 118.671937 366.820666 
L 120.87747 367.02503 
L 123.083004 366.780625 
L 125.288538 366.834115 
L 127.494071 367.032764 
L 129.699605 367.374576 
L 131.905138 367.001276 
L 134.110672 367.062349 
L 136.316206 366.49119 
L 138.521739 366.731304 
L 140.727273 366.336089 
L 145.13834 366.942696 
L 147.343874 367.020333 
L 149.549407 366.823065 
L 151.754941 367.363149 
L 153.960474 367.072709 
L 156.166008 367.483603 
L 158.371542 367.098307 
L 160.577075 367.86284 
L 162.782609 367.876077 
L 164.988142 368.317077 
L 167.193676 368.164143 
L 169.399209 368.156115 
L 171.604743 367.63073 
L 173.810277 367.835867 
L 178.221344 367.877991 
L 180.426877 367.651174 
L 182.632411 368.240645 
L 187.043478 367.785589 
L 189.249012 368.101098 
L 191.454545 367.80446 
L 193.660079 367.930452 
L 195.865613 367.725754 
L 198.071146 367.657704 
L 200.27668 367.451527 
L 202.482213 367.983415 
L 206.893281 368.358871 
L 209.098814 368.115675 
L 211.304348 368.667734 
L 215.715415 368.659276 
L 217.920949 368.103269 
L 220.126482 368.795206 
L 222.332016 368.761777 
L 224.537549 369.07197 
L 228.948617 368.38262 
L 231.15415 368.851624 
L 233.359684 368.801291 
L 235.565217 368.979925 
L 237.770751 368.72714 
L 239.976285 368.76309 
L 242.181818 368.576572 
L 244.387352 368.928944 
L 248.798419 368.472629 
L 251.003953 369.041069 
L 253.209486 369.157382 
L 255.41502 368.868742 
L 257.620553 368.92846 
L 259.826087 368.616331 
L 262.031621 368.991251 
L 264.237154 368.977841 
L 266.442688 368.475933 
L 268.648221 368.856667 
L 275.264822 368.401312 
L 277.470356 369.331692 
L 279.675889 369.247365 
L 281.881423 368.910205 
L 284.086957 369.061875 
L 288.498024 368.945745 
L 290.703557 369.273256 
L 292.909091 369.193376 
L 295.114625 369.275619 
L 297.320158 368.608537 
L 299.525692 368.818648 
L 301.731225 368.449541 
L 303.936759 368.67048 
L 306.142292 369.037787 
L 308.347826 368.86537 
L 310.55336 369.190018 
L 312.758893 368.98796 
L 314.964427 368.99711 
L 317.16996 369.223504 
L 319.375494 368.693799 
L 321.581028 369.122503 
L 323.786561 368.988181 
L 325.992095 369.134259 
L 328.197628 368.979083 
L 330.403162 368.959851 
L 332.608696 369.102975 
L 334.814229 368.378851 
L 337.019763 369.198625 
L 339.225296 368.73372 
L 341.43083 368.75082 
L 343.636364 368.985199 
L 348.047431 368.920616 
L 350.252964 369.36 
L 352.458498 368.917656 
L 354.664032 369.101538 
L 356.869565 368.794792 
L 359.075099 369.0971 
L 361.280632 368.691291 
L 363.486166 368.604923 
L 365.6917 369.091665 
L 367.897233 368.596715 
L 370.102767 368.906685 
L 372.3083 368.696465 
L 374.513834 367.858666 
L 376.719368 362.6291 
L 378.924901 365.458984 
L 381.130435 367.616254 
L 385.541502 368.165004 
L 387.747036 368.631056 
L 389.952569 368.416569 
L 392.158103 368.718312 
L 396.56917 368.736078 
L 398.774704 368.39091 
L 403.185771 368.270916 
L 405.391304 368.178744 
L 407.596838 368.695639 
L 409.802372 368.483014 
L 412.007905 368.535854 
L 414.213439 368.128131 
L 416.418972 369.052205 
L 418.624506 368.512652 
L 420.83004 368.873239 
L 423.035573 368.789885 
L 425.241107 368.835712 
L 427.44664 368.612877 
L 429.652174 369.195753 
L 431.857708 368.558195 
L 434.063241 369.040638 
L 436.268775 368.572912 
L 438.474308 368.325304 
L 440.679842 368.500822 
L 442.885375 368.874828 
L 447.296443 368.435154 
L 451.70751 369.004807 
L 453.913043 368.766526 
L 456.118577 368.344862 
L 458.324111 368.838321 
L 460.529644 368.839047 
L 462.735178 368.708924 
L 467.146245 368.86751 
L 469.351779 369.157069 
L 471.557312 368.648907 
L 473.762846 368.811155 
L 475.968379 369.088544 
L 478.173913 369.091655 
L 480.379447 368.838661 
L 482.58498 368.999655 
L 484.790514 368.572683 
L 486.996047 369.154007 
L 489.201581 368.338219 
L 491.407115 368.967461 
L 493.612648 368.629023 
L 495.818182 369.264316 
L 498.023715 368.222022 
L 500.229249 368.62521 
L 502.434783 368.47738 
L 504.640316 369.074317 
L 506.84585 368.391021 
L 509.051383 369.186277 
L 511.256917 368.571929 
L 513.462451 368.814019 
L 515.667984 368.758193 
L 517.873518 368.506649 
L 522.284585 368.538037 
L 526.695652 368.331079 
L 528.901186 368.633988 
L 531.106719 368.331804 
L 533.312253 368.502572 
L 535.517787 368.49906 
L 537.72332 368.21307 
L 544.339921 368.232456 
L 550.956522 368.410682 
L 553.162055 368.388583 
L 557.573123 367.312106 
L 559.778656 367.750481 
L 561.98419 367.852584 
L 564.189723 366.440988 
L 566.395257 365.997517 
L 568.600791 366.856521 
L 573.011858 367.009316 
L 577.422925 366.887225 
L 579.628458 367.145827 
L 581.833992 366.906331 
L 584.039526 367.143098 
L 586.245059 367.10838 
L 588.450593 367.293522 
L 590.656126 367.358842 
L 592.86166 367.186 
L 595.067194 367.274901 
L 597.272727 367.612023 
L 601.683794 367.403382 
L 603.889328 367.408689 
L 606.094862 367.604618 
L 608.300395 367.215718 
L 612.711462 367.266617 
L 614.916996 366.976826 
L 617.12253 367.617529 
L 621.533597 367.440768 
L 625.944664 367.514898 
L 628.150198 367.982395 
L 630.355731 368.089571 
L 632.561265 367.398099 
L 634.766798 367.849983 
L 643.588933 367.495791 
L 645.794466 367.104246 
L 648 367.864674 
L 650.205534 367.614248 
L 650.205534 367.614248 
" clip-path="url(#p529e49cf38)" style="fill: none; stroke-dasharray: 5.55,2.4; stroke-dashoffset: 0; stroke: #000000; stroke-width: 1.5"/>
   </g>
   <g id="line2d_16">
    <path d="M 90 66.96 
L 92.205534 91.072044 
L 94.411067 92.664629 
L 96.616601 92.78254 
L 98.822134 103.568852 
L 101.027668 102.912366 
L 103.233202 114.030071 
L 105.438735 109.39224 
L 107.644269 112.037765 
L 109.849802 117.934723 
L 112.055336 119.048601 
L 114.26087 117.971172 
L 116.466403 117.813613 
L 118.671937 119.584804 
L 120.87747 119.341527 
L 123.083004 118.465394 
L 125.288538 120.92109 
L 127.494071 121.583938 
L 129.699605 125.807286 
L 131.905138 121.052194 
L 134.110672 122.511846 
L 136.316206 116.1267 
L 138.521739 120.537691 
L 140.727273 115.013122 
L 142.932806 117.746316 
L 145.13834 116.980782 
L 147.343874 125.92197 
L 149.549407 120.146595 
L 151.754941 124.641508 
L 153.960474 122.4591 
L 156.166008 123.351929 
L 158.371542 124.114419 
L 160.577075 129.943315 
L 162.782609 127.176475 
L 164.988142 132.589609 
L 167.193676 129.454042 
L 169.399209 133.114379 
L 171.604743 130.680427 
L 173.810277 129.626219 
L 176.01581 129.287616 
L 178.221344 130.627332 
L 180.426877 128.522048 
L 182.632411 129.349792 
L 184.837945 131.37726 
L 187.043478 126.700633 
L 189.249012 131.128818 
L 191.454545 128.067246 
L 193.660079 128.710092 
L 195.865613 126.386186 
L 198.071146 122.88655 
L 200.27668 121.241258 
L 202.482213 127.849678 
L 204.687747 130.365364 
L 206.893281 130.233386 
L 209.098814 130.346508 
L 211.304348 133.574384 
L 213.509881 133.10848 
L 215.715415 134.804981 
L 217.920949 128.938914 
L 220.126482 131.925204 
L 222.332016 134.002116 
L 224.537549 133.519247 
L 226.743083 132.022589 
L 228.948617 133.642475 
L 231.15415 132.797451 
L 233.359684 131.030323 
L 235.565217 137.447602 
L 237.770751 134.77423 
L 239.976285 132.764941 
L 242.181818 130.998332 
L 244.387352 134.791652 
L 246.592885 134.864274 
L 248.798419 132.953394 
L 251.003953 134.552666 
L 253.209486 134.251572 
L 255.41502 135.576333 
L 257.620553 134.576722 
L 259.826087 134.432309 
L 262.031621 133.037342 
L 264.237154 133.11683 
L 266.442688 129.426374 
L 268.648221 132.716089 
L 273.059289 132.543639 
L 275.264822 133.193043 
L 277.470356 135.412432 
L 279.675889 134.010375 
L 281.881423 131.704863 
L 284.086957 135.283199 
L 286.29249 134.403288 
L 288.498024 136.870824 
L 290.703557 133.969196 
L 292.909091 136.696391 
L 295.114625 138.063957 
L 297.320158 134.578508 
L 299.525692 133.464027 
L 301.731225 134.755182 
L 303.936759 136.539145 
L 306.142292 132.667786 
L 308.347826 135.292606 
L 310.55336 133.677032 
L 312.758893 134.793897 
L 314.964427 133.20228 
L 317.16996 136.762695 
L 319.375494 132.649134 
L 321.581028 130.950249 
L 323.786561 138.131276 
L 325.992095 136.09951 
L 328.197628 134.713856 
L 330.403162 135.949375 
L 332.608696 138.467767 
L 334.814229 135.132478 
L 337.019763 135.549906 
L 339.225296 133.50921 
L 341.43083 136.278693 
L 343.636364 135.229224 
L 345.841897 135.051014 
L 348.047431 135.123502 
L 350.252964 132.899175 
L 352.458498 133.166914 
L 354.664032 134.070894 
L 356.869565 134.796283 
L 359.075099 136.689639 
L 361.280632 135.841862 
L 363.486166 125.083387 
L 365.6917 133.472961 
L 367.897233 135.935768 
L 370.102767 134.63334 
L 372.3083 135.615951 
L 374.513834 123.700772 
L 376.719368 89.995867 
L 378.924901 82.732241 
L 381.130435 128.131985 
L 383.335968 126.833927 
L 385.541502 129.569093 
L 387.747036 131.1559 
L 389.952569 128.380187 
L 392.158103 133.311382 
L 394.363636 127.002908 
L 396.56917 132.605931 
L 398.774704 128.444677 
L 400.980237 130.108635 
L 403.185771 130.693335 
L 405.391304 130.531881 
L 407.596838 131.341885 
L 409.802372 130.391422 
L 412.007905 131.213366 
L 414.213439 131.336575 
L 416.418972 130.828183 
L 418.624506 130.618468 
L 420.83004 131.642836 
L 423.035573 129.418361 
L 425.241107 132.290639 
L 427.44664 131.232412 
L 429.652174 128.825388 
L 431.857708 127.376723 
L 434.063241 129.53734 
L 436.268775 131.485238 
L 438.474308 128.419135 
L 440.679842 129.337698 
L 442.885375 133.239844 
L 445.090909 133.945559 
L 447.296443 131.418531 
L 449.501976 131.03611 
L 451.70751 133.082167 
L 453.913043 129.732691 
L 456.118577 129.333951 
L 458.324111 129.27322 
L 460.529644 129.388143 
L 462.735178 134.496152 
L 464.940711 130.945869 
L 467.146245 131.150386 
L 469.351779 130.21075 
L 471.557312 131.942751 
L 473.762846 131.482291 
L 475.968379 131.611189 
L 478.173913 131.531203 
L 480.379447 134.073515 
L 482.58498 131.890336 
L 484.790514 128.882189 
L 486.996047 132.56973 
L 489.201581 128.064052 
L 491.407115 130.673 
L 493.612648 131.663716 
L 495.818182 132.208161 
L 498.023715 128.475726 
L 500.229249 132.552714 
L 502.434783 132.381456 
L 504.640316 129.343391 
L 506.84585 129.913489 
L 509.051383 131.143755 
L 511.256917 129.946427 
L 513.462451 131.034868 
L 515.667984 132.521962 
L 517.873518 131.299456 
L 520.079051 129.046595 
L 522.284585 129.387387 
L 524.490119 128.835504 
L 526.695652 130.759421 
L 528.901186 128.249509 
L 531.106719 130.521105 
L 533.312253 130.35725 
L 535.517787 127.923312 
L 537.72332 134.394396 
L 539.928854 129.757076 
L 542.134387 132.815494 
L 546.545455 128.253363 
L 548.750988 132.276783 
L 550.956522 130.681529 
L 555.367589 128.615511 
L 557.573123 126.06792 
L 559.778656 129.706283 
L 561.98419 124.94799 
L 564.189723 82.913354 
L 566.395257 82.4072 
L 568.600791 109.934386 
L 570.806324 105.443071 
L 573.011858 117.571987 
L 575.217391 112.349269 
L 577.422925 116.612127 
L 579.628458 114.583918 
L 581.833992 113.23133 
L 584.039526 114.757961 
L 586.245059 115.965195 
L 588.450593 115.181769 
L 590.656126 115.992918 
L 592.86166 113.275837 
L 595.067194 119.24213 
L 597.272727 119.057176 
L 599.478261 117.842171 
L 601.683794 119.679052 
L 603.889328 119.429924 
L 606.094862 121.217337 
L 608.300395 121.208715 
L 610.505929 122.103221 
L 612.711462 118.512651 
L 614.916996 121.599211 
L 617.12253 120.456452 
L 619.328063 123.214697 
L 621.533597 123.092475 
L 625.944664 121.366329 
L 628.150198 126.164973 
L 630.355731 125.74057 
L 632.561265 123.178748 
L 634.766798 123.076087 
L 636.972332 125.891513 
L 639.177866 122.08985 
L 641.383399 123.319943 
L 643.588933 125.02477 
L 645.794466 122.188771 
L 648 121.334641 
L 650.205534 122.977031 
L 650.205534 122.977031 
" clip-path="url(#p529e49cf38)" style="fill: none; stroke-dasharray: 5.55,2.4; stroke-dashoffset: 0; stroke: #000000; stroke-width: 1.5"/>
   </g>
   <g id="patch_3">
    <path d="M 90 384.48 
L 90 51.84 
" style="fill: none; stroke: #000000; stroke-width: 0.8; stroke-linejoin: miter; stroke-linecap: square"/>
   </g>
   <g id="patch_4">
    <path d="M 648 384.48 
L 648 51.84 
" style="fill: none; stroke: #000000; stroke-width: 0.8; stroke-linejoin: miter; stroke-linecap: square"/>
   </g>
   <g id="patch_5">
    <path d="M 90 384.48 
L 648 384.48 
" style="fill: none; stroke: #000000; stroke-width: 0.8; stroke-linejoin: miter; stroke-linecap: square"/>
   </g>
   <g id="patch_6">
    <path d="M 90 51.84 
L 648 51.84 
" style="fill: none; stroke: #000000; stroke-width: 0.8; stroke-linejoin: miter; stroke-linecap: square"/>
   </g>
   <g id="text_16">
    <!-- Root mean squared error of T2* and S0 fit across voxels -->
    <g transform="translate(89.2125 45.84) scale(0.2 -0.2)">
     <defs>
      <path id="DejaVuSans-6f" d="M 1959 3097 
Q 1497 3097 1228 2736 
Q 959 2375 959 1747 
Q 959 1119 1226 758 
Q 1494 397 1959 397 
Q 2419 397 2687 759 
Q 2956 1122 2956 1747 
Q 2956 2369 2687 2733 
Q 2419 3097 1959 3097 
z
M 1959 3584 
Q 2709 3584 3137 3096 
Q 3566 2609 3566 1747 
Q 3566 888 3137 398 
Q 2709 -91 1959 -91 
Q 1206 -91 779 398 
Q 353 888 353 1747 
Q 353 2609 779 3096 
Q 1206 3584 1959 3584 
z
" transform="scale(0.015625)"/>
      <path id="DejaVuSans-74" d="M 1172 4494 
L 1172 3500 
L 2356 3500 
L 2356 3053 
L 1172 3053 
L 1172 1153 
Q 1172 725 1289 603 
Q 1406 481 1766 481 
L 2356 481 
L 2356 0 
L 1766 0 
Q 1100 0 847 248 
Q 594 497 594 1153 
L 594 3053 
L 172 3053 
L 172 3500 
L 594 3500 
L 594 4494 
L 1172 4494 
z
" transform="scale(0.015625)"/>
      <path id="DejaVuSans-61" d="M 2194 1759 
Q 1497 1759 1228 1600 
Q 959 1441 959 1056 
Q 959 750 1161 570 
Q 1363 391 1709 391 
Q 2188 391 2477 730 
Q 2766 1069 2766 1631 
L 2766 1759 
L 2194 1759 
z
M 3341 1997 
L 3341 0 
L 2766 0 
L 2766 531 
Q 2569 213 2275 61 
Q 1981 -91 1556 -91 
Q 1019 -91 701 211 
Q 384 513 384 1019 
Q 384 1609 779 1909 
Q 1175 2209 1959 2209 
L 2766 2209 
L 2766 2266 
Q 2766 2663 2505 2880 
Q 2244 3097 1772 3097 
Q 1472 3097 1187 3025 
Q 903 2953 641 2809 
L 641 3341 
Q 956 3463 1253 3523 
Q 1550 3584 1831 3584 
Q 2591 3584 2966 3190 
Q 3341 2797 3341 1997 
z
" transform="scale(0.015625)"/>
      <path id="DejaVuSans-6e" d="M 3513 2113 
L 3513 0 
L 2938 0 
L 2938 2094 
Q 2938 2591 2744 2837 
Q 2550 3084 2163 3084 
Q 1697 3084 1428 2787 
Q 1159 2491 1159 1978 
L 1159 0 
L 581 0 
L 581 3500 
L 1159 3500 
L 1159 2956 
Q 1366 3272 1645 3428 
Q 1925 3584 2291 3584 
Q 2894 3584 3203 3211 
Q 3513 2838 3513 2113 
z
" transform="scale(0.015625)"/>
      <path id="DejaVuSans-71" d="M 947 1747 
Q 947 1113 1208 752 
Q 1469 391 1925 391 
Q 2381 391 2643 752 
Q 2906 1113 2906 1747 
Q 2906 2381 2643 2742 
Q 2381 3103 1925 3103 
Q 1469 3103 1208 2742 
Q 947 2381 947 1747 
z
M 2906 525 
Q 2725 213 2448 61 
Q 2172 -91 1784 -91 
Q 1150 -91 751 415 
Q 353 922 353 1747 
Q 353 2572 751 3078 
Q 1150 3584 1784 3584 
Q 2172 3584 2448 3432 
Q 2725 3281 2906 2969 
L 2906 3500 
L 3481 3500 
L 3481 -1331 
L 2906 -1331 
L 2906 525 
z
" transform="scale(0.015625)"/>
      <path id="DejaVuSans-75" d="M 544 1381 
L 544 3500 
L 1119 3500 
L 1119 1403 
Q 1119 906 1312 657 
Q 1506 409 1894 409 
Q 2359 409 2629 706 
Q 2900 1003 2900 1516 
L 2900 3500 
L 3475 3500 
L 3475 0 
L 2900 0 
L 2900 538 
Q 2691 219 2414 64 
Q 2138 -91 1772 -91 
Q 1169 -91 856 284 
Q 544 659 544 1381 
z
M 1991 3584 
L 1991 3584 
z
" transform="scale(0.015625)"/>
      <path id="DejaVuSans-72" d="M 2631 2963 
Q 2534 3019 2420 3045 
Q 2306 3072 2169 3072 
Q 1681 3072 1420 2755 
Q 1159 2438 1159 1844 
L 1159 0 
L 581 0 
L 581 3500 
L 1159 3500 
L 1159 2956 
Q 1341 3275 1631 3429 
Q 1922 3584 2338 3584 
Q 2397 3584 2469 3576 
Q 2541 3569 2628 3553 
L 2631 2963 
z
" transform="scale(0.015625)"/>
      <path id="DejaVuSans-64" d="M 2906 2969 
L 2906 4863 
L 3481 4863 
L 3481 0 
L 2906 0 
L 2906 525 
Q 2725 213 2448 61 
Q 2172 -91 1784 -91 
Q 1150 -91 751 415 
Q 353 922 353 1747 
Q 353 2572 751 3078 
Q 1150 3584 1784 3584 
Q 2172 3584 2448 3432 
Q 2725 3281 2906 2969 
z
M 947 1747 
Q 947 1113 1208 752 
Q 1469 391 1925 391 
Q 2381 391 2643 752 
Q 2906 1113 2906 1747 
Q 2906 2381 2643 2742 
Q 2381 3103 1925 3103 
Q 1469 3103 1208 2742 
Q 947 2381 947 1747 
z
" transform="scale(0.015625)"/>
      <path id="DejaVuSans-66" d="M 2375 4863 
L 2375 4384 
L 1825 4384 
Q 1516 4384 1395 4259 
Q 1275 4134 1275 3809 
L 1275 3500 
L 2222 3500 
L 2222 3053 
L 1275 3053 
L 1275 0 
L 697 0 
L 697 3053 
L 147 3053 
L 147 3500 
L 697 3500 
L 697 3744 
Q 697 4328 969 4595 
Q 1241 4863 1831 4863 
L 2375 4863 
z
" transform="scale(0.015625)"/>
      <path id="DejaVuSans-2a" d="M 3009 3897 
L 1888 3291 
L 3009 2681 
L 2828 2375 
L 1778 3009 
L 1778 1831 
L 1422 1831 
L 1422 3009 
L 372 2375 
L 191 2681 
L 1313 3291 
L 191 3897 
L 372 4206 
L 1422 3572 
L 1422 4750 
L 1778 4750 
L 1778 3572 
L 2828 4206 
L 3009 3897 
z
" transform="scale(0.015625)"/>
      <path id="DejaVuSans-63" d="M 3122 3366 
L 3122 2828 
Q 2878 2963 2633 3030 
Q 2388 3097 2138 3097 
Q 1578 3097 1268 2742 
Q 959 2388 959 1747 
Q 959 1106 1268 751 
Q 1578 397 2138 397 
Q 2388 397 2633 464 
Q 2878 531 3122 666 
L 3122 134 
Q 2881 22 2623 -34 
Q 2366 -91 2075 -91 
Q 1284 -91 818 406 
Q 353 903 353 1747 
Q 353 2603 823 3093 
Q 1294 3584 2113 3584 
Q 2378 3584 2631 3529 
Q 2884 3475 3122 3366 
z
" transform="scale(0.015625)"/>
      <path id="DejaVuSans-76" d="M 191 3500 
L 800 3500 
L 1894 563 
L 2988 3500 
L 3597 3500 
L 2284 0 
L 1503 0 
L 191 3500 
z
" transform="scale(0.015625)"/>
      <path id="DejaVuSans-78" d="M 3513 3500 
L 2247 1797 
L 3578 0 
L 2900 0 
L 1881 1375 
L 863 0 
L 184 0 
L 1544 1831 
L 300 3500 
L 978 3500 
L 1906 2253 
L 2834 3500 
L 3513 3500 
z
" transform="scale(0.015625)"/>
      <path id="DejaVuSans-6c" d="M 603 4863 
L 1178 4863 
L 1178 0 
L 603 0 
L 603 4863 
z
" transform="scale(0.015625)"/>
     </defs>
     <use xlink:href="#DejaVuSans-52"/>
     <use xlink:href="#DejaVuSans-6f" x="64.982422"/>
     <use xlink:href="#DejaVuSans-6f" x="126.164062"/>
     <use xlink:href="#DejaVuSans-74" x="187.345703"/>
     <use xlink:href="#DejaVuSans-20" x="226.554688"/>
     <use xlink:href="#DejaVuSans-6d" x="258.341797"/>
     <use xlink:href="#DejaVuSans-65" x="355.753906"/>
     <use xlink:href="#DejaVuSans-61" x="417.277344"/>
     <use xlink:href="#DejaVuSans-6e" x="478.556641"/>
     <use xlink:href="#DejaVuSans-20" x="541.935547"/>
     <use xlink:href="#DejaVuSans-73" x="573.722656"/>
     <use xlink:href="#DejaVuSans-71" x="625.822266"/>
     <use xlink:href="#DejaVuSans-75" x="689.298828"/>
     <use xlink:href="#DejaVuSans-61" x="752.677734"/>
     <use xlink:href="#DejaVuSans-72" x="813.957031"/>
     <use xlink:href="#DejaVuSans-65" x="852.820312"/>
     <use xlink:href="#DejaVuSans-64" x="914.34375"/>
     <use xlink:href="#DejaVuSans-20" x="977.820312"/>
     <use xlink:href="#DejaVuSans-65" x="1009.607422"/>
     <use xlink:href="#DejaVuSans-72" x="1071.130859"/>
     <use xlink:href="#DejaVuSans-72" x="1110.494141"/>
     <use xlink:href="#DejaVuSans-6f" x="1149.357422"/>
     <use xlink:href="#DejaVuSans-72" x="1210.539062"/>
     <use xlink:href="#DejaVuSans-20" x="1251.652344"/>
     <use xlink:href="#DejaVuSans-6f" x="1283.439453"/>
     <use xlink:href="#DejaVuSans-66" x="1344.621094"/>
     <use xlink:href="#DejaVuSans-20" x="1379.826172"/>
     <use xlink:href="#DejaVuSans-54" x="1411.613281"/>
     <use xlink:href="#DejaVuSans-32" x="1472.697266"/>
     <use xlink:href="#DejaVuSans-2a" x="1536.320312"/>
     <use xlink:href="#DejaVuSans-20" x="1586.320312"/>
     <use xlink:href="#DejaVuSans-61" x="1618.107422"/>
     <use xlink:href="#DejaVuSans-6e" x="1679.386719"/>
     <use xlink:href="#DejaVuSans-64" x="1742.765625"/>
     <use xlink:href="#DejaVuSans-20" x="1806.242188"/>
     <use xlink:href="#DejaVuSans-53" x="1838.029297"/>
     <use xlink:href="#DejaVuSans-30" x="1901.505859"/>
     <use xlink:href="#DejaVuSans-20" x="1965.128906"/>
     <use xlink:href="#DejaVuSans-66" x="1996.916016"/>
     <use xlink:href="#DejaVuSans-69" x="2032.121094"/>
     <use xlink:href="#DejaVuSans-74" x="2059.904297"/>
     <use xlink:href="#DejaVuSans-20" x="2099.113281"/>
     <use xlink:href="#DejaVuSans-61" x="2130.900391"/>
     <use xlink:href="#DejaVuSans-63" x="2192.179688"/>
     <use xlink:href="#DejaVuSans-72" x="2247.160156"/>
     <use xlink:href="#DejaVuSans-6f" x="2286.023438"/>
     <use xlink:href="#DejaVuSans-73" x="2347.205078"/>
     <use xlink:href="#DejaVuSans-73" x="2399.304688"/>
     <use xlink:href="#DejaVuSans-20" x="2451.404297"/>
     <use xlink:href="#DejaVuSans-76" x="2483.191406"/>
     <use xlink:href="#DejaVuSans-6f" x="2542.371094"/>
     <use xlink:href="#DejaVuSans-78" x="2600.427734"/>
     <use xlink:href="#DejaVuSans-65" x="2656.482422"/>
     <use xlink:href="#DejaVuSans-6c" x="2718.005859"/>
     <use xlink:href="#DejaVuSans-73" x="2745.789062"/>
    </g>
   </g>
   <g id="legend_1">
    <g id="patch_7">
     <path d="M 483.404688 241.677188 
L 641 241.677188 
Q 643 241.677188 643 239.677188 
L 643 196.642812 
Q 643 194.642812 641 194.642812 
L 483.404688 194.642812 
Q 481.404688 194.642812 481.404688 196.642812 
L 481.404688 239.677188 
Q 481.404688 241.677188 483.404688 241.677188 
z
" style="fill: #ffffff; opacity: 0.8; stroke: #cccccc; stroke-linejoin: miter"/>
    </g>
    <g id="line2d_17">
     <path d="M 485.404688 202.74125 
L 495.404688 202.74125 
L 505.404688 202.74125 
" style="fill: none; stroke: #000000; stroke-width: 1.5; stroke-linecap: square"/>
    </g>
    <g id="text_17">
     <!-- Median -->
     <g transform="translate(513.404688 206.24125) scale(0.1 -0.1)">
      <use xlink:href="#DejaVuSans-4d"/>
      <use xlink:href="#DejaVuSans-65" x="86.279297"/>
      <use xlink:href="#DejaVuSans-64" x="147.802734"/>
      <use xlink:href="#DejaVuSans-69" x="211.279297"/>
      <use xlink:href="#DejaVuSans-61" x="239.0625"/>
      <use xlink:href="#DejaVuSans-6e" x="300.341797"/>
     </g>
    </g>
    <g id="patch_8">
     <path d="M 485.404688 220.919375 
L 505.404688 220.919375 
L 505.404688 213.919375 
L 485.404688 213.919375 
z
" style="fill: #0000ff; fill-opacity: 0.2; stroke: #0000ff; stroke-opacity: 0.2; stroke-linejoin: miter"/>
    </g>
    <g id="text_18">
     <!-- 25th-75th percentiles -->
     <g transform="translate(513.404688 220.919375) scale(0.1 -0.1)">
      <defs>
       <path id="DejaVuSans-68" d="M 3513 2113 
L 3513 0 
L 2938 0 
L 2938 2094 
Q 2938 2591 2744 2837 
Q 2550 3084 2163 3084 
Q 1697 3084 1428 2787 
Q 1159 2491 1159 1978 
L 1159 0 
L 581 0 
L 581 4863 
L 1159 4863 
L 1159 2956 
Q 1366 3272 1645 3428 
Q 1925 3584 2291 3584 
Q 2894 3584 3203 3211 
Q 3513 2838 3513 2113 
z
" transform="scale(0.015625)"/>
       <path id="DejaVuSans-2d" d="M 313 2009 
L 1997 2009 
L 1997 1497 
L 313 1497 
L 313 2009 
z
" transform="scale(0.015625)"/>
       <path id="DejaVuSans-37" d="M 525 4666 
L 3525 4666 
L 3525 4397 
L 1831 0 
L 1172 0 
L 2766 4134 
L 525 4134 
L 525 4666 
z
" transform="scale(0.015625)"/>
       <path id="DejaVuSans-70" d="M 1159 525 
L 1159 -1331 
L 581 -1331 
L 581 3500 
L 1159 3500 
L 1159 2969 
Q 1341 3281 1617 3432 
Q 1894 3584 2278 3584 
Q 2916 3584 3314 3078 
Q 3713 2572 3713 1747 
Q 3713 922 3314 415 
Q 2916 -91 2278 -91 
Q 1894 -91 1617 61 
Q 1341 213 1159 525 
z
M 3116 1747 
Q 3116 2381 2855 2742 
Q 2594 3103 2138 3103 
Q 1681 3103 1420 2742 
Q 1159 2381 1159 1747 
Q 1159 1113 1420 752 
Q 1681 391 2138 391 
Q 2594 391 2855 752 
Q 3116 1113 3116 1747 
z
" transform="scale(0.015625)"/>
      </defs>
      <use xlink:href="#DejaVuSans-32"/>
      <use xlink:href="#DejaVuSans-35" x="63.623047"/>
      <use xlink:href="#DejaVuSans-74" x="127.246094"/>
      <use xlink:href="#DejaVuSans-68" x="166.455078"/>
      <use xlink:href="#DejaVuSans-2d" x="229.833984"/>
      <use xlink:href="#DejaVuSans-37" x="265.917969"/>
      <use xlink:href="#DejaVuSans-35" x="329.541016"/>
      <use xlink:href="#DejaVuSans-74" x="393.164062"/>
      <use xlink:href="#DejaVuSans-68" x="432.373047"/>
      <use xlink:href="#DejaVuSans-20" x="495.751953"/>
      <use xlink:href="#DejaVuSans-70" x="527.539062"/>
      <use xlink:href="#DejaVuSans-65" x="591.015625"/>
      <use xlink:href="#DejaVuSans-72" x="652.539062"/>
      <use xlink:href="#DejaVuSans-63" x="691.402344"/>
      <use xlink:href="#DejaVuSans-65" x="746.382812"/>
      <use xlink:href="#DejaVuSans-6e" x="807.90625"/>
      <use xlink:href="#DejaVuSans-74" x="871.285156"/>
      <use xlink:href="#DejaVuSans-69" x="910.494141"/>
      <use xlink:href="#DejaVuSans-6c" x="938.277344"/>
      <use xlink:href="#DejaVuSans-65" x="966.060547"/>
      <use xlink:href="#DejaVuSans-73" x="1027.583984"/>
     </g>
    </g>
    <g id="line2d_18">
     <path d="M 485.404688 232.0975 
L 495.404688 232.0975 
L 505.404688 232.0975 
" style="fill: none; stroke-dasharray: 5.55,2.4; stroke-dashoffset: 0; stroke: #000000; stroke-width: 1.5"/>
    </g>
    <g id="text_19">
     <!-- 2nd and 98th percentiles -->
     <g transform="translate(513.404688 235.5975) scale(0.1 -0.1)">
      <defs>
       <path id="DejaVuSans-39" d="M 703 97 
L 703 672 
Q 941 559 1184 500 
Q 1428 441 1663 441 
Q 2288 441 2617 861 
Q 2947 1281 2994 2138 
Q 2813 1869 2534 1725 
Q 2256 1581 1919 1581 
Q 1219 1581 811 2004 
Q 403 2428 403 3163 
Q 403 3881 828 4315 
Q 1253 4750 1959 4750 
Q 2769 4750 3195 4129 
Q 3622 3509 3622 2328 
Q 3622 1225 3098 567 
Q 2575 -91 1691 -91 
Q 1453 -91 1209 -44 
Q 966 3 703 97 
z
M 1959 2075 
Q 2384 2075 2632 2365 
Q 2881 2656 2881 3163 
Q 2881 3666 2632 3958 
Q 2384 4250 1959 4250 
Q 1534 4250 1286 3958 
Q 1038 3666 1038 3163 
Q 1038 2656 1286 2365 
Q 1534 2075 1959 2075 
z
" transform="scale(0.015625)"/>
      </defs>
      <use xlink:href="#DejaVuSans-32"/>
      <use xlink:href="#DejaVuSans-6e" x="63.623047"/>
      <use xlink:href="#DejaVuSans-64" x="127.001953"/>
      <use xlink:href="#DejaVuSans-20" x="190.478516"/>
      <use xlink:href="#DejaVuSans-61" x="222.265625"/>
      <use xlink:href="#DejaVuSans-6e" x="283.544922"/>
      <use xlink:href="#DejaVuSans-64" x="346.923828"/>
      <use xlink:href="#DejaVuSans-20" x="410.400391"/>
      <use xlink:href="#DejaVuSans-39" x="442.1875"/>
      <use xlink:href="#DejaVuSans-38" x="505.810547"/>
      <use xlink:href="#DejaVuSans-74" x="569.433594"/>
      <use xlink:href="#DejaVuSans-68" x="608.642578"/>
      <use xlink:href="#DejaVuSans-20" x="672.021484"/>
      <use xlink:href="#DejaVuSans-70" x="703.808594"/>
      <use xlink:href="#DejaVuSans-65" x="767.285156"/>
      <use xlink:href="#DejaVuSans-72" x="828.808594"/>
      <use xlink:href="#DejaVuSans-63" x="867.671875"/>
      <use xlink:href="#DejaVuSans-65" x="922.652344"/>
      <use xlink:href="#DejaVuSans-6e" x="984.175781"/>
      <use xlink:href="#DejaVuSans-74" x="1047.554688"/>
      <use xlink:href="#DejaVuSans-69" x="1086.763672"/>
      <use xlink:href="#DejaVuSans-6c" x="1114.546875"/>
      <use xlink:href="#DejaVuSans-65" x="1142.330078"/>
      <use xlink:href="#DejaVuSans-73" x="1203.853516"/>
     </g>
    </g>
   </g>
  </g>
 </g>
 <defs>
  <clipPath id="p529e49cf38">
   <rect x="90" y="51.84" width="558" height="332.64"/>
  </clipPath>
 </defs>
</svg>
