<?xml version="1.0" encoding="utf-8" standalone="no"?>
<!DOCTYPE svg PUBLIC "-//W3C//DTD SVG 1.1//EN"
  "http://www.w3.org/Graphics/SVG/1.1/DTD/svg11.dtd">
<svg xmlns:xlink="http://www.w3.org/1999/xlink" width="720pt" height="432pt" viewBox="0 0 720 432" xmlns="http://www.w3.org/2000/svg" version="1.1">
 <metadata>
  <rdf:RDF xmlns:dc="http://purl.org/dc/elements/1.1/" xmlns:cc="http://creativecommons.org/ns#" xmlns:rdf="http://www.w3.org/1999/02/22-rdf-syntax-ns#">
   <cc:Work>
    <dc:type rdf:resource="http://purl.org/dc/dcmitype/StillImage"/>
    <dc:date>2024-05-26T10:32:01.312022</dc:date>
    <dc:format>image/svg+xml</dc:format>
    <dc:creator>
     <cc:Agent>
      <dc:title>Matplotlib v3.8.4, https://matplotlib.org/</dc:title>
     </cc:Agent>
    </dc:creator>
   </cc:Work>
  </rdf:RDF>
 </metadata>
 <defs>
  <style type="text/css">*{stroke-linejoin: round; stroke-linecap: butt}</style>
 </defs>
 <g id="figure_1">
  <g id="patch_1">
   <path d="M 0 432 
L 720 432 
L 720 0 
L 0 0 
z
" style="fill: #ffffff"/>
  </g>
  <g id="axes_1">
   <g id="patch_2">
    <path d="M 63.92 364.408 
L 709.2 364.408 
L 709.2 32.64 
L 63.92 32.64 
z
" style="fill: #ffffff"/>
   </g>
   <g id="patch_3">
    <path d="M 84.868488 364.408 
L 91.111523 364.408 
L 91.111523 364.146328 
L 84.868488 364.146328 
z
" clip-path="url(#p57614080f0)" style="fill: #1f77b4"/>
   </g>
   <g id="patch_4">
    <path d="M 91.111523 364.408 
L 97.354557 364.408 
L 97.354557 364.015491 
L 91.111523 364.015491 
z
" clip-path="url(#p57614080f0)" style="fill: #1f77b4"/>
   </g>
   <g id="patch_5">
    <path d="M 97.354557 364.408 
L 103.597592 364.408 
L 103.597592 363.622983 
L 97.354557 363.622983 
z
" clip-path="url(#p57614080f0)" style="fill: #1f77b4"/>
   </g>
   <g id="patch_6">
    <path d="M 103.597592 364.408 
L 109.840625 364.408 
L 109.840625 363.884655 
L 103.597592 363.884655 
z
" clip-path="url(#p57614080f0)" style="fill: #1f77b4"/>
   </g>
   <g id="patch_7">
    <path d="M 109.840625 364.408 
L 116.083659 364.408 
L 116.083659 363.622983 
L 109.840625 363.622983 
z
" clip-path="url(#p57614080f0)" style="fill: #1f77b4"/>
   </g>
   <g id="patch_8">
    <path d="M 116.083659 364.408 
L 122.326694 364.408 
L 122.326694 363.753819 
L 116.083659 363.753819 
z
" clip-path="url(#p57614080f0)" style="fill: #1f77b4"/>
   </g>
   <g id="patch_9">
    <path d="M 122.326694 364.408 
L 128.569729 364.408 
L 128.569729 363.884655 
L 122.326694 363.884655 
z
" clip-path="url(#p57614080f0)" style="fill: #1f77b4"/>
   </g>
   <g id="patch_10">
    <path d="M 128.569729 364.408 
L 134.812764 364.408 
L 134.812764 363.099638 
L 128.569729 363.099638 
z
" clip-path="url(#p57614080f0)" style="fill: #1f77b4"/>
   </g>
   <g id="patch_11">
    <path d="M 134.812764 364.408 
L 141.055798 364.408 
L 141.055798 363.36131 
L 134.812764 363.36131 
z
" clip-path="url(#p57614080f0)" style="fill: #1f77b4"/>
   </g>
   <g id="patch_12">
    <path d="M 141.055798 364.408 
L 147.298838 364.408 
L 147.298838 362.968801 
L 141.055798 362.968801 
z
" clip-path="url(#p57614080f0)" style="fill: #1f77b4"/>
   </g>
   <g id="patch_13">
    <path d="M 147.298838 364.408 
L 153.541868 364.408 
L 153.541868 363.230474 
L 147.298838 363.230474 
z
" clip-path="url(#p57614080f0)" style="fill: #1f77b4"/>
   </g>
   <g id="patch_14">
    <path d="M 153.541868 364.408 
L 159.784908 364.408 
L 159.784908 362.837965 
L 153.541868 362.837965 
z
" clip-path="url(#p57614080f0)" style="fill: #1f77b4"/>
   </g>
   <g id="patch_15">
    <path d="M 159.784908 364.408 
L 166.027938 364.408 
L 166.027938 361.398766 
L 159.784908 361.398766 
z
" clip-path="url(#p57614080f0)" style="fill: #1f77b4"/>
   </g>
   <g id="patch_16">
    <path d="M 166.027938 364.408 
L 172.270977 364.408 
L 172.270977 361.137094 
L 166.027938 361.137094 
z
" clip-path="url(#p57614080f0)" style="fill: #1f77b4"/>
   </g>
   <g id="patch_17">
    <path d="M 172.270977 364.408 
L 178.514007 364.408 
L 178.514007 361.137094 
L 172.270977 361.137094 
z
" clip-path="url(#p57614080f0)" style="fill: #1f77b4"/>
   </g>
   <g id="patch_18">
    <path d="M 178.514007 364.408 
L 184.757047 364.408 
L 184.757047 359.567059 
L 178.514007 359.567059 
z
" clip-path="url(#p57614080f0)" style="fill: #1f77b4"/>
   </g>
   <g id="patch_19">
    <path d="M 184.757047 364.408 
L 191.000077 364.408 
L 191.000077 358.12786 
L 184.757047 358.12786 
z
" clip-path="url(#p57614080f0)" style="fill: #1f77b4"/>
   </g>
   <g id="patch_20">
    <path d="M 191.000077 364.408 
L 197.243116 364.408 
L 197.243116 357.08117 
L 191.000077 357.08117 
z
" clip-path="url(#p57614080f0)" style="fill: #1f77b4"/>
   </g>
   <g id="patch_21">
    <path d="M 197.243116 364.408 
L 203.486146 364.408 
L 203.486146 355.772808 
L 197.243116 355.772808 
z
" clip-path="url(#p57614080f0)" style="fill: #1f77b4"/>
   </g>
   <g id="patch_22">
    <path d="M 203.486146 364.408 
L 209.729186 364.408 
L 209.729186 352.632738 
L 203.486146 352.632738 
z
" clip-path="url(#p57614080f0)" style="fill: #1f77b4"/>
   </g>
   <g id="patch_23">
    <path d="M 209.729186 364.408 
L 215.972216 364.408 
L 215.972216 354.856954 
L 209.729186 354.856954 
z
" clip-path="url(#p57614080f0)" style="fill: #1f77b4"/>
   </g>
   <g id="patch_24">
    <path d="M 215.972216 364.408 
L 222.215255 364.408 
L 222.215255 350.408522 
L 215.972216 350.408522 
z
" clip-path="url(#p57614080f0)" style="fill: #1f77b4"/>
   </g>
   <g id="patch_25">
    <path d="M 222.215255 364.408 
L 228.458285 364.408 
L 228.458285 351.586048 
L 222.215255 351.586048 
z
" clip-path="url(#p57614080f0)" style="fill: #1f77b4"/>
   </g>
   <g id="patch_26">
    <path d="M 228.458285 364.408 
L 234.701315 364.408 
L 234.701315 349.361832 
L 228.458285 349.361832 
z
" clip-path="url(#p57614080f0)" style="fill: #1f77b4"/>
   </g>
   <g id="patch_27">
    <path d="M 234.701315 364.408 
L 240.944364 364.408 
L 240.944364 345.436745 
L 234.701315 345.436745 
z
" clip-path="url(#p57614080f0)" style="fill: #1f77b4"/>
   </g>
   <g id="patch_28">
    <path d="M 240.944364 364.408 
L 247.187394 364.408 
L 247.187394 338.894933 
L 240.944364 338.894933 
z
" clip-path="url(#p57614080f0)" style="fill: #1f77b4"/>
   </g>
   <g id="patch_29">
    <path d="M 247.187394 364.408 
L 253.430424 364.408 
L 253.430424 332.483957 
L 247.187394 332.483957 
z
" clip-path="url(#p57614080f0)" style="fill: #1f77b4"/>
   </g>
   <g id="patch_30">
    <path d="M 253.430424 364.408 
L 259.673454 364.408 
L 259.673454 309.849287 
L 253.430424 309.849287 
z
" clip-path="url(#p57614080f0)" style="fill: #1f77b4"/>
   </g>
   <g id="patch_31">
    <path d="M 259.673454 364.408 
L 265.916504 364.408 
L 265.916504 286.167927 
L 259.673454 286.167927 
z
" clip-path="url(#p57614080f0)" style="fill: #1f77b4"/>
   </g>
   <g id="patch_32">
    <path d="M 265.916504 364.408 
L 272.159534 364.408 
L 272.159534 255.944756 
L 265.916504 255.944756 
z
" clip-path="url(#p57614080f0)" style="fill: #1f77b4"/>
   </g>
   <g id="patch_33">
    <path d="M 272.159534 364.408 
L 278.402564 364.408 
L 278.402564 226.637437 
L 272.159534 226.637437 
z
" clip-path="url(#p57614080f0)" style="fill: #1f77b4"/>
   </g>
   <g id="patch_34">
    <path d="M 278.402564 364.408 
L 284.645594 364.408 
L 284.645594 200.731862 
L 278.402564 200.731862 
z
" clip-path="url(#p57614080f0)" style="fill: #1f77b4"/>
   </g>
   <g id="patch_35">
    <path d="M 284.645594 364.408 
L 290.888643 364.408 
L 290.888643 146.82733 
L 284.645594 146.82733 
z
" clip-path="url(#p57614080f0)" style="fill: #1f77b4"/>
   </g>
   <g id="patch_36">
    <path d="M 290.888643 364.408 
L 297.131673 364.408 
L 297.131673 137.014612 
L 290.888643 137.014612 
z
" clip-path="url(#p57614080f0)" style="fill: #1f77b4"/>
   </g>
   <g id="patch_37">
    <path d="M 297.131673 364.408 
L 303.374703 364.408 
L 303.374703 112.417398 
L 297.131673 112.417398 
z
" clip-path="url(#p57614080f0)" style="fill: #1f77b4"/>
   </g>
   <g id="patch_38">
    <path d="M 303.374703 364.408 
L 309.617733 364.408 
L 309.617733 111.239872 
L 303.374703 111.239872 
z
" clip-path="url(#p57614080f0)" style="fill: #1f77b4"/>
   </g>
   <g id="patch_39">
    <path d="M 309.617733 364.408 
L 315.860763 364.408 
L 315.860763 84.287606 
L 309.617733 84.287606 
z
" clip-path="url(#p57614080f0)" style="fill: #1f77b4"/>
   </g>
   <g id="patch_40">
    <path d="M 315.860763 364.408 
L 322.103812 364.408 
L 322.103812 69.110602 
L 315.860763 69.110602 
z
" clip-path="url(#p57614080f0)" style="fill: #1f77b4"/>
   </g>
   <g id="patch_41">
    <path d="M 322.103812 364.408 
L 328.346842 364.408 
L 328.346842 58.251194 
L 322.103812 58.251194 
z
" clip-path="url(#p57614080f0)" style="fill: #1f77b4"/>
   </g>
   <g id="patch_42">
    <path d="M 328.346842 364.408 
L 334.589872 364.408 
L 334.589872 56.026978 
L 328.346842 56.026978 
z
" clip-path="url(#p57614080f0)" style="fill: #1f77b4"/>
   </g>
   <g id="patch_43">
    <path d="M 334.589872 364.408 
L 340.832902 364.408 
L 340.832902 48.438476 
L 334.589872 48.438476 
z
" clip-path="url(#p57614080f0)" style="fill: #1f77b4"/>
   </g>
   <g id="patch_44">
    <path d="M 340.832902 364.408 
L 347.075951 364.408 
L 347.075951 65.839696 
L 340.832902 65.839696 
z
" clip-path="url(#p57614080f0)" style="fill: #1f77b4"/>
   </g>
   <g id="patch_45">
    <path d="M 347.075951 364.408 
L 353.318981 364.408 
L 353.318981 55.765306 
L 347.075951 55.765306 
z
" clip-path="url(#p57614080f0)" style="fill: #1f77b4"/>
   </g>
   <g id="patch_46">
    <path d="M 353.318981 364.408 
L 359.562011 364.408 
L 359.562011 75.12907 
L 353.318981 75.12907 
z
" clip-path="url(#p57614080f0)" style="fill: #1f77b4"/>
   </g>
   <g id="patch_47">
    <path d="M 359.562011 364.408 
L 365.805041 364.408 
L 365.805041 85.465133 
L 359.562011 85.465133 
z
" clip-path="url(#p57614080f0)" style="fill: #1f77b4"/>
   </g>
   <g id="patch_48">
    <path d="M 365.805041 364.408 
L 372.04809 364.408 
L 372.04809 85.20346 
L 365.805041 85.20346 
z
" clip-path="url(#p57614080f0)" style="fill: #1f77b4"/>
   </g>
   <g id="patch_49">
    <path d="M 372.04809 364.408 
L 378.29112 364.408 
L 378.29112 101.427154 
L 372.04809 101.427154 
z
" clip-path="url(#p57614080f0)" style="fill: #1f77b4"/>
   </g>
   <g id="patch_50">
    <path d="M 378.29112 364.408 
L 384.534169 364.408 
L 384.534169 117.912521 
L 378.29112 117.912521 
z
" clip-path="url(#p57614080f0)" style="fill: #1f77b4"/>
   </g>
   <g id="patch_51">
    <path d="M 384.534169 364.408 
L 390.777199 364.408 
L 390.777199 118.305029 
L 384.534169 118.305029 
z
" clip-path="url(#p57614080f0)" style="fill: #1f77b4"/>
   </g>
   <g id="patch_52">
    <path d="M 390.777199 364.408 
L 397.020229 364.408 
L 397.020229 108.623147 
L 390.777199 108.623147 
z
" clip-path="url(#p57614080f0)" style="fill: #1f77b4"/>
   </g>
   <g id="patch_53">
    <path d="M 397.020229 364.408 
L 403.263259 364.408 
L 403.263259 137.668793 
L 397.020229 137.668793 
z
" clip-path="url(#p57614080f0)" style="fill: #1f77b4"/>
   </g>
   <g id="patch_54">
    <path d="M 403.263259 364.408 
L 409.506289 364.408 
L 409.506289 130.734472 
L 403.263259 130.734472 
z
" clip-path="url(#p57614080f0)" style="fill: #1f77b4"/>
   </g>
   <g id="patch_55">
    <path d="M 409.506289 364.408 
L 415.749319 364.408 
L 415.749319 147.87402 
L 409.506289 147.87402 
z
" clip-path="url(#p57614080f0)" style="fill: #1f77b4"/>
   </g>
   <g id="patch_56">
    <path d="M 415.749319 364.408 
L 421.992349 364.408 
L 421.992349 152.584125 
L 415.749319 152.584125 
z
" clip-path="url(#p57614080f0)" style="fill: #1f77b4"/>
   </g>
   <g id="patch_57">
    <path d="M 421.992349 364.408 
L 428.235379 364.408 
L 428.235379 163.312696 
L 421.992349 163.312696 
z
" clip-path="url(#p57614080f0)" style="fill: #1f77b4"/>
   </g>
   <g id="patch_58">
    <path d="M 428.235379 364.408 
L 434.478447 364.408 
L 434.478447 171.947888 
L 428.235379 171.947888 
z
" clip-path="url(#p57614080f0)" style="fill: #1f77b4"/>
   </g>
   <g id="patch_59">
    <path d="M 434.478447 364.408 
L 440.721477 364.408 
L 440.721477 187.779074 
L 434.478447 187.779074 
z
" clip-path="url(#p57614080f0)" style="fill: #1f77b4"/>
   </g>
   <g id="patch_60">
    <path d="M 440.721477 364.408 
L 446.964507 364.408 
L 446.964507 186.339875 
L 440.721477 186.339875 
z
" clip-path="url(#p57614080f0)" style="fill: #1f77b4"/>
   </g>
   <g id="patch_61">
    <path d="M 446.964507 364.408 
L 453.207537 364.408 
L 453.207537 197.853464 
L 446.964507 197.853464 
z
" clip-path="url(#p57614080f0)" style="fill: #1f77b4"/>
   </g>
   <g id="patch_62">
    <path d="M 453.207537 364.408 
L 459.450567 364.408 
L 459.450567 206.881165 
L 453.207537 206.881165 
z
" clip-path="url(#p57614080f0)" style="fill: #1f77b4"/>
   </g>
   <g id="patch_63">
    <path d="M 459.450567 364.408 
L 465.693597 364.408 
L 465.693597 214.731339 
L 459.450567 214.731339 
z
" clip-path="url(#p57614080f0)" style="fill: #1f77b4"/>
   </g>
   <g id="patch_64">
    <path d="M 465.693597 364.408 
L 471.936627 364.408 
L 471.936627 225.590748 
L 465.693597 225.590748 
z
" clip-path="url(#p57614080f0)" style="fill: #1f77b4"/>
   </g>
   <g id="patch_65">
    <path d="M 471.936627 364.408 
L 478.179657 364.408 
L 478.179657 234.487612 
L 471.936627 234.487612 
z
" clip-path="url(#p57614080f0)" style="fill: #1f77b4"/>
   </g>
   <g id="patch_66">
    <path d="M 478.179657 364.408 
L 484.422726 364.408 
L 484.422726 242.337786 
L 478.179657 242.337786 
z
" clip-path="url(#p57614080f0)" style="fill: #1f77b4"/>
   </g>
   <g id="patch_67">
    <path d="M 484.422726 364.408 
L 490.665756 364.408 
L 490.665756 246.001201 
L 484.422726 246.001201 
z
" clip-path="url(#p57614080f0)" style="fill: #1f77b4"/>
   </g>
   <g id="patch_68">
    <path d="M 490.665756 364.408 
L 496.908786 364.408 
L 496.908786 252.935522 
L 490.665756 252.935522 
z
" clip-path="url(#p57614080f0)" style="fill: #1f77b4"/>
   </g>
   <g id="patch_69">
    <path d="M 496.908786 364.408 
L 503.151816 364.408 
L 503.151816 263.533258 
L 496.908786 263.533258 
z
" clip-path="url(#p57614080f0)" style="fill: #1f77b4"/>
   </g>
   <g id="patch_70">
    <path d="M 503.151816 364.408 
L 509.394846 364.408 
L 509.394846 264.710784 
L 503.151816 264.710784 
z
" clip-path="url(#p57614080f0)" style="fill: #1f77b4"/>
   </g>
   <g id="patch_71">
    <path d="M 509.394846 364.408 
L 515.637876 364.408 
L 515.637876 278.841098 
L 509.394846 278.841098 
z
" clip-path="url(#p57614080f0)" style="fill: #1f77b4"/>
   </g>
   <g id="patch_72">
    <path d="M 515.637876 364.408 
L 521.880906 364.408 
L 521.880906 292.971412 
L 515.637876 292.971412 
z
" clip-path="url(#p57614080f0)" style="fill: #1f77b4"/>
   </g>
   <g id="patch_73">
    <path d="M 521.880906 364.408 
L 528.123936 364.408 
L 528.123936 295.588137 
L 521.880906 295.588137 
z
" clip-path="url(#p57614080f0)" style="fill: #1f77b4"/>
   </g>
   <g id="patch_74">
    <path d="M 528.123936 364.408 
L 534.367004 364.408 
L 534.367004 301.999113 
L 528.123936 301.999113 
z
" clip-path="url(#p57614080f0)" style="fill: #1f77b4"/>
   </g>
   <g id="patch_75">
    <path d="M 534.367004 364.408 
L 540.610034 364.408 
L 540.610034 306.578381 
L 534.367004 306.578381 
z
" clip-path="url(#p57614080f0)" style="fill: #1f77b4"/>
   </g>
   <g id="patch_76">
    <path d="M 540.610034 364.408 
L 546.853064 364.408 
L 546.853064 314.428556 
L 540.610034 314.428556 
z
" clip-path="url(#p57614080f0)" style="fill: #1f77b4"/>
   </g>
   <g id="patch_77">
    <path d="M 546.853064 364.408 
L 553.096094 364.408 
L 553.096094 318.222807 
L 546.853064 318.222807 
z
" clip-path="url(#p57614080f0)" style="fill: #1f77b4"/>
   </g>
   <g id="patch_78">
    <path d="M 553.096094 364.408 
L 559.339124 364.408 
L 559.339124 323.587093 
L 553.096094 323.587093 
z
" clip-path="url(#p57614080f0)" style="fill: #1f77b4"/>
   </g>
   <g id="patch_79">
    <path d="M 559.339124 364.408 
L 565.582154 364.408 
L 565.582154 328.035525 
L 559.339124 328.035525 
z
" clip-path="url(#p57614080f0)" style="fill: #1f77b4"/>
   </g>
   <g id="patch_80">
    <path d="M 565.582154 364.408 
L 571.825184 364.408 
L 571.825184 329.867232 
L 565.582154 329.867232 
z
" clip-path="url(#p57614080f0)" style="fill: #1f77b4"/>
   </g>
   <g id="patch_81">
    <path d="M 571.825184 364.408 
L 578.068214 364.408 
L 578.068214 333.138138 
L 571.825184 333.138138 
z
" clip-path="url(#p57614080f0)" style="fill: #1f77b4"/>
   </g>
   <g id="patch_82">
    <path d="M 578.068214 364.408 
L 584.311282 364.408 
L 584.311282 333.138138 
L 578.068214 333.138138 
z
" clip-path="url(#p57614080f0)" style="fill: #1f77b4"/>
   </g>
   <g id="patch_83">
    <path d="M 584.311282 364.408 
L 590.554312 364.408 
L 590.554312 337.324898 
L 584.311282 337.324898 
z
" clip-path="url(#p57614080f0)" style="fill: #1f77b4"/>
   </g>
   <g id="patch_84">
    <path d="M 590.554312 364.408 
L 596.797342 364.408 
L 596.797342 341.904166 
L 590.554312 341.904166 
z
" clip-path="url(#p57614080f0)" style="fill: #1f77b4"/>
   </g>
   <g id="patch_85">
    <path d="M 596.797342 364.408 
L 603.040372 364.408 
L 603.040372 341.119149 
L 596.797342 341.119149 
z
" clip-path="url(#p57614080f0)" style="fill: #1f77b4"/>
   </g>
   <g id="patch_86">
    <path d="M 603.040372 364.408 
L 609.283402 364.408 
L 609.283402 343.212529 
L 603.040372 343.212529 
z
" clip-path="url(#p57614080f0)" style="fill: #1f77b4"/>
   </g>
   <g id="patch_87">
    <path d="M 609.283402 364.408 
L 615.526432 364.408 
L 615.526432 346.745107 
L 609.283402 346.745107 
z
" clip-path="url(#p57614080f0)" style="fill: #1f77b4"/>
   </g>
   <g id="patch_88">
    <path d="M 615.526432 364.408 
L 621.769462 364.408 
L 621.769462 346.875944 
L 615.526432 346.875944 
z
" clip-path="url(#p57614080f0)" style="fill: #1f77b4"/>
   </g>
   <g id="patch_89">
    <path d="M 621.769462 364.408 
L 628.012492 364.408 
L 628.012492 347.268452 
L 621.769462 347.268452 
z
" clip-path="url(#p57614080f0)" style="fill: #1f77b4"/>
   </g>
   <g id="patch_90">
    <path d="M 628.012492 364.408 
L 634.25556 364.408 
L 634.25556 347.922634 
L 628.012492 347.922634 
z
" clip-path="url(#p57614080f0)" style="fill: #1f77b4"/>
   </g>
   <g id="patch_91">
    <path d="M 634.25556 364.408 
L 640.49859 364.408 
L 640.49859 350.016013 
L 634.25556 350.016013 
z
" clip-path="url(#p57614080f0)" style="fill: #1f77b4"/>
   </g>
   <g id="patch_92">
    <path d="M 640.49859 364.408 
L 646.74162 364.408 
L 646.74162 351.847721 
L 640.49859 351.847721 
z
" clip-path="url(#p57614080f0)" style="fill: #1f77b4"/>
   </g>
   <g id="patch_93">
    <path d="M 646.74162 364.408 
L 652.98465 364.408 
L 652.98465 352.501902 
L 646.74162 352.501902 
z
" clip-path="url(#p57614080f0)" style="fill: #1f77b4"/>
   </g>
   <g id="patch_94">
    <path d="M 652.98465 364.408 
L 659.22768 364.408 
L 659.22768 353.941101 
L 652.98465 353.941101 
z
" clip-path="url(#p57614080f0)" style="fill: #1f77b4"/>
   </g>
   <g id="patch_95">
    <path d="M 659.22768 364.408 
L 665.47071 364.408 
L 665.47071 354.987791 
L 659.22768 354.987791 
z
" clip-path="url(#p57614080f0)" style="fill: #1f77b4"/>
   </g>
   <g id="patch_96">
    <path d="M 665.47071 364.408 
L 671.71374 364.408 
L 671.71374 354.071937 
L 665.47071 354.071937 
z
" clip-path="url(#p57614080f0)" style="fill: #1f77b4"/>
   </g>
   <g id="patch_97">
    <path d="M 671.71374 364.408 
L 677.95677 364.408 
L 677.95677 354.464446 
L 671.71374 354.464446 
z
" clip-path="url(#p57614080f0)" style="fill: #1f77b4"/>
   </g>
   <g id="patch_98">
    <path d="M 677.95677 364.408 
L 684.199839 364.408 
L 684.199839 356.688662 
L 677.95677 356.688662 
z
" clip-path="url(#p57614080f0)" style="fill: #1f77b4"/>
   </g>
   <g id="patch_99">
    <path d="M 684.199839 364.408 
L 690.442869 364.408 
L 690.442869 355.772808 
L 684.199839 355.772808 
z
" clip-path="url(#p57614080f0)" style="fill: #1f77b4"/>
   </g>
   <g id="patch_100">
    <path d="M 690.442869 364.408 
L 696.685899 364.408 
L 696.685899 355.903644 
L 690.442869 355.903644 
z
" clip-path="url(#p57614080f0)" style="fill: #1f77b4"/>
   </g>
   <g id="patch_101">
    <path d="M 696.685899 364.408 
L 702.928929 364.408 
L 702.928929 357.342843 
L 696.685899 357.342843 
z
" clip-path="url(#p57614080f0)" style="fill: #1f77b4"/>
   </g>
   <g id="patch_102">
    <path d="M 702.928929 364.408 
L 709.171959 364.408 
L 709.171959 357.604515 
L 702.928929 357.604515 
z
" clip-path="url(#p57614080f0)" style="fill: #1f77b4"/>
   </g>
   <g id="matplotlib.axis_1">
    <g id="xtick_1">
     <g id="line2d_1">
      <defs>
       <path id="mff5b652470" d="M 0 0 
L 0 3.5 
" style="stroke: #000000; stroke-width: 0.8"/>
      </defs>
      <g>
       <use xlink:href="#mff5b652470" x="63.92" y="364.408" style="stroke: #000000; stroke-width: 0.8"/>
      </g>
     </g>
     <g id="text_1">
      <!-- 0 -->
      <g transform="translate(60.73875 379.006438) scale(0.1 -0.1)">
       <defs>
        <path id="DejaVuSans-30" d="M 2034 4250 
Q 1547 4250 1301 3770 
Q 1056 3291 1056 2328 
Q 1056 1369 1301 889 
Q 1547 409 2034 409 
Q 2525 409 2770 889 
Q 3016 1369 3016 2328 
Q 3016 3291 2770 3770 
Q 2525 4250 2034 4250 
z
M 2034 4750 
Q 2819 4750 3233 4129 
Q 3647 3509 3647 2328 
Q 3647 1150 3233 529 
Q 2819 -91 2034 -91 
Q 1250 -91 836 529 
Q 422 1150 422 2328 
Q 422 3509 836 4129 
Q 1250 4750 2034 4750 
z
" transform="scale(0.015625)"/>
       </defs>
       <use xlink:href="#DejaVuSans-30"/>
      </g>
     </g>
    </g>
    <g id="xtick_2">
     <g id="line2d_2">
      <g>
       <use xlink:href="#mff5b652470" x="142.118243" y="364.408" style="stroke: #000000; stroke-width: 0.8"/>
      </g>
     </g>
     <g id="text_2">
      <!-- 2000 -->
      <g transform="translate(129.393243 379.006438) scale(0.1 -0.1)">
       <defs>
        <path id="DejaVuSans-32" d="M 1228 531 
L 3431 531 
L 3431 0 
L 469 0 
L 469 531 
Q 828 903 1448 1529 
Q 2069 2156 2228 2338 
Q 2531 2678 2651 2914 
Q 2772 3150 2772 3378 
Q 2772 3750 2511 3984 
Q 2250 4219 1831 4219 
Q 1534 4219 1204 4116 
Q 875 4013 500 3803 
L 500 4441 
Q 881 4594 1212 4672 
Q 1544 4750 1819 4750 
Q 2544 4750 2975 4387 
Q 3406 4025 3406 3419 
Q 3406 3131 3298 2873 
Q 3191 2616 2906 2266 
Q 2828 2175 2409 1742 
Q 1991 1309 1228 531 
z
" transform="scale(0.015625)"/>
       </defs>
       <use xlink:href="#DejaVuSans-32"/>
       <use xlink:href="#DejaVuSans-30" x="63.623047"/>
       <use xlink:href="#DejaVuSans-30" x="127.246094"/>
       <use xlink:href="#DejaVuSans-30" x="190.869141"/>
      </g>
     </g>
    </g>
    <g id="xtick_3">
     <g id="line2d_3">
      <g>
       <use xlink:href="#mff5b652470" x="220.316485" y="364.408" style="stroke: #000000; stroke-width: 0.8"/>
      </g>
     </g>
     <g id="text_3">
      <!-- 4000 -->
      <g transform="translate(207.591485 379.006438) scale(0.1 -0.1)">
       <defs>
        <path id="DejaVuSans-34" d="M 2419 4116 
L 825 1625 
L 2419 1625 
L 2419 4116 
z
M 2253 4666 
L 3047 4666 
L 3047 1625 
L 3713 1625 
L 3713 1100 
L 3047 1100 
L 3047 0 
L 2419 0 
L 2419 1100 
L 313 1100 
L 313 1709 
L 2253 4666 
z
" transform="scale(0.015625)"/>
       </defs>
       <use xlink:href="#DejaVuSans-34"/>
       <use xlink:href="#DejaVuSans-30" x="63.623047"/>
       <use xlink:href="#DejaVuSans-30" x="127.246094"/>
       <use xlink:href="#DejaVuSans-30" x="190.869141"/>
      </g>
     </g>
    </g>
    <g id="xtick_4">
     <g id="line2d_4">
      <g>
       <use xlink:href="#mff5b652470" x="298.514728" y="364.408" style="stroke: #000000; stroke-width: 0.8"/>
      </g>
     </g>
     <g id="text_4">
      <!-- 6000 -->
      <g transform="translate(285.789728 379.006438) scale(0.1 -0.1)">
       <defs>
        <path id="DejaVuSans-36" d="M 2113 2584 
Q 1688 2584 1439 2293 
Q 1191 2003 1191 1497 
Q 1191 994 1439 701 
Q 1688 409 2113 409 
Q 2538 409 2786 701 
Q 3034 994 3034 1497 
Q 3034 2003 2786 2293 
Q 2538 2584 2113 2584 
z
M 3366 4563 
L 3366 3988 
Q 3128 4100 2886 4159 
Q 2644 4219 2406 4219 
Q 1781 4219 1451 3797 
Q 1122 3375 1075 2522 
Q 1259 2794 1537 2939 
Q 1816 3084 2150 3084 
Q 2853 3084 3261 2657 
Q 3669 2231 3669 1497 
Q 3669 778 3244 343 
Q 2819 -91 2113 -91 
Q 1303 -91 875 529 
Q 447 1150 447 2328 
Q 447 3434 972 4092 
Q 1497 4750 2381 4750 
Q 2619 4750 2861 4703 
Q 3103 4656 3366 4563 
z
" transform="scale(0.015625)"/>
       </defs>
       <use xlink:href="#DejaVuSans-36"/>
       <use xlink:href="#DejaVuSans-30" x="63.623047"/>
       <use xlink:href="#DejaVuSans-30" x="127.246094"/>
       <use xlink:href="#DejaVuSans-30" x="190.869141"/>
      </g>
     </g>
    </g>
    <g id="xtick_5">
     <g id="line2d_5">
      <g>
       <use xlink:href="#mff5b652470" x="376.71297" y="364.408" style="stroke: #000000; stroke-width: 0.8"/>
      </g>
     </g>
     <g id="text_5">
      <!-- 8000 -->
      <g transform="translate(363.98797 379.006438) scale(0.1 -0.1)">
       <defs>
        <path id="DejaVuSans-38" d="M 2034 2216 
Q 1584 2216 1326 1975 
Q 1069 1734 1069 1313 
Q 1069 891 1326 650 
Q 1584 409 2034 409 
Q 2484 409 2743 651 
Q 3003 894 3003 1313 
Q 3003 1734 2745 1975 
Q 2488 2216 2034 2216 
z
M 1403 2484 
Q 997 2584 770 2862 
Q 544 3141 544 3541 
Q 544 4100 942 4425 
Q 1341 4750 2034 4750 
Q 2731 4750 3128 4425 
Q 3525 4100 3525 3541 
Q 3525 3141 3298 2862 
Q 3072 2584 2669 2484 
Q 3125 2378 3379 2068 
Q 3634 1759 3634 1313 
Q 3634 634 3220 271 
Q 2806 -91 2034 -91 
Q 1263 -91 848 271 
Q 434 634 434 1313 
Q 434 1759 690 2068 
Q 947 2378 1403 2484 
z
M 1172 3481 
Q 1172 3119 1398 2916 
Q 1625 2713 2034 2713 
Q 2441 2713 2670 2916 
Q 2900 3119 2900 3481 
Q 2900 3844 2670 4047 
Q 2441 4250 2034 4250 
Q 1625 4250 1398 4047 
Q 1172 3844 1172 3481 
z
" transform="scale(0.015625)"/>
       </defs>
       <use xlink:href="#DejaVuSans-38"/>
       <use xlink:href="#DejaVuSans-30" x="63.623047"/>
       <use xlink:href="#DejaVuSans-30" x="127.246094"/>
       <use xlink:href="#DejaVuSans-30" x="190.869141"/>
      </g>
     </g>
    </g>
    <g id="xtick_6">
     <g id="line2d_6">
      <g>
       <use xlink:href="#mff5b652470" x="454.911213" y="364.408" style="stroke: #000000; stroke-width: 0.8"/>
      </g>
     </g>
     <g id="text_6">
      <!-- 10000 -->
      <g transform="translate(439.004963 379.006438) scale(0.1 -0.1)">
       <defs>
        <path id="DejaVuSans-31" d="M 794 531 
L 1825 531 
L 1825 4091 
L 703 3866 
L 703 4441 
L 1819 4666 
L 2450 4666 
L 2450 531 
L 3481 531 
L 3481 0 
L 794 0 
L 794 531 
z
" transform="scale(0.015625)"/>
       </defs>
       <use xlink:href="#DejaVuSans-31"/>
       <use xlink:href="#DejaVuSans-30" x="63.623047"/>
       <use xlink:href="#DejaVuSans-30" x="127.246094"/>
       <use xlink:href="#DejaVuSans-30" x="190.869141"/>
       <use xlink:href="#DejaVuSans-30" x="254.492188"/>
      </g>
     </g>
    </g>
    <g id="xtick_7">
     <g id="line2d_7">
      <g>
       <use xlink:href="#mff5b652470" x="533.109455" y="364.408" style="stroke: #000000; stroke-width: 0.8"/>
      </g>
     </g>
     <g id="text_7">
      <!-- 12000 -->
      <g transform="translate(517.203205 379.006438) scale(0.1 -0.1)">
       <use xlink:href="#DejaVuSans-31"/>
       <use xlink:href="#DejaVuSans-32" x="63.623047"/>
       <use xlink:href="#DejaVuSans-30" x="127.246094"/>
       <use xlink:href="#DejaVuSans-30" x="190.869141"/>
       <use xlink:href="#DejaVuSans-30" x="254.492188"/>
      </g>
     </g>
    </g>
    <g id="xtick_8">
     <g id="line2d_8">
      <g>
       <use xlink:href="#mff5b652470" x="611.307698" y="364.408" style="stroke: #000000; stroke-width: 0.8"/>
      </g>
     </g>
     <g id="text_8">
      <!-- 14000 -->
      <g transform="translate(595.401448 379.006438) scale(0.1 -0.1)">
       <use xlink:href="#DejaVuSans-31"/>
       <use xlink:href="#DejaVuSans-34" x="63.623047"/>
       <use xlink:href="#DejaVuSans-30" x="127.246094"/>
       <use xlink:href="#DejaVuSans-30" x="190.869141"/>
       <use xlink:href="#DejaVuSans-30" x="254.492188"/>
      </g>
     </g>
    </g>
    <g id="xtick_9">
     <g id="line2d_9">
      <g>
       <use xlink:href="#mff5b652470" x="689.505941" y="364.408" style="stroke: #000000; stroke-width: 0.8"/>
      </g>
     </g>
     <g id="text_9">
      <!-- 16000 -->
      <g transform="translate(673.599691 379.006438) scale(0.1 -0.1)">
       <use xlink:href="#DejaVuSans-31"/>
       <use xlink:href="#DejaVuSans-36" x="63.623047"/>
       <use xlink:href="#DejaVuSans-30" x="127.246094"/>
       <use xlink:href="#DejaVuSans-30" x="190.869141"/>
       <use xlink:href="#DejaVuSans-30" x="254.492188"/>
      </g>
     </g>
    </g>
    <g id="text_10">
     <!-- Arbitrary Units -->
     <g transform="translate(328.1525 397.243625) scale(0.16 -0.16)">
      <defs>
       <path id="DejaVuSans-41" d="M 2188 4044 
L 1331 1722 
L 3047 1722 
L 2188 4044 
z
M 1831 4666 
L 2547 4666 
L 4325 0 
L 3669 0 
L 3244 1197 
L 1141 1197 
L 716 0 
L 50 0 
L 1831 4666 
z
" transform="scale(0.015625)"/>
       <path id="DejaVuSans-72" d="M 2631 2963 
Q 2534 3019 2420 3045 
Q 2306 3072 2169 3072 
Q 1681 3072 1420 2755 
Q 1159 2438 1159 1844 
L 1159 0 
L 581 0 
L 581 3500 
L 1159 3500 
L 1159 2956 
Q 1341 3275 1631 3429 
Q 1922 3584 2338 3584 
Q 2397 3584 2469 3576 
Q 2541 3569 2628 3553 
L 2631 2963 
z
" transform="scale(0.015625)"/>
       <path id="DejaVuSans-62" d="M 3116 1747 
Q 3116 2381 2855 2742 
Q 2594 3103 2138 3103 
Q 1681 3103 1420 2742 
Q 1159 2381 1159 1747 
Q 1159 1113 1420 752 
Q 1681 391 2138 391 
Q 2594 391 2855 752 
Q 3116 1113 3116 1747 
z
M 1159 2969 
Q 1341 3281 1617 3432 
Q 1894 3584 2278 3584 
Q 2916 3584 3314 3078 
Q 3713 2572 3713 1747 
Q 3713 922 3314 415 
Q 2916 -91 2278 -91 
Q 1894 -91 1617 61 
Q 1341 213 1159 525 
L 1159 0 
L 581 0 
L 581 4863 
L 1159 4863 
L 1159 2969 
z
" transform="scale(0.015625)"/>
       <path id="DejaVuSans-69" d="M 603 3500 
L 1178 3500 
L 1178 0 
L 603 0 
L 603 3500 
z
M 603 4863 
L 1178 4863 
L 1178 4134 
L 603 4134 
L 603 4863 
z
" transform="scale(0.015625)"/>
       <path id="DejaVuSans-74" d="M 1172 4494 
L 1172 3500 
L 2356 3500 
L 2356 3053 
L 1172 3053 
L 1172 1153 
Q 1172 725 1289 603 
Q 1406 481 1766 481 
L 2356 481 
L 2356 0 
L 1766 0 
Q 1100 0 847 248 
Q 594 497 594 1153 
L 594 3053 
L 172 3053 
L 172 3500 
L 594 3500 
L 594 4494 
L 1172 4494 
z
" transform="scale(0.015625)"/>
       <path id="DejaVuSans-61" d="M 2194 1759 
Q 1497 1759 1228 1600 
Q 959 1441 959 1056 
Q 959 750 1161 570 
Q 1363 391 1709 391 
Q 2188 391 2477 730 
Q 2766 1069 2766 1631 
L 2766 1759 
L 2194 1759 
z
M 3341 1997 
L 3341 0 
L 2766 0 
L 2766 531 
Q 2569 213 2275 61 
Q 1981 -91 1556 -91 
Q 1019 -91 701 211 
Q 384 513 384 1019 
Q 384 1609 779 1909 
Q 1175 2209 1959 2209 
L 2766 2209 
L 2766 2266 
Q 2766 2663 2505 2880 
Q 2244 3097 1772 3097 
Q 1472 3097 1187 3025 
Q 903 2953 641 2809 
L 641 3341 
Q 956 3463 1253 3523 
Q 1550 3584 1831 3584 
Q 2591 3584 2966 3190 
Q 3341 2797 3341 1997 
z
" transform="scale(0.015625)"/>
       <path id="DejaVuSans-79" d="M 2059 -325 
Q 1816 -950 1584 -1140 
Q 1353 -1331 966 -1331 
L 506 -1331 
L 506 -850 
L 844 -850 
Q 1081 -850 1212 -737 
Q 1344 -625 1503 -206 
L 1606 56 
L 191 3500 
L 800 3500 
L 1894 763 
L 2988 3500 
L 3597 3500 
L 2059 -325 
z
" transform="scale(0.015625)"/>
       <path id="DejaVuSans-20" transform="scale(0.015625)"/>
       <path id="DejaVuSans-55" d="M 556 4666 
L 1191 4666 
L 1191 1831 
Q 1191 1081 1462 751 
Q 1734 422 2344 422 
Q 2950 422 3222 751 
Q 3494 1081 3494 1831 
L 3494 4666 
L 4128 4666 
L 4128 1753 
Q 4128 841 3676 375 
Q 3225 -91 2344 -91 
Q 1459 -91 1007 375 
Q 556 841 556 1753 
L 556 4666 
z
" transform="scale(0.015625)"/>
       <path id="DejaVuSans-6e" d="M 3513 2113 
L 3513 0 
L 2938 0 
L 2938 2094 
Q 2938 2591 2744 2837 
Q 2550 3084 2163 3084 
Q 1697 3084 1428 2787 
Q 1159 2491 1159 1978 
L 1159 0 
L 581 0 
L 581 3500 
L 1159 3500 
L 1159 2956 
Q 1366 3272 1645 3428 
Q 1925 3584 2291 3584 
Q 2894 3584 3203 3211 
Q 3513 2838 3513 2113 
z
" transform="scale(0.015625)"/>
       <path id="DejaVuSans-73" d="M 2834 3397 
L 2834 2853 
Q 2591 2978 2328 3040 
Q 2066 3103 1784 3103 
Q 1356 3103 1142 2972 
Q 928 2841 928 2578 
Q 928 2378 1081 2264 
Q 1234 2150 1697 2047 
L 1894 2003 
Q 2506 1872 2764 1633 
Q 3022 1394 3022 966 
Q 3022 478 2636 193 
Q 2250 -91 1575 -91 
Q 1294 -91 989 -36 
Q 684 19 347 128 
L 347 722 
Q 666 556 975 473 
Q 1284 391 1588 391 
Q 1994 391 2212 530 
Q 2431 669 2431 922 
Q 2431 1156 2273 1281 
Q 2116 1406 1581 1522 
L 1381 1569 
Q 847 1681 609 1914 
Q 372 2147 372 2553 
Q 372 3047 722 3315 
Q 1072 3584 1716 3584 
Q 2034 3584 2315 3537 
Q 2597 3491 2834 3397 
z
" transform="scale(0.015625)"/>
      </defs>
      <use xlink:href="#DejaVuSans-41"/>
      <use xlink:href="#DejaVuSans-72" x="68.408203"/>
      <use xlink:href="#DejaVuSans-62" x="109.521484"/>
      <use xlink:href="#DejaVuSans-69" x="172.998047"/>
      <use xlink:href="#DejaVuSans-74" x="200.78125"/>
      <use xlink:href="#DejaVuSans-72" x="239.990234"/>
      <use xlink:href="#DejaVuSans-61" x="281.103516"/>
      <use xlink:href="#DejaVuSans-72" x="342.382812"/>
      <use xlink:href="#DejaVuSans-79" x="383.496094"/>
      <use xlink:href="#DejaVuSans-20" x="442.675781"/>
      <use xlink:href="#DejaVuSans-55" x="474.462891"/>
      <use xlink:href="#DejaVuSans-6e" x="547.65625"/>
      <use xlink:href="#DejaVuSans-69" x="611.035156"/>
      <use xlink:href="#DejaVuSans-74" x="638.818359"/>
      <use xlink:href="#DejaVuSans-73" x="678.027344"/>
     </g>
     <!-- (limited to 98th percentile) -->
     <g transform="translate(278.67 415.160125) scale(0.16 -0.16)">
      <defs>
       <path id="DejaVuSans-28" d="M 1984 4856 
Q 1566 4138 1362 3434 
Q 1159 2731 1159 2009 
Q 1159 1288 1364 580 
Q 1569 -128 1984 -844 
L 1484 -844 
Q 1016 -109 783 600 
Q 550 1309 550 2009 
Q 550 2706 781 3412 
Q 1013 4119 1484 4856 
L 1984 4856 
z
" transform="scale(0.015625)"/>
       <path id="DejaVuSans-6c" d="M 603 4863 
L 1178 4863 
L 1178 0 
L 603 0 
L 603 4863 
z
" transform="scale(0.015625)"/>
       <path id="DejaVuSans-6d" d="M 3328 2828 
Q 3544 3216 3844 3400 
Q 4144 3584 4550 3584 
Q 5097 3584 5394 3201 
Q 5691 2819 5691 2113 
L 5691 0 
L 5113 0 
L 5113 2094 
Q 5113 2597 4934 2840 
Q 4756 3084 4391 3084 
Q 3944 3084 3684 2787 
Q 3425 2491 3425 1978 
L 3425 0 
L 2847 0 
L 2847 2094 
Q 2847 2600 2669 2842 
Q 2491 3084 2119 3084 
Q 1678 3084 1418 2786 
Q 1159 2488 1159 1978 
L 1159 0 
L 581 0 
L 581 3500 
L 1159 3500 
L 1159 2956 
Q 1356 3278 1631 3431 
Q 1906 3584 2284 3584 
Q 2666 3584 2933 3390 
Q 3200 3197 3328 2828 
z
" transform="scale(0.015625)"/>
       <path id="DejaVuSans-65" d="M 3597 1894 
L 3597 1613 
L 953 1613 
Q 991 1019 1311 708 
Q 1631 397 2203 397 
Q 2534 397 2845 478 
Q 3156 559 3463 722 
L 3463 178 
Q 3153 47 2828 -22 
Q 2503 -91 2169 -91 
Q 1331 -91 842 396 
Q 353 884 353 1716 
Q 353 2575 817 3079 
Q 1281 3584 2069 3584 
Q 2775 3584 3186 3129 
Q 3597 2675 3597 1894 
z
M 3022 2063 
Q 3016 2534 2758 2815 
Q 2500 3097 2075 3097 
Q 1594 3097 1305 2825 
Q 1016 2553 972 2059 
L 3022 2063 
z
" transform="scale(0.015625)"/>
       <path id="DejaVuSans-64" d="M 2906 2969 
L 2906 4863 
L 3481 4863 
L 3481 0 
L 2906 0 
L 2906 525 
Q 2725 213 2448 61 
Q 2172 -91 1784 -91 
Q 1150 -91 751 415 
Q 353 922 353 1747 
Q 353 2572 751 3078 
Q 1150 3584 1784 3584 
Q 2172 3584 2448 3432 
Q 2725 3281 2906 2969 
z
M 947 1747 
Q 947 1113 1208 752 
Q 1469 391 1925 391 
Q 2381 391 2643 752 
Q 2906 1113 2906 1747 
Q 2906 2381 2643 2742 
Q 2381 3103 1925 3103 
Q 1469 3103 1208 2742 
Q 947 2381 947 1747 
z
" transform="scale(0.015625)"/>
       <path id="DejaVuSans-6f" d="M 1959 3097 
Q 1497 3097 1228 2736 
Q 959 2375 959 1747 
Q 959 1119 1226 758 
Q 1494 397 1959 397 
Q 2419 397 2687 759 
Q 2956 1122 2956 1747 
Q 2956 2369 2687 2733 
Q 2419 3097 1959 3097 
z
M 1959 3584 
Q 2709 3584 3137 3096 
Q 3566 2609 3566 1747 
Q 3566 888 3137 398 
Q 2709 -91 1959 -91 
Q 1206 -91 779 398 
Q 353 888 353 1747 
Q 353 2609 779 3096 
Q 1206 3584 1959 3584 
z
" transform="scale(0.015625)"/>
       <path id="DejaVuSans-39" d="M 703 97 
L 703 672 
Q 941 559 1184 500 
Q 1428 441 1663 441 
Q 2288 441 2617 861 
Q 2947 1281 2994 2138 
Q 2813 1869 2534 1725 
Q 2256 1581 1919 1581 
Q 1219 1581 811 2004 
Q 403 2428 403 3163 
Q 403 3881 828 4315 
Q 1253 4750 1959 4750 
Q 2769 4750 3195 4129 
Q 3622 3509 3622 2328 
Q 3622 1225 3098 567 
Q 2575 -91 1691 -91 
Q 1453 -91 1209 -44 
Q 966 3 703 97 
z
M 1959 2075 
Q 2384 2075 2632 2365 
Q 2881 2656 2881 3163 
Q 2881 3666 2632 3958 
Q 2384 4250 1959 4250 
Q 1534 4250 1286 3958 
Q 1038 3666 1038 3163 
Q 1038 2656 1286 2365 
Q 1534 2075 1959 2075 
z
" transform="scale(0.015625)"/>
       <path id="DejaVuSans-68" d="M 3513 2113 
L 3513 0 
L 2938 0 
L 2938 2094 
Q 2938 2591 2744 2837 
Q 2550 3084 2163 3084 
Q 1697 3084 1428 2787 
Q 1159 2491 1159 1978 
L 1159 0 
L 581 0 
L 581 4863 
L 1159 4863 
L 1159 2956 
Q 1366 3272 1645 3428 
Q 1925 3584 2291 3584 
Q 2894 3584 3203 3211 
Q 3513 2838 3513 2113 
z
" transform="scale(0.015625)"/>
       <path id="DejaVuSans-70" d="M 1159 525 
L 1159 -1331 
L 581 -1331 
L 581 3500 
L 1159 3500 
L 1159 2969 
Q 1341 3281 1617 3432 
Q 1894 3584 2278 3584 
Q 2916 3584 3314 3078 
Q 3713 2572 3713 1747 
Q 3713 922 3314 415 
Q 2916 -91 2278 -91 
Q 1894 -91 1617 61 
Q 1341 213 1159 525 
z
M 3116 1747 
Q 3116 2381 2855 2742 
Q 2594 3103 2138 3103 
Q 1681 3103 1420 2742 
Q 1159 2381 1159 1747 
Q 1159 1113 1420 752 
Q 1681 391 2138 391 
Q 2594 391 2855 752 
Q 3116 1113 3116 1747 
z
" transform="scale(0.015625)"/>
       <path id="DejaVuSans-63" d="M 3122 3366 
L 3122 2828 
Q 2878 2963 2633 3030 
Q 2388 3097 2138 3097 
Q 1578 3097 1268 2742 
Q 959 2388 959 1747 
Q 959 1106 1268 751 
Q 1578 397 2138 397 
Q 2388 397 2633 464 
Q 2878 531 3122 666 
L 3122 134 
Q 2881 22 2623 -34 
Q 2366 -91 2075 -91 
Q 1284 -91 818 406 
Q 353 903 353 1747 
Q 353 2603 823 3093 
Q 1294 3584 2113 3584 
Q 2378 3584 2631 3529 
Q 2884 3475 3122 3366 
z
" transform="scale(0.015625)"/>
       <path id="DejaVuSans-29" d="M 513 4856 
L 1013 4856 
Q 1481 4119 1714 3412 
Q 1947 2706 1947 2009 
Q 1947 1309 1714 600 
Q 1481 -109 1013 -844 
L 513 -844 
Q 928 -128 1133 580 
Q 1338 1288 1338 2009 
Q 1338 2731 1133 3434 
Q 928 4138 513 4856 
z
" transform="scale(0.015625)"/>
      </defs>
      <use xlink:href="#DejaVuSans-28"/>
      <use xlink:href="#DejaVuSans-6c" x="39.013672"/>
      <use xlink:href="#DejaVuSans-69" x="66.796875"/>
      <use xlink:href="#DejaVuSans-6d" x="94.580078"/>
      <use xlink:href="#DejaVuSans-69" x="191.992188"/>
      <use xlink:href="#DejaVuSans-74" x="219.775391"/>
      <use xlink:href="#DejaVuSans-65" x="258.984375"/>
      <use xlink:href="#DejaVuSans-64" x="320.507812"/>
      <use xlink:href="#DejaVuSans-20" x="383.984375"/>
      <use xlink:href="#DejaVuSans-74" x="415.771484"/>
      <use xlink:href="#DejaVuSans-6f" x="454.980469"/>
      <use xlink:href="#DejaVuSans-20" x="516.162109"/>
      <use xlink:href="#DejaVuSans-39" x="547.949219"/>
      <use xlink:href="#DejaVuSans-38" x="611.572266"/>
      <use xlink:href="#DejaVuSans-74" x="675.195312"/>
      <use xlink:href="#DejaVuSans-68" x="714.404297"/>
      <use xlink:href="#DejaVuSans-20" x="777.783203"/>
      <use xlink:href="#DejaVuSans-70" x="809.570312"/>
      <use xlink:href="#DejaVuSans-65" x="873.046875"/>
      <use xlink:href="#DejaVuSans-72" x="934.570312"/>
      <use xlink:href="#DejaVuSans-63" x="973.433594"/>
      <use xlink:href="#DejaVuSans-65" x="1028.414062"/>
      <use xlink:href="#DejaVuSans-6e" x="1089.9375"/>
      <use xlink:href="#DejaVuSans-74" x="1153.316406"/>
      <use xlink:href="#DejaVuSans-69" x="1192.525391"/>
      <use xlink:href="#DejaVuSans-6c" x="1220.308594"/>
      <use xlink:href="#DejaVuSans-65" x="1248.091797"/>
      <use xlink:href="#DejaVuSans-29" x="1309.615234"/>
     </g>
    </g>
   </g>
   <g id="matplotlib.axis_2">
    <g id="ytick_1">
     <g id="line2d_10">
      <defs>
       <path id="mc98a97aae5" d="M 0 0 
L -3.5 0 
" style="stroke: #000000; stroke-width: 0.8"/>
      </defs>
      <g>
       <use xlink:href="#mc98a97aae5" x="63.92" y="364.408" style="stroke: #000000; stroke-width: 0.8"/>
      </g>
     </g>
     <g id="text_11">
      <!-- 0 -->
      <g transform="translate(50.5575 368.207219) scale(0.1 -0.1)">
       <use xlink:href="#DejaVuSans-30"/>
      </g>
     </g>
    </g>
    <g id="ytick_2">
     <g id="line2d_11">
      <g>
       <use xlink:href="#mc98a97aae5" x="63.92" y="298.989879" style="stroke: #000000; stroke-width: 0.8"/>
      </g>
     </g>
     <g id="text_12">
      <!-- 500 -->
      <g transform="translate(37.8325 302.789098) scale(0.1 -0.1)">
       <defs>
        <path id="DejaVuSans-35" d="M 691 4666 
L 3169 4666 
L 3169 4134 
L 1269 4134 
L 1269 2991 
Q 1406 3038 1543 3061 
Q 1681 3084 1819 3084 
Q 2600 3084 3056 2656 
Q 3513 2228 3513 1497 
Q 3513 744 3044 326 
Q 2575 -91 1722 -91 
Q 1428 -91 1123 -41 
Q 819 9 494 109 
L 494 744 
Q 775 591 1075 516 
Q 1375 441 1709 441 
Q 2250 441 2565 725 
Q 2881 1009 2881 1497 
Q 2881 1984 2565 2268 
Q 2250 2553 1709 2553 
Q 1456 2553 1204 2497 
Q 953 2441 691 2322 
L 691 4666 
z
" transform="scale(0.015625)"/>
       </defs>
       <use xlink:href="#DejaVuSans-35"/>
       <use xlink:href="#DejaVuSans-30" x="63.623047"/>
       <use xlink:href="#DejaVuSans-30" x="127.246094"/>
      </g>
     </g>
    </g>
    <g id="ytick_3">
     <g id="line2d_12">
      <g>
       <use xlink:href="#mc98a97aae5" x="63.92" y="233.571758" style="stroke: #000000; stroke-width: 0.8"/>
      </g>
     </g>
     <g id="text_13">
      <!-- 1000 -->
      <g transform="translate(31.47 237.370977) scale(0.1 -0.1)">
       <use xlink:href="#DejaVuSans-31"/>
       <use xlink:href="#DejaVuSans-30" x="63.623047"/>
       <use xlink:href="#DejaVuSans-30" x="127.246094"/>
       <use xlink:href="#DejaVuSans-30" x="190.869141"/>
      </g>
     </g>
    </g>
    <g id="ytick_4">
     <g id="line2d_13">
      <g>
       <use xlink:href="#mc98a97aae5" x="63.92" y="168.153637" style="stroke: #000000; stroke-width: 0.8"/>
      </g>
     </g>
     <g id="text_14">
      <!-- 1500 -->
      <g transform="translate(31.47 171.952856) scale(0.1 -0.1)">
       <use xlink:href="#DejaVuSans-31"/>
       <use xlink:href="#DejaVuSans-35" x="63.623047"/>
       <use xlink:href="#DejaVuSans-30" x="127.246094"/>
       <use xlink:href="#DejaVuSans-30" x="190.869141"/>
      </g>
     </g>
    </g>
    <g id="ytick_5">
     <g id="line2d_14">
      <g>
       <use xlink:href="#mc98a97aae5" x="63.92" y="102.735517" style="stroke: #000000; stroke-width: 0.8"/>
      </g>
     </g>
     <g id="text_15">
      <!-- 2000 -->
      <g transform="translate(31.47 106.534735) scale(0.1 -0.1)">
       <use xlink:href="#DejaVuSans-32"/>
       <use xlink:href="#DejaVuSans-30" x="63.623047"/>
       <use xlink:href="#DejaVuSans-30" x="127.246094"/>
       <use xlink:href="#DejaVuSans-30" x="190.869141"/>
      </g>
     </g>
    </g>
    <g id="ytick_6">
     <g id="line2d_15">
      <g>
       <use xlink:href="#mc98a97aae5" x="63.92" y="37.317396" style="stroke: #000000; stroke-width: 0.8"/>
      </g>
     </g>
     <g id="text_16">
      <!-- 2500 -->
      <g transform="translate(31.47 41.116614) scale(0.1 -0.1)">
       <use xlink:href="#DejaVuSans-32"/>
       <use xlink:href="#DejaVuSans-35" x="63.623047"/>
       <use xlink:href="#DejaVuSans-30" x="127.246094"/>
       <use xlink:href="#DejaVuSans-30" x="190.869141"/>
      </g>
     </g>
    </g>
    <g id="text_17">
     <!-- Count -->
     <g transform="translate(24.1425 222.2815) rotate(-90) scale(0.16 -0.16)">
      <defs>
       <path id="DejaVuSans-43" d="M 4122 4306 
L 4122 3641 
Q 3803 3938 3442 4084 
Q 3081 4231 2675 4231 
Q 1875 4231 1450 3742 
Q 1025 3253 1025 2328 
Q 1025 1406 1450 917 
Q 1875 428 2675 428 
Q 3081 428 3442 575 
Q 3803 722 4122 1019 
L 4122 359 
Q 3791 134 3420 21 
Q 3050 -91 2638 -91 
Q 1578 -91 968 557 
Q 359 1206 359 2328 
Q 359 3453 968 4101 
Q 1578 4750 2638 4750 
Q 3056 4750 3426 4639 
Q 3797 4528 4122 4306 
z
" transform="scale(0.015625)"/>
       <path id="DejaVuSans-75" d="M 544 1381 
L 544 3500 
L 1119 3500 
L 1119 1403 
Q 1119 906 1312 657 
Q 1506 409 1894 409 
Q 2359 409 2629 706 
Q 2900 1003 2900 1516 
L 2900 3500 
L 3475 3500 
L 3475 0 
L 2900 0 
L 2900 538 
Q 2691 219 2414 64 
Q 2138 -91 1772 -91 
Q 1169 -91 856 284 
Q 544 659 544 1381 
z
M 1991 3584 
L 1991 3584 
z
" transform="scale(0.015625)"/>
      </defs>
      <use xlink:href="#DejaVuSans-43"/>
      <use xlink:href="#DejaVuSans-6f" x="69.824219"/>
      <use xlink:href="#DejaVuSans-75" x="131.005859"/>
      <use xlink:href="#DejaVuSans-6e" x="194.384766"/>
      <use xlink:href="#DejaVuSans-74" x="257.763672"/>
     </g>
    </g>
   </g>
   <g id="patch_103">
    <path d="M 63.92 364.408 
L 63.92 32.64 
" style="fill: none; stroke: #000000; stroke-width: 0.8; stroke-linejoin: miter; stroke-linecap: square"/>
   </g>
   <g id="patch_104">
    <path d="M 709.2 364.408 
L 709.2 32.64 
" style="fill: none; stroke: #000000; stroke-width: 0.8; stroke-linejoin: miter; stroke-linecap: square"/>
   </g>
   <g id="patch_105">
    <path d="M 63.92 364.408 
L 709.2 364.408 
" style="fill: none; stroke: #000000; stroke-width: 0.8; stroke-linejoin: miter; stroke-linecap: square"/>
   </g>
   <g id="patch_106">
    <path d="M 63.92 32.64 
L 709.2 32.64 
" style="fill: none; stroke: #000000; stroke-width: 0.8; stroke-linejoin: miter; stroke-linecap: square"/>
   </g>
   <g id="text_18">
    <!-- S0 -->
    <g transform="translate(373.849063 26.64) scale(0.2 -0.2)">
     <defs>
      <path id="DejaVuSans-53" d="M 3425 4513 
L 3425 3897 
Q 3066 4069 2747 4153 
Q 2428 4238 2131 4238 
Q 1616 4238 1336 4038 
Q 1056 3838 1056 3469 
Q 1056 3159 1242 3001 
Q 1428 2844 1947 2747 
L 2328 2669 
Q 3034 2534 3370 2195 
Q 3706 1856 3706 1288 
Q 3706 609 3251 259 
Q 2797 -91 1919 -91 
Q 1588 -91 1214 -16 
Q 841 59 441 206 
L 441 856 
Q 825 641 1194 531 
Q 1563 422 1919 422 
Q 2459 422 2753 634 
Q 3047 847 3047 1241 
Q 3047 1584 2836 1778 
Q 2625 1972 2144 2069 
L 1759 2144 
Q 1053 2284 737 2584 
Q 422 2884 422 3419 
Q 422 4038 858 4394 
Q 1294 4750 2059 4750 
Q 2388 4750 2728 4690 
Q 3069 4631 3425 4513 
z
" transform="scale(0.015625)"/>
     </defs>
     <use xlink:href="#DejaVuSans-53"/>
     <use xlink:href="#DejaVuSans-30" x="63.476562"/>
    </g>
   </g>
  </g>
 </g>
 <defs>
  <clipPath id="p57614080f0">
   <rect x="63.92" y="32.64" width="645.28" height="331.768"/>
  </clipPath>
 </defs>
</svg>
